G04 #@! TF.GenerationSoftware,KiCad,Pcbnew,8.0.3*
G04 #@! TF.CreationDate,2024-11-19T19:51:00+13:00*
G04 #@! TF.ProjectId,DEC8881_tester,44454338-3838-4315-9f74-65737465722e,rev?*
G04 #@! TF.SameCoordinates,Original*
G04 #@! TF.FileFunction,Legend,Top*
G04 #@! TF.FilePolarity,Positive*
%FSLAX46Y46*%
G04 Gerber Fmt 4.6, Leading zero omitted, Abs format (unit mm)*
G04 Created by KiCad (PCBNEW 8.0.3) date 2024-11-19 19:51:00*
%MOMM*%
%LPD*%
G01*
G04 APERTURE LIST*
%ADD10C,0.100000*%
%ADD11C,0.200000*%
%ADD12C,0.400000*%
%ADD13C,0.500000*%
%ADD14C,0.150000*%
%ADD15C,0.120000*%
%ADD16C,1.400000*%
%ADD17O,1.400000X1.400000*%
%ADD18C,2.000000*%
%ADD19R,1.600000X1.600000*%
%ADD20O,1.600000X1.600000*%
%ADD21R,1.800000X1.800000*%
%ADD22C,1.800000*%
%ADD23C,3.200000*%
%ADD24R,2.000000X1.440000*%
%ADD25O,2.000000X1.440000*%
%ADD26R,4.600000X2.000000*%
%ADD27O,4.200000X2.000000*%
%ADD28O,2.000000X4.200000*%
%ADD29R,1.700000X1.700000*%
%ADD30O,1.700000X1.700000*%
G04 APERTURE END LIST*
D10*
X128905000Y-80010000D02*
X130175000Y-80010000D01*
X123190000Y-81153000D02*
X121285000Y-81153000D01*
X123190000Y-78867000D02*
X121285000Y-78867000D01*
X123190000Y-81915000D02*
X125730000Y-81915000D01*
X123190000Y-78105000D02*
X123190000Y-81915000D01*
X125730000Y-78105000D02*
X123190000Y-78105000D01*
X128905000Y-80010000D02*
G75*
G02*
X127635000Y-80010000I-635000J0D01*
G01*
X127635000Y-80010000D02*
G75*
G02*
X128905000Y-80010000I635000J0D01*
G01*
X125730000Y-78105000D02*
G75*
G02*
X125730000Y-81915000I0J-1905000D01*
G01*
X166370000Y-78740000D02*
G75*
G02*
X163830000Y-78740000I-1270000J0D01*
G01*
X166370000Y-78740000D02*
X168910000Y-78740000D01*
X163830000Y-78740000D02*
X161290000Y-78740000D01*
D11*
X190329285Y-102775671D02*
X190257857Y-102847100D01*
X190257857Y-102847100D02*
X190043571Y-102918528D01*
X190043571Y-102918528D02*
X189900714Y-102918528D01*
X189900714Y-102918528D02*
X189686428Y-102847100D01*
X189686428Y-102847100D02*
X189543571Y-102704242D01*
X189543571Y-102704242D02*
X189472142Y-102561385D01*
X189472142Y-102561385D02*
X189400714Y-102275671D01*
X189400714Y-102275671D02*
X189400714Y-102061385D01*
X189400714Y-102061385D02*
X189472142Y-101775671D01*
X189472142Y-101775671D02*
X189543571Y-101632814D01*
X189543571Y-101632814D02*
X189686428Y-101489957D01*
X189686428Y-101489957D02*
X189900714Y-101418528D01*
X189900714Y-101418528D02*
X190043571Y-101418528D01*
X190043571Y-101418528D02*
X190257857Y-101489957D01*
X190257857Y-101489957D02*
X190329285Y-101561385D01*
D10*
X122998075Y-128802819D02*
X122664742Y-128326628D01*
X122426647Y-128802819D02*
X122426647Y-127802819D01*
X122426647Y-127802819D02*
X122807599Y-127802819D01*
X122807599Y-127802819D02*
X122902837Y-127850438D01*
X122902837Y-127850438D02*
X122950456Y-127898057D01*
X122950456Y-127898057D02*
X122998075Y-127993295D01*
X122998075Y-127993295D02*
X122998075Y-128136152D01*
X122998075Y-128136152D02*
X122950456Y-128231390D01*
X122950456Y-128231390D02*
X122902837Y-128279009D01*
X122902837Y-128279009D02*
X122807599Y-128326628D01*
X122807599Y-128326628D02*
X122426647Y-128326628D01*
X123807599Y-128755200D02*
X123712361Y-128802819D01*
X123712361Y-128802819D02*
X123521885Y-128802819D01*
X123521885Y-128802819D02*
X123426647Y-128755200D01*
X123426647Y-128755200D02*
X123379028Y-128659961D01*
X123379028Y-128659961D02*
X123379028Y-128279009D01*
X123379028Y-128279009D02*
X123426647Y-128183771D01*
X123426647Y-128183771D02*
X123521885Y-128136152D01*
X123521885Y-128136152D02*
X123712361Y-128136152D01*
X123712361Y-128136152D02*
X123807599Y-128183771D01*
X123807599Y-128183771D02*
X123855218Y-128279009D01*
X123855218Y-128279009D02*
X123855218Y-128374247D01*
X123855218Y-128374247D02*
X123379028Y-128469485D01*
X124188552Y-128136152D02*
X124426647Y-128802819D01*
X124426647Y-128802819D02*
X124664742Y-128136152D01*
X125759981Y-128517104D02*
X126236171Y-128517104D01*
X125664743Y-128802819D02*
X125998076Y-127802819D01*
X125998076Y-127802819D02*
X126331409Y-128802819D01*
X168451884Y-65023466D02*
X169213789Y-65023466D01*
X168832836Y-65404419D02*
X168832836Y-64642514D01*
X170166169Y-64404419D02*
X169689979Y-64404419D01*
X169689979Y-64404419D02*
X169642360Y-64880609D01*
X169642360Y-64880609D02*
X169689979Y-64832990D01*
X169689979Y-64832990D02*
X169785217Y-64785371D01*
X169785217Y-64785371D02*
X170023312Y-64785371D01*
X170023312Y-64785371D02*
X170118550Y-64832990D01*
X170118550Y-64832990D02*
X170166169Y-64880609D01*
X170166169Y-64880609D02*
X170213788Y-64975847D01*
X170213788Y-64975847D02*
X170213788Y-65213942D01*
X170213788Y-65213942D02*
X170166169Y-65309180D01*
X170166169Y-65309180D02*
X170118550Y-65356800D01*
X170118550Y-65356800D02*
X170023312Y-65404419D01*
X170023312Y-65404419D02*
X169785217Y-65404419D01*
X169785217Y-65404419D02*
X169689979Y-65356800D01*
X169689979Y-65356800D02*
X169642360Y-65309180D01*
X170547122Y-64737752D02*
X170785217Y-65404419D01*
X170785217Y-65404419D02*
X171023312Y-64737752D01*
X170307095Y-127317038D02*
X170211857Y-127269419D01*
X170211857Y-127269419D02*
X170069000Y-127269419D01*
X170069000Y-127269419D02*
X169926143Y-127317038D01*
X169926143Y-127317038D02*
X169830905Y-127412276D01*
X169830905Y-127412276D02*
X169783286Y-127507514D01*
X169783286Y-127507514D02*
X169735667Y-127697990D01*
X169735667Y-127697990D02*
X169735667Y-127840847D01*
X169735667Y-127840847D02*
X169783286Y-128031323D01*
X169783286Y-128031323D02*
X169830905Y-128126561D01*
X169830905Y-128126561D02*
X169926143Y-128221800D01*
X169926143Y-128221800D02*
X170069000Y-128269419D01*
X170069000Y-128269419D02*
X170164238Y-128269419D01*
X170164238Y-128269419D02*
X170307095Y-128221800D01*
X170307095Y-128221800D02*
X170354714Y-128174180D01*
X170354714Y-128174180D02*
X170354714Y-127840847D01*
X170354714Y-127840847D02*
X170164238Y-127840847D01*
X170783286Y-128269419D02*
X170783286Y-127269419D01*
X170783286Y-127269419D02*
X171354714Y-128269419D01*
X171354714Y-128269419D02*
X171354714Y-127269419D01*
X171830905Y-128269419D02*
X171830905Y-127269419D01*
X171830905Y-127269419D02*
X172069000Y-127269419D01*
X172069000Y-127269419D02*
X172211857Y-127317038D01*
X172211857Y-127317038D02*
X172307095Y-127412276D01*
X172307095Y-127412276D02*
X172354714Y-127507514D01*
X172354714Y-127507514D02*
X172402333Y-127697990D01*
X172402333Y-127697990D02*
X172402333Y-127840847D01*
X172402333Y-127840847D02*
X172354714Y-128031323D01*
X172354714Y-128031323D02*
X172307095Y-128126561D01*
X172307095Y-128126561D02*
X172211857Y-128221800D01*
X172211857Y-128221800D02*
X172069000Y-128269419D01*
X172069000Y-128269419D02*
X171830905Y-128269419D01*
X160647095Y-128269419D02*
X160647095Y-127269419D01*
X160647095Y-127269419D02*
X160885190Y-127269419D01*
X160885190Y-127269419D02*
X161028047Y-127317038D01*
X161028047Y-127317038D02*
X161123285Y-127412276D01*
X161123285Y-127412276D02*
X161170904Y-127507514D01*
X161170904Y-127507514D02*
X161218523Y-127697990D01*
X161218523Y-127697990D02*
X161218523Y-127840847D01*
X161218523Y-127840847D02*
X161170904Y-128031323D01*
X161170904Y-128031323D02*
X161123285Y-128126561D01*
X161123285Y-128126561D02*
X161028047Y-128221800D01*
X161028047Y-128221800D02*
X160885190Y-128269419D01*
X160885190Y-128269419D02*
X160647095Y-128269419D01*
D11*
X189507857Y-87249957D02*
X190222143Y-87249957D01*
X189365000Y-87678528D02*
X189865000Y-86178528D01*
X189865000Y-86178528D02*
X190365000Y-87678528D01*
X189472142Y-110538528D02*
X189472142Y-109038528D01*
X189472142Y-109038528D02*
X189829285Y-109038528D01*
X189829285Y-109038528D02*
X190043571Y-109109957D01*
X190043571Y-109109957D02*
X190186428Y-109252814D01*
X190186428Y-109252814D02*
X190257857Y-109395671D01*
X190257857Y-109395671D02*
X190329285Y-109681385D01*
X190329285Y-109681385D02*
X190329285Y-109895671D01*
X190329285Y-109895671D02*
X190257857Y-110181385D01*
X190257857Y-110181385D02*
X190186428Y-110324242D01*
X190186428Y-110324242D02*
X190043571Y-110467100D01*
X190043571Y-110467100D02*
X189829285Y-110538528D01*
X189829285Y-110538528D02*
X189472142Y-110538528D01*
D10*
X168290905Y-127983704D02*
X168767095Y-127983704D01*
X168195667Y-128269419D02*
X168529000Y-127269419D01*
X168529000Y-127269419D02*
X168862333Y-128269419D01*
D12*
X136774714Y-81939914D02*
X138203286Y-81939914D01*
X136489000Y-82797057D02*
X137489000Y-79797057D01*
X137489000Y-79797057D02*
X138489000Y-82797057D01*
D10*
X157607095Y-127317038D02*
X157511857Y-127269419D01*
X157511857Y-127269419D02*
X157369000Y-127269419D01*
X157369000Y-127269419D02*
X157226143Y-127317038D01*
X157226143Y-127317038D02*
X157130905Y-127412276D01*
X157130905Y-127412276D02*
X157083286Y-127507514D01*
X157083286Y-127507514D02*
X157035667Y-127697990D01*
X157035667Y-127697990D02*
X157035667Y-127840847D01*
X157035667Y-127840847D02*
X157083286Y-128031323D01*
X157083286Y-128031323D02*
X157130905Y-128126561D01*
X157130905Y-128126561D02*
X157226143Y-128221800D01*
X157226143Y-128221800D02*
X157369000Y-128269419D01*
X157369000Y-128269419D02*
X157464238Y-128269419D01*
X157464238Y-128269419D02*
X157607095Y-128221800D01*
X157607095Y-128221800D02*
X157654714Y-128174180D01*
X157654714Y-128174180D02*
X157654714Y-127840847D01*
X157654714Y-127840847D02*
X157464238Y-127840847D01*
X158083286Y-128269419D02*
X158083286Y-127269419D01*
X158083286Y-127269419D02*
X158654714Y-128269419D01*
X158654714Y-128269419D02*
X158654714Y-127269419D01*
X159130905Y-128269419D02*
X159130905Y-127269419D01*
X159130905Y-127269419D02*
X159369000Y-127269419D01*
X159369000Y-127269419D02*
X159511857Y-127317038D01*
X159511857Y-127317038D02*
X159607095Y-127412276D01*
X159607095Y-127412276D02*
X159654714Y-127507514D01*
X159654714Y-127507514D02*
X159702333Y-127697990D01*
X159702333Y-127697990D02*
X159702333Y-127840847D01*
X159702333Y-127840847D02*
X159654714Y-128031323D01*
X159654714Y-128031323D02*
X159607095Y-128126561D01*
X159607095Y-128126561D02*
X159511857Y-128221800D01*
X159511857Y-128221800D02*
X159369000Y-128269419D01*
X159369000Y-128269419D02*
X159130905Y-128269419D01*
D13*
X125318999Y-69475863D02*
X125318999Y-65975863D01*
X125318999Y-65975863D02*
X126271380Y-65975863D01*
X126271380Y-65975863D02*
X126842809Y-66142530D01*
X126842809Y-66142530D02*
X127223761Y-66475863D01*
X127223761Y-66475863D02*
X127414238Y-66809197D01*
X127414238Y-66809197D02*
X127604714Y-67475863D01*
X127604714Y-67475863D02*
X127604714Y-67975863D01*
X127604714Y-67975863D02*
X127414238Y-68642530D01*
X127414238Y-68642530D02*
X127223761Y-68975863D01*
X127223761Y-68975863D02*
X126842809Y-69309197D01*
X126842809Y-69309197D02*
X126271380Y-69475863D01*
X126271380Y-69475863D02*
X125318999Y-69475863D01*
X129318999Y-67642530D02*
X130652333Y-67642530D01*
X131223761Y-69475863D02*
X129318999Y-69475863D01*
X129318999Y-69475863D02*
X129318999Y-65975863D01*
X129318999Y-65975863D02*
X131223761Y-65975863D01*
X135223762Y-69142530D02*
X135033286Y-69309197D01*
X135033286Y-69309197D02*
X134461857Y-69475863D01*
X134461857Y-69475863D02*
X134080905Y-69475863D01*
X134080905Y-69475863D02*
X133509476Y-69309197D01*
X133509476Y-69309197D02*
X133128524Y-68975863D01*
X133128524Y-68975863D02*
X132938047Y-68642530D01*
X132938047Y-68642530D02*
X132747571Y-67975863D01*
X132747571Y-67975863D02*
X132747571Y-67475863D01*
X132747571Y-67475863D02*
X132938047Y-66809197D01*
X132938047Y-66809197D02*
X133128524Y-66475863D01*
X133128524Y-66475863D02*
X133509476Y-66142530D01*
X133509476Y-66142530D02*
X134080905Y-65975863D01*
X134080905Y-65975863D02*
X134461857Y-65975863D01*
X134461857Y-65975863D02*
X135033286Y-66142530D01*
X135033286Y-66142530D02*
X135223762Y-66309197D01*
X140557095Y-67475863D02*
X140176143Y-67309197D01*
X140176143Y-67309197D02*
X139985666Y-67142530D01*
X139985666Y-67142530D02*
X139795190Y-66809197D01*
X139795190Y-66809197D02*
X139795190Y-66642530D01*
X139795190Y-66642530D02*
X139985666Y-66309197D01*
X139985666Y-66309197D02*
X140176143Y-66142530D01*
X140176143Y-66142530D02*
X140557095Y-65975863D01*
X140557095Y-65975863D02*
X141319000Y-65975863D01*
X141319000Y-65975863D02*
X141699952Y-66142530D01*
X141699952Y-66142530D02*
X141890428Y-66309197D01*
X141890428Y-66309197D02*
X142080905Y-66642530D01*
X142080905Y-66642530D02*
X142080905Y-66809197D01*
X142080905Y-66809197D02*
X141890428Y-67142530D01*
X141890428Y-67142530D02*
X141699952Y-67309197D01*
X141699952Y-67309197D02*
X141319000Y-67475863D01*
X141319000Y-67475863D02*
X140557095Y-67475863D01*
X140557095Y-67475863D02*
X140176143Y-67642530D01*
X140176143Y-67642530D02*
X139985666Y-67809197D01*
X139985666Y-67809197D02*
X139795190Y-68142530D01*
X139795190Y-68142530D02*
X139795190Y-68809197D01*
X139795190Y-68809197D02*
X139985666Y-69142530D01*
X139985666Y-69142530D02*
X140176143Y-69309197D01*
X140176143Y-69309197D02*
X140557095Y-69475863D01*
X140557095Y-69475863D02*
X141319000Y-69475863D01*
X141319000Y-69475863D02*
X141699952Y-69309197D01*
X141699952Y-69309197D02*
X141890428Y-69142530D01*
X141890428Y-69142530D02*
X142080905Y-68809197D01*
X142080905Y-68809197D02*
X142080905Y-68142530D01*
X142080905Y-68142530D02*
X141890428Y-67809197D01*
X141890428Y-67809197D02*
X141699952Y-67642530D01*
X141699952Y-67642530D02*
X141319000Y-67475863D01*
X144366619Y-67475863D02*
X143985667Y-67309197D01*
X143985667Y-67309197D02*
X143795190Y-67142530D01*
X143795190Y-67142530D02*
X143604714Y-66809197D01*
X143604714Y-66809197D02*
X143604714Y-66642530D01*
X143604714Y-66642530D02*
X143795190Y-66309197D01*
X143795190Y-66309197D02*
X143985667Y-66142530D01*
X143985667Y-66142530D02*
X144366619Y-65975863D01*
X144366619Y-65975863D02*
X145128524Y-65975863D01*
X145128524Y-65975863D02*
X145509476Y-66142530D01*
X145509476Y-66142530D02*
X145699952Y-66309197D01*
X145699952Y-66309197D02*
X145890429Y-66642530D01*
X145890429Y-66642530D02*
X145890429Y-66809197D01*
X145890429Y-66809197D02*
X145699952Y-67142530D01*
X145699952Y-67142530D02*
X145509476Y-67309197D01*
X145509476Y-67309197D02*
X145128524Y-67475863D01*
X145128524Y-67475863D02*
X144366619Y-67475863D01*
X144366619Y-67475863D02*
X143985667Y-67642530D01*
X143985667Y-67642530D02*
X143795190Y-67809197D01*
X143795190Y-67809197D02*
X143604714Y-68142530D01*
X143604714Y-68142530D02*
X143604714Y-68809197D01*
X143604714Y-68809197D02*
X143795190Y-69142530D01*
X143795190Y-69142530D02*
X143985667Y-69309197D01*
X143985667Y-69309197D02*
X144366619Y-69475863D01*
X144366619Y-69475863D02*
X145128524Y-69475863D01*
X145128524Y-69475863D02*
X145509476Y-69309197D01*
X145509476Y-69309197D02*
X145699952Y-69142530D01*
X145699952Y-69142530D02*
X145890429Y-68809197D01*
X145890429Y-68809197D02*
X145890429Y-68142530D01*
X145890429Y-68142530D02*
X145699952Y-67809197D01*
X145699952Y-67809197D02*
X145509476Y-67642530D01*
X145509476Y-67642530D02*
X145128524Y-67475863D01*
X148176143Y-67475863D02*
X147795191Y-67309197D01*
X147795191Y-67309197D02*
X147604714Y-67142530D01*
X147604714Y-67142530D02*
X147414238Y-66809197D01*
X147414238Y-66809197D02*
X147414238Y-66642530D01*
X147414238Y-66642530D02*
X147604714Y-66309197D01*
X147604714Y-66309197D02*
X147795191Y-66142530D01*
X147795191Y-66142530D02*
X148176143Y-65975863D01*
X148176143Y-65975863D02*
X148938048Y-65975863D01*
X148938048Y-65975863D02*
X149319000Y-66142530D01*
X149319000Y-66142530D02*
X149509476Y-66309197D01*
X149509476Y-66309197D02*
X149699953Y-66642530D01*
X149699953Y-66642530D02*
X149699953Y-66809197D01*
X149699953Y-66809197D02*
X149509476Y-67142530D01*
X149509476Y-67142530D02*
X149319000Y-67309197D01*
X149319000Y-67309197D02*
X148938048Y-67475863D01*
X148938048Y-67475863D02*
X148176143Y-67475863D01*
X148176143Y-67475863D02*
X147795191Y-67642530D01*
X147795191Y-67642530D02*
X147604714Y-67809197D01*
X147604714Y-67809197D02*
X147414238Y-68142530D01*
X147414238Y-68142530D02*
X147414238Y-68809197D01*
X147414238Y-68809197D02*
X147604714Y-69142530D01*
X147604714Y-69142530D02*
X147795191Y-69309197D01*
X147795191Y-69309197D02*
X148176143Y-69475863D01*
X148176143Y-69475863D02*
X148938048Y-69475863D01*
X148938048Y-69475863D02*
X149319000Y-69309197D01*
X149319000Y-69309197D02*
X149509476Y-69142530D01*
X149509476Y-69142530D02*
X149699953Y-68809197D01*
X149699953Y-68809197D02*
X149699953Y-68142530D01*
X149699953Y-68142530D02*
X149509476Y-67809197D01*
X149509476Y-67809197D02*
X149319000Y-67642530D01*
X149319000Y-67642530D02*
X148938048Y-67475863D01*
X153509477Y-69475863D02*
X151223762Y-69475863D01*
X152366619Y-69475863D02*
X152366619Y-65975863D01*
X152366619Y-65975863D02*
X151985667Y-66475863D01*
X151985667Y-66475863D02*
X151604715Y-66809197D01*
X151604715Y-66809197D02*
X151223762Y-66975863D01*
X130747572Y-71610667D02*
X133033286Y-71610667D01*
X131890429Y-75110667D02*
X131890429Y-71610667D01*
X135890429Y-74944001D02*
X135509477Y-75110667D01*
X135509477Y-75110667D02*
X134747572Y-75110667D01*
X134747572Y-75110667D02*
X134366619Y-74944001D01*
X134366619Y-74944001D02*
X134176143Y-74610667D01*
X134176143Y-74610667D02*
X134176143Y-73277334D01*
X134176143Y-73277334D02*
X134366619Y-72944001D01*
X134366619Y-72944001D02*
X134747572Y-72777334D01*
X134747572Y-72777334D02*
X135509477Y-72777334D01*
X135509477Y-72777334D02*
X135890429Y-72944001D01*
X135890429Y-72944001D02*
X136080905Y-73277334D01*
X136080905Y-73277334D02*
X136080905Y-73610667D01*
X136080905Y-73610667D02*
X134176143Y-73944001D01*
X137604714Y-74944001D02*
X137985667Y-75110667D01*
X137985667Y-75110667D02*
X138747571Y-75110667D01*
X138747571Y-75110667D02*
X139128524Y-74944001D01*
X139128524Y-74944001D02*
X139319000Y-74610667D01*
X139319000Y-74610667D02*
X139319000Y-74444001D01*
X139319000Y-74444001D02*
X139128524Y-74110667D01*
X139128524Y-74110667D02*
X138747571Y-73944001D01*
X138747571Y-73944001D02*
X138176143Y-73944001D01*
X138176143Y-73944001D02*
X137795190Y-73777334D01*
X137795190Y-73777334D02*
X137604714Y-73444001D01*
X137604714Y-73444001D02*
X137604714Y-73277334D01*
X137604714Y-73277334D02*
X137795190Y-72944001D01*
X137795190Y-72944001D02*
X138176143Y-72777334D01*
X138176143Y-72777334D02*
X138747571Y-72777334D01*
X138747571Y-72777334D02*
X139128524Y-72944001D01*
X140461857Y-72777334D02*
X141985666Y-72777334D01*
X141033285Y-71610667D02*
X141033285Y-74610667D01*
X141033285Y-74610667D02*
X141223762Y-74944001D01*
X141223762Y-74944001D02*
X141604714Y-75110667D01*
X141604714Y-75110667D02*
X141985666Y-75110667D01*
X144842809Y-74944001D02*
X144461857Y-75110667D01*
X144461857Y-75110667D02*
X143699952Y-75110667D01*
X143699952Y-75110667D02*
X143318999Y-74944001D01*
X143318999Y-74944001D02*
X143128523Y-74610667D01*
X143128523Y-74610667D02*
X143128523Y-73277334D01*
X143128523Y-73277334D02*
X143318999Y-72944001D01*
X143318999Y-72944001D02*
X143699952Y-72777334D01*
X143699952Y-72777334D02*
X144461857Y-72777334D01*
X144461857Y-72777334D02*
X144842809Y-72944001D01*
X144842809Y-72944001D02*
X145033285Y-73277334D01*
X145033285Y-73277334D02*
X145033285Y-73610667D01*
X145033285Y-73610667D02*
X143128523Y-73944001D01*
X146747570Y-75110667D02*
X146747570Y-72777334D01*
X146747570Y-73444001D02*
X146938047Y-73110667D01*
X146938047Y-73110667D02*
X147128523Y-72944001D01*
X147128523Y-72944001D02*
X147509475Y-72777334D01*
X147509475Y-72777334D02*
X147890428Y-72777334D01*
D10*
X166060428Y-127745609D02*
X166203285Y-127793228D01*
X166203285Y-127793228D02*
X166250904Y-127840847D01*
X166250904Y-127840847D02*
X166298523Y-127936085D01*
X166298523Y-127936085D02*
X166298523Y-128078942D01*
X166298523Y-128078942D02*
X166250904Y-128174180D01*
X166250904Y-128174180D02*
X166203285Y-128221800D01*
X166203285Y-128221800D02*
X166108047Y-128269419D01*
X166108047Y-128269419D02*
X165727095Y-128269419D01*
X165727095Y-128269419D02*
X165727095Y-127269419D01*
X165727095Y-127269419D02*
X166060428Y-127269419D01*
X166060428Y-127269419D02*
X166155666Y-127317038D01*
X166155666Y-127317038D02*
X166203285Y-127364657D01*
X166203285Y-127364657D02*
X166250904Y-127459895D01*
X166250904Y-127459895D02*
X166250904Y-127555133D01*
X166250904Y-127555133D02*
X166203285Y-127650371D01*
X166203285Y-127650371D02*
X166155666Y-127697990D01*
X166155666Y-127697990D02*
X166060428Y-127745609D01*
X166060428Y-127745609D02*
X165727095Y-127745609D01*
D12*
X147863285Y-81225628D02*
X148291857Y-81368485D01*
X148291857Y-81368485D02*
X148434714Y-81511342D01*
X148434714Y-81511342D02*
X148577571Y-81797057D01*
X148577571Y-81797057D02*
X148577571Y-82225628D01*
X148577571Y-82225628D02*
X148434714Y-82511342D01*
X148434714Y-82511342D02*
X148291857Y-82654200D01*
X148291857Y-82654200D02*
X148006142Y-82797057D01*
X148006142Y-82797057D02*
X146863285Y-82797057D01*
X146863285Y-82797057D02*
X146863285Y-79797057D01*
X146863285Y-79797057D02*
X147863285Y-79797057D01*
X147863285Y-79797057D02*
X148149000Y-79939914D01*
X148149000Y-79939914D02*
X148291857Y-80082771D01*
X148291857Y-80082771D02*
X148434714Y-80368485D01*
X148434714Y-80368485D02*
X148434714Y-80654200D01*
X148434714Y-80654200D02*
X148291857Y-80939914D01*
X148291857Y-80939914D02*
X148149000Y-81082771D01*
X148149000Y-81082771D02*
X147863285Y-81225628D01*
X147863285Y-81225628D02*
X146863285Y-81225628D01*
D10*
X163758523Y-128174180D02*
X163710904Y-128221800D01*
X163710904Y-128221800D02*
X163568047Y-128269419D01*
X163568047Y-128269419D02*
X163472809Y-128269419D01*
X163472809Y-128269419D02*
X163329952Y-128221800D01*
X163329952Y-128221800D02*
X163234714Y-128126561D01*
X163234714Y-128126561D02*
X163187095Y-128031323D01*
X163187095Y-128031323D02*
X163139476Y-127840847D01*
X163139476Y-127840847D02*
X163139476Y-127697990D01*
X163139476Y-127697990D02*
X163187095Y-127507514D01*
X163187095Y-127507514D02*
X163234714Y-127412276D01*
X163234714Y-127412276D02*
X163329952Y-127317038D01*
X163329952Y-127317038D02*
X163472809Y-127269419D01*
X163472809Y-127269419D02*
X163568047Y-127269419D01*
X163568047Y-127269419D02*
X163710904Y-127317038D01*
X163710904Y-127317038D02*
X163758523Y-127364657D01*
D11*
X189972142Y-94512814D02*
X190186428Y-94584242D01*
X190186428Y-94584242D02*
X190257857Y-94655671D01*
X190257857Y-94655671D02*
X190329285Y-94798528D01*
X190329285Y-94798528D02*
X190329285Y-95012814D01*
X190329285Y-95012814D02*
X190257857Y-95155671D01*
X190257857Y-95155671D02*
X190186428Y-95227100D01*
X190186428Y-95227100D02*
X190043571Y-95298528D01*
X190043571Y-95298528D02*
X189472142Y-95298528D01*
X189472142Y-95298528D02*
X189472142Y-93798528D01*
X189472142Y-93798528D02*
X189972142Y-93798528D01*
X189972142Y-93798528D02*
X190115000Y-93869957D01*
X190115000Y-93869957D02*
X190186428Y-93941385D01*
X190186428Y-93941385D02*
X190257857Y-94084242D01*
X190257857Y-94084242D02*
X190257857Y-94227100D01*
X190257857Y-94227100D02*
X190186428Y-94369957D01*
X190186428Y-94369957D02*
X190115000Y-94441385D01*
X190115000Y-94441385D02*
X189972142Y-94512814D01*
X189972142Y-94512814D02*
X189472142Y-94512814D01*
D14*
X177735666Y-80059819D02*
X177735666Y-80774104D01*
X177735666Y-80774104D02*
X177688047Y-80916961D01*
X177688047Y-80916961D02*
X177592809Y-81012200D01*
X177592809Y-81012200D02*
X177449952Y-81059819D01*
X177449952Y-81059819D02*
X177354714Y-81059819D01*
X178735666Y-81059819D02*
X178164238Y-81059819D01*
X178449952Y-81059819D02*
X178449952Y-80059819D01*
X178449952Y-80059819D02*
X178354714Y-80202676D01*
X178354714Y-80202676D02*
X178259476Y-80297914D01*
X178259476Y-80297914D02*
X178164238Y-80345533D01*
X172853819Y-125809333D02*
X173568104Y-125809333D01*
X173568104Y-125809333D02*
X173710961Y-125856952D01*
X173710961Y-125856952D02*
X173806200Y-125952190D01*
X173806200Y-125952190D02*
X173853819Y-126095047D01*
X173853819Y-126095047D02*
X173853819Y-126190285D01*
X172949057Y-125380761D02*
X172901438Y-125333142D01*
X172901438Y-125333142D02*
X172853819Y-125237904D01*
X172853819Y-125237904D02*
X172853819Y-124999809D01*
X172853819Y-124999809D02*
X172901438Y-124904571D01*
X172901438Y-124904571D02*
X172949057Y-124856952D01*
X172949057Y-124856952D02*
X173044295Y-124809333D01*
X173044295Y-124809333D02*
X173139533Y-124809333D01*
X173139533Y-124809333D02*
X173282390Y-124856952D01*
X173282390Y-124856952D02*
X173853819Y-125428380D01*
X173853819Y-125428380D02*
X173853819Y-124809333D01*
D15*
X122479000Y-103505000D02*
X123429000Y-103505000D01*
X123429000Y-102585000D02*
X123429000Y-104425000D01*
X123429000Y-104425000D02*
X127269000Y-104425000D01*
X127269000Y-102585000D02*
X123429000Y-102585000D01*
X127269000Y-104425000D02*
X127269000Y-102585000D01*
X128219000Y-103505000D02*
X127269000Y-103505000D01*
X144149000Y-101775000D02*
X144149000Y-103275000D01*
X145399000Y-105775000D02*
X149899000Y-105775000D01*
X149899000Y-99275000D02*
X145399000Y-99275000D01*
X151149000Y-103275000D02*
X151149000Y-101775000D01*
X122479000Y-100965000D02*
X123429000Y-100965000D01*
X123429000Y-100045000D02*
X123429000Y-101885000D01*
X123429000Y-101885000D02*
X127269000Y-101885000D01*
X127269000Y-100045000D02*
X123429000Y-100045000D01*
X127269000Y-101885000D02*
X127269000Y-100045000D01*
X128219000Y-100965000D02*
X127269000Y-100965000D01*
X122479000Y-108585000D02*
X123429000Y-108585000D01*
X123429000Y-107665000D02*
X123429000Y-109505000D01*
X123429000Y-109505000D02*
X127269000Y-109505000D01*
X127269000Y-107665000D02*
X123429000Y-107665000D01*
X127269000Y-109505000D02*
X127269000Y-107665000D01*
X128219000Y-108585000D02*
X127269000Y-108585000D01*
X133989000Y-109395000D02*
X133989000Y-110895000D01*
X135239000Y-113395000D02*
X139739000Y-113395000D01*
X139739000Y-106895000D02*
X135239000Y-106895000D01*
X140989000Y-110895000D02*
X140989000Y-109395000D01*
X156929000Y-116075000D02*
X156929000Y-118875000D01*
X156929000Y-118875000D02*
X172509000Y-118875000D01*
X169799000Y-118875000D02*
X169799000Y-116075000D01*
X172509000Y-116075000D02*
X156929000Y-116075000D01*
X172509000Y-118875000D02*
X172509000Y-116075000D01*
X122479000Y-93345000D02*
X123429000Y-93345000D01*
X123429000Y-92425000D02*
X123429000Y-94265000D01*
X123429000Y-94265000D02*
X127269000Y-94265000D01*
X127269000Y-92425000D02*
X123429000Y-92425000D01*
X127269000Y-94265000D02*
X127269000Y-92425000D01*
X128219000Y-93345000D02*
X127269000Y-93345000D01*
X133989000Y-86535000D02*
X133989000Y-88035000D01*
X135239000Y-90535000D02*
X139739000Y-90535000D01*
X139739000Y-84035000D02*
X135239000Y-84035000D01*
X140989000Y-88035000D02*
X140989000Y-86535000D01*
X187869000Y-85915000D02*
X187869000Y-85759000D01*
X187869000Y-88231000D02*
X187869000Y-88075000D01*
X184636665Y-85916392D02*
G75*
G02*
X187869000Y-85759484I1672335J-1078608D01*
G01*
X185267870Y-85915163D02*
G75*
G02*
X187349961Y-85915000I1041130J-1079837D01*
G01*
X187349961Y-88075000D02*
G75*
G02*
X185267870Y-88074837I-1040961J1080000D01*
G01*
X187869000Y-88230516D02*
G75*
G02*
X184636665Y-88073608I-1560000J1235516D01*
G01*
X144149000Y-94155000D02*
X144149000Y-95655000D01*
X145399000Y-98155000D02*
X149899000Y-98155000D01*
X149899000Y-91655000D02*
X145399000Y-91655000D01*
X151149000Y-95655000D02*
X151149000Y-94155000D01*
X122479000Y-88265000D02*
X123429000Y-88265000D01*
X123429000Y-87345000D02*
X123429000Y-89185000D01*
X123429000Y-89185000D02*
X127269000Y-89185000D01*
X127269000Y-87345000D02*
X123429000Y-87345000D01*
X127269000Y-89185000D02*
X127269000Y-87345000D01*
X128219000Y-88265000D02*
X127269000Y-88265000D01*
X175819000Y-102235000D02*
X176769000Y-102235000D01*
X176769000Y-101315000D02*
X176769000Y-103155000D01*
X176769000Y-103155000D02*
X180609000Y-103155000D01*
X180609000Y-101315000D02*
X176769000Y-101315000D01*
X180609000Y-103155000D02*
X180609000Y-101315000D01*
X181559000Y-102235000D02*
X180609000Y-102235000D01*
X155857400Y-93599000D02*
X155857400Y-91059000D01*
X156917400Y-81669000D02*
X156917400Y-83529000D01*
X156917400Y-88429000D02*
X156917400Y-114869000D01*
X156917400Y-114869000D02*
X172317400Y-114869000D01*
X159157400Y-81669000D02*
X159157400Y-83929000D01*
X172317400Y-81669000D02*
X156917400Y-81669000D01*
X172317400Y-114869000D02*
X172317400Y-81669000D01*
X158507400Y-85979000D02*
G75*
G02*
X156707400Y-85979000I-900000J0D01*
G01*
X156707400Y-85979000D02*
G75*
G02*
X158507400Y-85979000I900000J0D01*
G01*
X160157400Y-85979000D02*
G75*
G02*
X155057400Y-85979000I-2550000J0D01*
G01*
X155057400Y-85979000D02*
G75*
G02*
X160157400Y-85979000I2550000J0D01*
G01*
X187869000Y-108775000D02*
X187869000Y-108619000D01*
X187869000Y-111091000D02*
X187869000Y-110935000D01*
X184636665Y-108776392D02*
G75*
G02*
X187869000Y-108619484I1672335J-1078608D01*
G01*
X185267870Y-108775163D02*
G75*
G02*
X187349961Y-108775000I1041130J-1079837D01*
G01*
X187349961Y-110935000D02*
G75*
G02*
X185267870Y-110934837I-1040961J1080000D01*
G01*
X187869000Y-111090516D02*
G75*
G02*
X184636665Y-110933608I-1560000J1235516D01*
G01*
X175819000Y-109855000D02*
X176769000Y-109855000D01*
X176769000Y-108935000D02*
X176769000Y-110775000D01*
X176769000Y-110775000D02*
X180609000Y-110775000D01*
X180609000Y-108935000D02*
X176769000Y-108935000D01*
X180609000Y-110775000D02*
X180609000Y-108935000D01*
X181559000Y-109855000D02*
X180609000Y-109855000D01*
X156929000Y-120425000D02*
X156929000Y-123225000D01*
X156929000Y-123225000D02*
X172509000Y-123225000D01*
X169799000Y-123225000D02*
X169799000Y-120425000D01*
X172509000Y-120425000D02*
X156929000Y-120425000D01*
X172509000Y-123225000D02*
X172509000Y-120425000D01*
X127829000Y-117873000D02*
X127829000Y-119523000D01*
X127829000Y-121523000D02*
X127829000Y-123173000D01*
X127829000Y-123173000D02*
X153349000Y-123173000D01*
X153349000Y-117873000D02*
X127829000Y-117873000D01*
X153349000Y-123173000D02*
X153349000Y-117873000D01*
X127829000Y-119523000D02*
G75*
G02*
X127829000Y-121523000I0J-1000000D01*
G01*
X133989000Y-94155000D02*
X133989000Y-95655000D01*
X135239000Y-98155000D02*
X139739000Y-98155000D01*
X139739000Y-91655000D02*
X135239000Y-91655000D01*
X140989000Y-95655000D02*
X140989000Y-94155000D01*
X187869000Y-101155000D02*
X187869000Y-100999000D01*
X187869000Y-103471000D02*
X187869000Y-103315000D01*
X184636665Y-101156392D02*
G75*
G02*
X187869000Y-100999484I1672335J-1078608D01*
G01*
X185267870Y-101155163D02*
G75*
G02*
X187349961Y-101155000I1041130J-1079837D01*
G01*
X187349961Y-103315000D02*
G75*
G02*
X185267870Y-103314837I-1040961J1080000D01*
G01*
X187869000Y-103470516D02*
G75*
G02*
X184636665Y-103313608I-1560000J1235516D01*
G01*
X133989000Y-101775000D02*
X133989000Y-103275000D01*
X135239000Y-105775000D02*
X139739000Y-105775000D01*
X139739000Y-99275000D02*
X135239000Y-99275000D01*
X140989000Y-103275000D02*
X140989000Y-101775000D01*
X175819000Y-86995000D02*
X176769000Y-86995000D01*
X176769000Y-86075000D02*
X176769000Y-87915000D01*
X176769000Y-87915000D02*
X180609000Y-87915000D01*
X180609000Y-86075000D02*
X176769000Y-86075000D01*
X180609000Y-87915000D02*
X180609000Y-86075000D01*
X181559000Y-86995000D02*
X180609000Y-86995000D01*
X122479000Y-111125000D02*
X123429000Y-111125000D01*
X123429000Y-110205000D02*
X123429000Y-112045000D01*
X123429000Y-112045000D02*
X127269000Y-112045000D01*
X127269000Y-110205000D02*
X123429000Y-110205000D01*
X127269000Y-112045000D02*
X127269000Y-110205000D01*
X128219000Y-111125000D02*
X127269000Y-111125000D01*
X122479000Y-85725000D02*
X123429000Y-85725000D01*
X123429000Y-84805000D02*
X123429000Y-86645000D01*
X123429000Y-86645000D02*
X127269000Y-86645000D01*
X127269000Y-84805000D02*
X123429000Y-84805000D01*
X127269000Y-86645000D02*
X127269000Y-84805000D01*
X128219000Y-85725000D02*
X127269000Y-85725000D01*
X168719000Y-66385000D02*
X168563000Y-66385000D01*
X171035000Y-66385000D02*
X170879000Y-66385000D01*
X168719163Y-68986130D02*
G75*
G02*
X168719000Y-66904039I1079837J1041130D01*
G01*
X168720392Y-69617335D02*
G75*
G02*
X168563484Y-66385000I1078608J1672335D01*
G01*
X170879000Y-66904039D02*
G75*
G02*
X170878837Y-68986130I-1080000J-1040961D01*
G01*
X171034516Y-66385000D02*
G75*
G02*
X170877608Y-69617335I-1235516J-1560000D01*
G01*
X187869000Y-93535000D02*
X187869000Y-93379000D01*
X187869000Y-95851000D02*
X187869000Y-95695000D01*
X184636665Y-93536392D02*
G75*
G02*
X187869000Y-93379484I1672335J-1078608D01*
G01*
X185267870Y-93535163D02*
G75*
G02*
X187349961Y-93535000I1041130J-1079837D01*
G01*
X187349961Y-95695000D02*
G75*
G02*
X185267870Y-95694837I-1040961J1080000D01*
G01*
X187869000Y-95850516D02*
G75*
G02*
X184636665Y-95693608I-1560000J1235516D01*
G01*
X144149000Y-109395000D02*
X144149000Y-110895000D01*
X145399000Y-113395000D02*
X149899000Y-113395000D01*
X149899000Y-106895000D02*
X145399000Y-106895000D01*
X151149000Y-110895000D02*
X151149000Y-109395000D01*
X168879000Y-73645000D02*
X168879000Y-77485000D01*
X168879000Y-77485000D02*
X170719000Y-77485000D01*
X169799000Y-72695000D02*
X169799000Y-73645000D01*
X169799000Y-78435000D02*
X169799000Y-77485000D01*
X170719000Y-73645000D02*
X168879000Y-73645000D01*
X170719000Y-77485000D02*
X170719000Y-73645000D01*
X122479000Y-95815000D02*
X123429000Y-95815000D01*
X123429000Y-94895000D02*
X123429000Y-96735000D01*
X123429000Y-96735000D02*
X127269000Y-96735000D01*
X127269000Y-94895000D02*
X123429000Y-94895000D01*
X127269000Y-96735000D02*
X127269000Y-94895000D01*
X128219000Y-95815000D02*
X127269000Y-95815000D01*
X173469000Y-64305000D02*
X182669000Y-64305000D01*
X173469000Y-72905000D02*
X173469000Y-64305000D01*
X173469000Y-78805000D02*
X173469000Y-77505000D01*
X175469000Y-78805000D02*
X173469000Y-78805000D01*
X181269000Y-79105000D02*
X182969000Y-79105000D01*
X182669000Y-64305000D02*
X182669000Y-78805000D01*
X182669000Y-78805000D02*
X180669000Y-78805000D01*
X182969000Y-79105000D02*
X182969000Y-77805000D01*
X157039000Y-124146000D02*
X157039000Y-126806000D01*
X169799000Y-124146000D02*
X157039000Y-124146000D01*
X169799000Y-124146000D02*
X169799000Y-126806000D01*
X169799000Y-126806000D02*
X157039000Y-126806000D01*
X171069000Y-124146000D02*
X172399000Y-124146000D01*
X172399000Y-124146000D02*
X172399000Y-125476000D01*
X144149000Y-86535000D02*
X144149000Y-88035000D01*
X145399000Y-90535000D02*
X149899000Y-90535000D01*
X149899000Y-84035000D02*
X145399000Y-84035000D01*
X151149000Y-88035000D02*
X151149000Y-86535000D01*
X175819000Y-94615000D02*
X176769000Y-94615000D01*
X176769000Y-93695000D02*
X176769000Y-95535000D01*
X176769000Y-95535000D02*
X180609000Y-95535000D01*
X180609000Y-93695000D02*
X176769000Y-93695000D01*
X180609000Y-95535000D02*
X180609000Y-93695000D01*
X181559000Y-94615000D02*
X180609000Y-94615000D01*
%LPC*%
D16*
X121539000Y-103505000D03*
D17*
X129159000Y-103505000D03*
D18*
X144399000Y-100275000D03*
X150899000Y-100275000D03*
X144399000Y-104775000D03*
X150899000Y-104775000D03*
D16*
X121539000Y-100965000D03*
D17*
X129159000Y-100965000D03*
D16*
X121539000Y-108585000D03*
D17*
X129159000Y-108585000D03*
D18*
X134239000Y-107895000D03*
X140739000Y-107895000D03*
X134239000Y-112395000D03*
X140739000Y-112395000D03*
D19*
X171069000Y-117475000D03*
D20*
X168529000Y-117475000D03*
X165989000Y-117475000D03*
X163449000Y-117475000D03*
X160909000Y-117475000D03*
X158369000Y-117475000D03*
D16*
X121539000Y-93345000D03*
D17*
X129159000Y-93345000D03*
D18*
X134239000Y-85035000D03*
X140739000Y-85035000D03*
X134239000Y-89535000D03*
X140739000Y-89535000D03*
D21*
X187579000Y-86995000D03*
D22*
X185039000Y-86995000D03*
D18*
X144399000Y-92655000D03*
X150899000Y-92655000D03*
X144399000Y-97155000D03*
X150899000Y-97155000D03*
D16*
X121539000Y-88265000D03*
D17*
X129159000Y-88265000D03*
D23*
X118999000Y-125730000D03*
D16*
X174879000Y-102235000D03*
D17*
X182499000Y-102235000D03*
D24*
X160807400Y-92329000D03*
D25*
X160807400Y-94869000D03*
X160807400Y-97409000D03*
X160807400Y-99949000D03*
X160807400Y-102489000D03*
X160807400Y-105029000D03*
X160807400Y-107569000D03*
X168427400Y-107569000D03*
X168427400Y-105029000D03*
X168427400Y-102489000D03*
X168427400Y-99949000D03*
X168427400Y-97409000D03*
X168427400Y-94869000D03*
X168427400Y-92329000D03*
D21*
X187579000Y-109855000D03*
D22*
X185039000Y-109855000D03*
D16*
X174879000Y-109855000D03*
D17*
X182499000Y-109855000D03*
D19*
X171069000Y-121825000D03*
D20*
X168529000Y-121825000D03*
X165989000Y-121825000D03*
X163449000Y-121825000D03*
X160909000Y-121825000D03*
X158369000Y-121825000D03*
D19*
X129159000Y-124333000D03*
D20*
X131699000Y-124333000D03*
X134239000Y-124333000D03*
X136779000Y-124333000D03*
X139319000Y-124333000D03*
X141859000Y-124333000D03*
X144399000Y-124333000D03*
X146939000Y-124333000D03*
X149479000Y-124333000D03*
X152019000Y-124333000D03*
X152019000Y-116713000D03*
X149479000Y-116713000D03*
X146939000Y-116713000D03*
X144399000Y-116713000D03*
X141859000Y-116713000D03*
X139319000Y-116713000D03*
X136779000Y-116713000D03*
X134239000Y-116713000D03*
X131699000Y-116713000D03*
X129159000Y-116713000D03*
D18*
X134239000Y-92655000D03*
X140739000Y-92655000D03*
X134239000Y-97155000D03*
X140739000Y-97155000D03*
D21*
X187579000Y-102235000D03*
D22*
X185039000Y-102235000D03*
D18*
X134239000Y-100275000D03*
X140739000Y-100275000D03*
X134239000Y-104775000D03*
X140739000Y-104775000D03*
D16*
X174879000Y-86995000D03*
D17*
X182499000Y-86995000D03*
D16*
X121539000Y-111125000D03*
D17*
X129159000Y-111125000D03*
D16*
X121539000Y-85725000D03*
D17*
X129159000Y-85725000D03*
D23*
X118999000Y-67945000D03*
X187579000Y-125730000D03*
D21*
X169799000Y-66675000D03*
D22*
X169799000Y-69215000D03*
D21*
X187579000Y-94615000D03*
D22*
X185039000Y-94615000D03*
D18*
X144399000Y-107895000D03*
X150899000Y-107895000D03*
X144399000Y-112395000D03*
X150899000Y-112395000D03*
D23*
X187579000Y-67945000D03*
D16*
X169799000Y-79375000D03*
D17*
X169799000Y-71755000D03*
D16*
X121539000Y-95815000D03*
D17*
X129159000Y-95815000D03*
D26*
X178069000Y-78105000D03*
D27*
X178069000Y-71805000D03*
D28*
X173269000Y-75205000D03*
D29*
X171069000Y-125476000D03*
D30*
X168529000Y-125476000D03*
X165989000Y-125476000D03*
X163449000Y-125476000D03*
X160909000Y-125476000D03*
X158369000Y-125476000D03*
D18*
X144399000Y-85035000D03*
X150899000Y-85035000D03*
X144399000Y-89535000D03*
X150899000Y-89535000D03*
D16*
X174879000Y-94615000D03*
D17*
X182499000Y-94615000D03*
%LPD*%
M02*
