G04 #@! TF.GenerationSoftware,KiCad,Pcbnew,8.0.3*
G04 #@! TF.CreationDate,2024-11-19T19:51:00+13:00*
G04 #@! TF.ProjectId,DEC8881_tester,44454338-3838-4315-9f74-65737465722e,rev?*
G04 #@! TF.SameCoordinates,Original*
G04 #@! TF.FileFunction,Legend,Bot*
G04 #@! TF.FilePolarity,Positive*
%FSLAX46Y46*%
G04 Gerber Fmt 4.6, Leading zero omitted, Abs format (unit mm)*
G04 Created by KiCad (PCBNEW 8.0.3) date 2024-11-19 19:51:00*
%MOMM*%
%LPD*%
G01*
G04 APERTURE LIST*
%ADD10C,1.400000*%
%ADD11O,1.400000X1.400000*%
%ADD12C,2.000000*%
%ADD13R,1.600000X1.600000*%
%ADD14O,1.600000X1.600000*%
%ADD15R,1.800000X1.800000*%
%ADD16C,1.800000*%
%ADD17C,3.200000*%
%ADD18R,2.000000X1.440000*%
%ADD19O,2.000000X1.440000*%
%ADD20R,4.600000X2.000000*%
%ADD21O,4.200000X2.000000*%
%ADD22O,2.000000X4.200000*%
%ADD23R,1.700000X1.700000*%
%ADD24O,1.700000X1.700000*%
G04 APERTURE END LIST*
%LPC*%
D10*
X121539000Y-103505000D03*
D11*
X129159000Y-103505000D03*
D12*
X144399000Y-100275000D03*
X150899000Y-100275000D03*
X144399000Y-104775000D03*
X150899000Y-104775000D03*
D10*
X121539000Y-100965000D03*
D11*
X129159000Y-100965000D03*
D10*
X121539000Y-108585000D03*
D11*
X129159000Y-108585000D03*
D12*
X134239000Y-107895000D03*
X140739000Y-107895000D03*
X134239000Y-112395000D03*
X140739000Y-112395000D03*
D13*
X171069000Y-117475000D03*
D14*
X168529000Y-117475000D03*
X165989000Y-117475000D03*
X163449000Y-117475000D03*
X160909000Y-117475000D03*
X158369000Y-117475000D03*
D10*
X121539000Y-93345000D03*
D11*
X129159000Y-93345000D03*
D12*
X134239000Y-85035000D03*
X140739000Y-85035000D03*
X134239000Y-89535000D03*
X140739000Y-89535000D03*
D15*
X187579000Y-86995000D03*
D16*
X185039000Y-86995000D03*
D12*
X144399000Y-92655000D03*
X150899000Y-92655000D03*
X144399000Y-97155000D03*
X150899000Y-97155000D03*
D10*
X121539000Y-88265000D03*
D11*
X129159000Y-88265000D03*
D17*
X118999000Y-125730000D03*
D10*
X174879000Y-102235000D03*
D11*
X182499000Y-102235000D03*
D18*
X160807400Y-92329000D03*
D19*
X160807400Y-94869000D03*
X160807400Y-97409000D03*
X160807400Y-99949000D03*
X160807400Y-102489000D03*
X160807400Y-105029000D03*
X160807400Y-107569000D03*
X168427400Y-107569000D03*
X168427400Y-105029000D03*
X168427400Y-102489000D03*
X168427400Y-99949000D03*
X168427400Y-97409000D03*
X168427400Y-94869000D03*
X168427400Y-92329000D03*
D15*
X187579000Y-109855000D03*
D16*
X185039000Y-109855000D03*
D10*
X174879000Y-109855000D03*
D11*
X182499000Y-109855000D03*
D13*
X171069000Y-121825000D03*
D14*
X168529000Y-121825000D03*
X165989000Y-121825000D03*
X163449000Y-121825000D03*
X160909000Y-121825000D03*
X158369000Y-121825000D03*
D13*
X129159000Y-124333000D03*
D14*
X131699000Y-124333000D03*
X134239000Y-124333000D03*
X136779000Y-124333000D03*
X139319000Y-124333000D03*
X141859000Y-124333000D03*
X144399000Y-124333000D03*
X146939000Y-124333000D03*
X149479000Y-124333000D03*
X152019000Y-124333000D03*
X152019000Y-116713000D03*
X149479000Y-116713000D03*
X146939000Y-116713000D03*
X144399000Y-116713000D03*
X141859000Y-116713000D03*
X139319000Y-116713000D03*
X136779000Y-116713000D03*
X134239000Y-116713000D03*
X131699000Y-116713000D03*
X129159000Y-116713000D03*
D12*
X134239000Y-92655000D03*
X140739000Y-92655000D03*
X134239000Y-97155000D03*
X140739000Y-97155000D03*
D15*
X187579000Y-102235000D03*
D16*
X185039000Y-102235000D03*
D12*
X134239000Y-100275000D03*
X140739000Y-100275000D03*
X134239000Y-104775000D03*
X140739000Y-104775000D03*
D10*
X174879000Y-86995000D03*
D11*
X182499000Y-86995000D03*
D10*
X121539000Y-111125000D03*
D11*
X129159000Y-111125000D03*
D10*
X121539000Y-85725000D03*
D11*
X129159000Y-85725000D03*
D17*
X118999000Y-67945000D03*
X187579000Y-125730000D03*
D15*
X169799000Y-66675000D03*
D16*
X169799000Y-69215000D03*
D15*
X187579000Y-94615000D03*
D16*
X185039000Y-94615000D03*
D12*
X144399000Y-107895000D03*
X150899000Y-107895000D03*
X144399000Y-112395000D03*
X150899000Y-112395000D03*
D17*
X187579000Y-67945000D03*
D10*
X169799000Y-79375000D03*
D11*
X169799000Y-71755000D03*
D10*
X121539000Y-95815000D03*
D11*
X129159000Y-95815000D03*
D20*
X178069000Y-78105000D03*
D21*
X178069000Y-71805000D03*
D22*
X173269000Y-75205000D03*
D23*
X171069000Y-125476000D03*
D24*
X168529000Y-125476000D03*
X165989000Y-125476000D03*
X163449000Y-125476000D03*
X160909000Y-125476000D03*
X158369000Y-125476000D03*
D12*
X144399000Y-85035000D03*
X150899000Y-85035000D03*
X144399000Y-89535000D03*
X150899000Y-89535000D03*
D10*
X174879000Y-94615000D03*
D11*
X182499000Y-94615000D03*
%LPD*%
M02*
