%TF.GenerationSoftware,KiCad,Pcbnew,8.0.3*%
%TF.CreationDate,2024-12-06T19:50:11+13:00*%
%TF.ProjectId,DEC8881_tester,44454338-3838-4315-9f74-65737465722e,rev?*%
%TF.SameCoordinates,Original*%
%TF.FileFunction,Drillmap*%
%TF.FilePolarity,Positive*%
%FSLAX45Y45*%
G04 Gerber Fmt 4.5, Leading zero omitted, Abs format (unit mm)*
G04 Created by KiCad (PCBNEW 8.0.3) date 2024-12-06 19:50:11*
%MOMM*%
%LPD*%
G01*
G04 APERTURE LIST*
%ADD10C,0.050000*%
%ADD11C,0.200000*%
%ADD12C,0.320000*%
G04 APERTURE END LIST*
D10*
X19138900Y-12700000D02*
G75*
G02*
X18884900Y-12954000I-254000J0D01*
G01*
X11772900Y-12954000D02*
G75*
G02*
X11518900Y-12700000I0J254000D01*
G01*
X11518900Y-12700000D02*
X11518900Y-6667500D01*
X11518900Y-6667500D02*
G75*
G02*
X11772900Y-6413500I254000J0D01*
G01*
X11772900Y-6413500D02*
X18884900Y-6413500D01*
X18884900Y-6413500D02*
G75*
G02*
X19138900Y-6667500I0J-254000D01*
G01*
X18884900Y-12954000D02*
X11772900Y-12954000D01*
X19138900Y-6667500D02*
X19138900Y-12700000D01*
D11*
D12*
X11739900Y-6634500D02*
X12059900Y-6954500D01*
X12059900Y-6634500D02*
X11739900Y-6954500D01*
X11739900Y-12413000D02*
X12059900Y-12733000D01*
X12059900Y-12413000D02*
X11739900Y-12733000D01*
X18597900Y-6634500D02*
X18917900Y-6954500D01*
X18917900Y-6634500D02*
X18597900Y-6954500D01*
X18597900Y-12413000D02*
X18917900Y-12733000D01*
X18917900Y-12413000D02*
X18597900Y-12733000D01*
D11*
X11777177Y-13267984D02*
X11777177Y-13067984D01*
X11777177Y-13067984D02*
X11824796Y-13067984D01*
X11824796Y-13067984D02*
X11853367Y-13077508D01*
X11853367Y-13077508D02*
X11872415Y-13096555D01*
X11872415Y-13096555D02*
X11881939Y-13115603D01*
X11881939Y-13115603D02*
X11891462Y-13153698D01*
X11891462Y-13153698D02*
X11891462Y-13182269D01*
X11891462Y-13182269D02*
X11881939Y-13220365D01*
X11881939Y-13220365D02*
X11872415Y-13239412D01*
X11872415Y-13239412D02*
X11853367Y-13258460D01*
X11853367Y-13258460D02*
X11824796Y-13267984D01*
X11824796Y-13267984D02*
X11777177Y-13267984D01*
X11977177Y-13267984D02*
X11977177Y-13134650D01*
X11977177Y-13172746D02*
X11986701Y-13153698D01*
X11986701Y-13153698D02*
X11996224Y-13144174D01*
X11996224Y-13144174D02*
X12015272Y-13134650D01*
X12015272Y-13134650D02*
X12034320Y-13134650D01*
X12100986Y-13267984D02*
X12100986Y-13134650D01*
X12100986Y-13067984D02*
X12091462Y-13077508D01*
X12091462Y-13077508D02*
X12100986Y-13087031D01*
X12100986Y-13087031D02*
X12110510Y-13077508D01*
X12110510Y-13077508D02*
X12100986Y-13067984D01*
X12100986Y-13067984D02*
X12100986Y-13087031D01*
X12224796Y-13267984D02*
X12205748Y-13258460D01*
X12205748Y-13258460D02*
X12196224Y-13239412D01*
X12196224Y-13239412D02*
X12196224Y-13067984D01*
X12329558Y-13267984D02*
X12310510Y-13258460D01*
X12310510Y-13258460D02*
X12300986Y-13239412D01*
X12300986Y-13239412D02*
X12300986Y-13067984D01*
X12558129Y-13267984D02*
X12558129Y-13067984D01*
X12558129Y-13067984D02*
X12624796Y-13210841D01*
X12624796Y-13210841D02*
X12691462Y-13067984D01*
X12691462Y-13067984D02*
X12691462Y-13267984D01*
X12872415Y-13267984D02*
X12872415Y-13163222D01*
X12872415Y-13163222D02*
X12862891Y-13144174D01*
X12862891Y-13144174D02*
X12843843Y-13134650D01*
X12843843Y-13134650D02*
X12805748Y-13134650D01*
X12805748Y-13134650D02*
X12786701Y-13144174D01*
X12872415Y-13258460D02*
X12853367Y-13267984D01*
X12853367Y-13267984D02*
X12805748Y-13267984D01*
X12805748Y-13267984D02*
X12786701Y-13258460D01*
X12786701Y-13258460D02*
X12777177Y-13239412D01*
X12777177Y-13239412D02*
X12777177Y-13220365D01*
X12777177Y-13220365D02*
X12786701Y-13201317D01*
X12786701Y-13201317D02*
X12805748Y-13191793D01*
X12805748Y-13191793D02*
X12853367Y-13191793D01*
X12853367Y-13191793D02*
X12872415Y-13182269D01*
X12967653Y-13134650D02*
X12967653Y-13334650D01*
X12967653Y-13144174D02*
X12986701Y-13134650D01*
X12986701Y-13134650D02*
X13024796Y-13134650D01*
X13024796Y-13134650D02*
X13043843Y-13144174D01*
X13043843Y-13144174D02*
X13053367Y-13153698D01*
X13053367Y-13153698D02*
X13062891Y-13172746D01*
X13062891Y-13172746D02*
X13062891Y-13229888D01*
X13062891Y-13229888D02*
X13053367Y-13248936D01*
X13053367Y-13248936D02*
X13043843Y-13258460D01*
X13043843Y-13258460D02*
X13024796Y-13267984D01*
X13024796Y-13267984D02*
X12986701Y-13267984D01*
X12986701Y-13267984D02*
X12967653Y-13258460D01*
X13148605Y-13248936D02*
X13158129Y-13258460D01*
X13158129Y-13258460D02*
X13148605Y-13267984D01*
X13148605Y-13267984D02*
X13139082Y-13258460D01*
X13139082Y-13258460D02*
X13148605Y-13248936D01*
X13148605Y-13248936D02*
X13148605Y-13267984D01*
X13148605Y-13144174D02*
X13158129Y-13153698D01*
X13158129Y-13153698D02*
X13148605Y-13163222D01*
X13148605Y-13163222D02*
X13139082Y-13153698D01*
X13139082Y-13153698D02*
X13148605Y-13144174D01*
X13148605Y-13144174D02*
X13148605Y-13163222D01*
X11316400Y-13496500D02*
X11516400Y-13696500D01*
X11516400Y-13496500D02*
X11316400Y-13696500D01*
X11758129Y-13487984D02*
X11881939Y-13487984D01*
X11881939Y-13487984D02*
X11815272Y-13564174D01*
X11815272Y-13564174D02*
X11843843Y-13564174D01*
X11843843Y-13564174D02*
X11862891Y-13573698D01*
X11862891Y-13573698D02*
X11872415Y-13583222D01*
X11872415Y-13583222D02*
X11881939Y-13602269D01*
X11881939Y-13602269D02*
X11881939Y-13649888D01*
X11881939Y-13649888D02*
X11872415Y-13668936D01*
X11872415Y-13668936D02*
X11862891Y-13678460D01*
X11862891Y-13678460D02*
X11843843Y-13687984D01*
X11843843Y-13687984D02*
X11786701Y-13687984D01*
X11786701Y-13687984D02*
X11767653Y-13678460D01*
X11767653Y-13678460D02*
X11758129Y-13668936D01*
X11967653Y-13668936D02*
X11977177Y-13678460D01*
X11977177Y-13678460D02*
X11967653Y-13687984D01*
X11967653Y-13687984D02*
X11958129Y-13678460D01*
X11958129Y-13678460D02*
X11967653Y-13668936D01*
X11967653Y-13668936D02*
X11967653Y-13687984D01*
X12053367Y-13507031D02*
X12062891Y-13497508D01*
X12062891Y-13497508D02*
X12081939Y-13487984D01*
X12081939Y-13487984D02*
X12129558Y-13487984D01*
X12129558Y-13487984D02*
X12148605Y-13497508D01*
X12148605Y-13497508D02*
X12158129Y-13507031D01*
X12158129Y-13507031D02*
X12167653Y-13526079D01*
X12167653Y-13526079D02*
X12167653Y-13545127D01*
X12167653Y-13545127D02*
X12158129Y-13573698D01*
X12158129Y-13573698D02*
X12043843Y-13687984D01*
X12043843Y-13687984D02*
X12167653Y-13687984D01*
X12291462Y-13487984D02*
X12310510Y-13487984D01*
X12310510Y-13487984D02*
X12329558Y-13497508D01*
X12329558Y-13497508D02*
X12339082Y-13507031D01*
X12339082Y-13507031D02*
X12348605Y-13526079D01*
X12348605Y-13526079D02*
X12358129Y-13564174D01*
X12358129Y-13564174D02*
X12358129Y-13611793D01*
X12358129Y-13611793D02*
X12348605Y-13649888D01*
X12348605Y-13649888D02*
X12339082Y-13668936D01*
X12339082Y-13668936D02*
X12329558Y-13678460D01*
X12329558Y-13678460D02*
X12310510Y-13687984D01*
X12310510Y-13687984D02*
X12291462Y-13687984D01*
X12291462Y-13687984D02*
X12272415Y-13678460D01*
X12272415Y-13678460D02*
X12262891Y-13668936D01*
X12262891Y-13668936D02*
X12253367Y-13649888D01*
X12253367Y-13649888D02*
X12243843Y-13611793D01*
X12243843Y-13611793D02*
X12243843Y-13564174D01*
X12243843Y-13564174D02*
X12253367Y-13526079D01*
X12253367Y-13526079D02*
X12262891Y-13507031D01*
X12262891Y-13507031D02*
X12272415Y-13497508D01*
X12272415Y-13497508D02*
X12291462Y-13487984D01*
X12481939Y-13487984D02*
X12500986Y-13487984D01*
X12500986Y-13487984D02*
X12520034Y-13497508D01*
X12520034Y-13497508D02*
X12529558Y-13507031D01*
X12529558Y-13507031D02*
X12539082Y-13526079D01*
X12539082Y-13526079D02*
X12548605Y-13564174D01*
X12548605Y-13564174D02*
X12548605Y-13611793D01*
X12548605Y-13611793D02*
X12539082Y-13649888D01*
X12539082Y-13649888D02*
X12529558Y-13668936D01*
X12529558Y-13668936D02*
X12520034Y-13678460D01*
X12520034Y-13678460D02*
X12500986Y-13687984D01*
X12500986Y-13687984D02*
X12481939Y-13687984D01*
X12481939Y-13687984D02*
X12462891Y-13678460D01*
X12462891Y-13678460D02*
X12453367Y-13668936D01*
X12453367Y-13668936D02*
X12443843Y-13649888D01*
X12443843Y-13649888D02*
X12434320Y-13611793D01*
X12434320Y-13611793D02*
X12434320Y-13564174D01*
X12434320Y-13564174D02*
X12443843Y-13526079D01*
X12443843Y-13526079D02*
X12453367Y-13507031D01*
X12453367Y-13507031D02*
X12462891Y-13497508D01*
X12462891Y-13497508D02*
X12481939Y-13487984D01*
X12634320Y-13687984D02*
X12634320Y-13554650D01*
X12634320Y-13573698D02*
X12643843Y-13564174D01*
X12643843Y-13564174D02*
X12662891Y-13554650D01*
X12662891Y-13554650D02*
X12691463Y-13554650D01*
X12691463Y-13554650D02*
X12710510Y-13564174D01*
X12710510Y-13564174D02*
X12720034Y-13583222D01*
X12720034Y-13583222D02*
X12720034Y-13687984D01*
X12720034Y-13583222D02*
X12729558Y-13564174D01*
X12729558Y-13564174D02*
X12748605Y-13554650D01*
X12748605Y-13554650D02*
X12777177Y-13554650D01*
X12777177Y-13554650D02*
X12796224Y-13564174D01*
X12796224Y-13564174D02*
X12805748Y-13583222D01*
X12805748Y-13583222D02*
X12805748Y-13687984D01*
X12900986Y-13687984D02*
X12900986Y-13554650D01*
X12900986Y-13573698D02*
X12910510Y-13564174D01*
X12910510Y-13564174D02*
X12929558Y-13554650D01*
X12929558Y-13554650D02*
X12958129Y-13554650D01*
X12958129Y-13554650D02*
X12977177Y-13564174D01*
X12977177Y-13564174D02*
X12986701Y-13583222D01*
X12986701Y-13583222D02*
X12986701Y-13687984D01*
X12986701Y-13583222D02*
X12996224Y-13564174D01*
X12996224Y-13564174D02*
X13015272Y-13554650D01*
X13015272Y-13554650D02*
X13043843Y-13554650D01*
X13043843Y-13554650D02*
X13062891Y-13564174D01*
X13062891Y-13564174D02*
X13072415Y-13583222D01*
X13072415Y-13583222D02*
X13072415Y-13687984D01*
X13462891Y-13478460D02*
X13291463Y-13735603D01*
X13720034Y-13487984D02*
X13739082Y-13487984D01*
X13739082Y-13487984D02*
X13758129Y-13497508D01*
X13758129Y-13497508D02*
X13767653Y-13507031D01*
X13767653Y-13507031D02*
X13777177Y-13526079D01*
X13777177Y-13526079D02*
X13786701Y-13564174D01*
X13786701Y-13564174D02*
X13786701Y-13611793D01*
X13786701Y-13611793D02*
X13777177Y-13649888D01*
X13777177Y-13649888D02*
X13767653Y-13668936D01*
X13767653Y-13668936D02*
X13758129Y-13678460D01*
X13758129Y-13678460D02*
X13739082Y-13687984D01*
X13739082Y-13687984D02*
X13720034Y-13687984D01*
X13720034Y-13687984D02*
X13700986Y-13678460D01*
X13700986Y-13678460D02*
X13691463Y-13668936D01*
X13691463Y-13668936D02*
X13681939Y-13649888D01*
X13681939Y-13649888D02*
X13672415Y-13611793D01*
X13672415Y-13611793D02*
X13672415Y-13564174D01*
X13672415Y-13564174D02*
X13681939Y-13526079D01*
X13681939Y-13526079D02*
X13691463Y-13507031D01*
X13691463Y-13507031D02*
X13700986Y-13497508D01*
X13700986Y-13497508D02*
X13720034Y-13487984D01*
X13872415Y-13668936D02*
X13881939Y-13678460D01*
X13881939Y-13678460D02*
X13872415Y-13687984D01*
X13872415Y-13687984D02*
X13862891Y-13678460D01*
X13862891Y-13678460D02*
X13872415Y-13668936D01*
X13872415Y-13668936D02*
X13872415Y-13687984D01*
X14072415Y-13687984D02*
X13958129Y-13687984D01*
X14015272Y-13687984D02*
X14015272Y-13487984D01*
X14015272Y-13487984D02*
X13996225Y-13516555D01*
X13996225Y-13516555D02*
X13977177Y-13535603D01*
X13977177Y-13535603D02*
X13958129Y-13545127D01*
X14148606Y-13507031D02*
X14158129Y-13497508D01*
X14158129Y-13497508D02*
X14177177Y-13487984D01*
X14177177Y-13487984D02*
X14224796Y-13487984D01*
X14224796Y-13487984D02*
X14243844Y-13497508D01*
X14243844Y-13497508D02*
X14253367Y-13507031D01*
X14253367Y-13507031D02*
X14262891Y-13526079D01*
X14262891Y-13526079D02*
X14262891Y-13545127D01*
X14262891Y-13545127D02*
X14253367Y-13573698D01*
X14253367Y-13573698D02*
X14139082Y-13687984D01*
X14139082Y-13687984D02*
X14262891Y-13687984D01*
X14434320Y-13487984D02*
X14396225Y-13487984D01*
X14396225Y-13487984D02*
X14377177Y-13497508D01*
X14377177Y-13497508D02*
X14367653Y-13507031D01*
X14367653Y-13507031D02*
X14348606Y-13535603D01*
X14348606Y-13535603D02*
X14339082Y-13573698D01*
X14339082Y-13573698D02*
X14339082Y-13649888D01*
X14339082Y-13649888D02*
X14348606Y-13668936D01*
X14348606Y-13668936D02*
X14358129Y-13678460D01*
X14358129Y-13678460D02*
X14377177Y-13687984D01*
X14377177Y-13687984D02*
X14415272Y-13687984D01*
X14415272Y-13687984D02*
X14434320Y-13678460D01*
X14434320Y-13678460D02*
X14443844Y-13668936D01*
X14443844Y-13668936D02*
X14453367Y-13649888D01*
X14453367Y-13649888D02*
X14453367Y-13602269D01*
X14453367Y-13602269D02*
X14443844Y-13583222D01*
X14443844Y-13583222D02*
X14434320Y-13573698D01*
X14434320Y-13573698D02*
X14415272Y-13564174D01*
X14415272Y-13564174D02*
X14377177Y-13564174D01*
X14377177Y-13564174D02*
X14358129Y-13573698D01*
X14358129Y-13573698D02*
X14348606Y-13583222D01*
X14348606Y-13583222D02*
X14339082Y-13602269D01*
X14577177Y-13487984D02*
X14596225Y-13487984D01*
X14596225Y-13487984D02*
X14615272Y-13497508D01*
X14615272Y-13497508D02*
X14624796Y-13507031D01*
X14624796Y-13507031D02*
X14634320Y-13526079D01*
X14634320Y-13526079D02*
X14643844Y-13564174D01*
X14643844Y-13564174D02*
X14643844Y-13611793D01*
X14643844Y-13611793D02*
X14634320Y-13649888D01*
X14634320Y-13649888D02*
X14624796Y-13668936D01*
X14624796Y-13668936D02*
X14615272Y-13678460D01*
X14615272Y-13678460D02*
X14596225Y-13687984D01*
X14596225Y-13687984D02*
X14577177Y-13687984D01*
X14577177Y-13687984D02*
X14558129Y-13678460D01*
X14558129Y-13678460D02*
X14548606Y-13668936D01*
X14548606Y-13668936D02*
X14539082Y-13649888D01*
X14539082Y-13649888D02*
X14529558Y-13611793D01*
X14529558Y-13611793D02*
X14529558Y-13564174D01*
X14529558Y-13564174D02*
X14539082Y-13526079D01*
X14539082Y-13526079D02*
X14548606Y-13507031D01*
X14548606Y-13507031D02*
X14558129Y-13497508D01*
X14558129Y-13497508D02*
X14577177Y-13487984D01*
X14720034Y-13487984D02*
X14720034Y-13526079D01*
X14796225Y-13487984D02*
X14796225Y-13526079D01*
X15091463Y-13764174D02*
X15081939Y-13754650D01*
X15081939Y-13754650D02*
X15062891Y-13726079D01*
X15062891Y-13726079D02*
X15053368Y-13707031D01*
X15053368Y-13707031D02*
X15043844Y-13678460D01*
X15043844Y-13678460D02*
X15034320Y-13630841D01*
X15034320Y-13630841D02*
X15034320Y-13592746D01*
X15034320Y-13592746D02*
X15043844Y-13545127D01*
X15043844Y-13545127D02*
X15053368Y-13516555D01*
X15053368Y-13516555D02*
X15062891Y-13497508D01*
X15062891Y-13497508D02*
X15081939Y-13468936D01*
X15081939Y-13468936D02*
X15091463Y-13459412D01*
X15253368Y-13554650D02*
X15253368Y-13687984D01*
X15205748Y-13478460D02*
X15158129Y-13621317D01*
X15158129Y-13621317D02*
X15281939Y-13621317D01*
X15510510Y-13687984D02*
X15510510Y-13487984D01*
X15596225Y-13687984D02*
X15596225Y-13583222D01*
X15596225Y-13583222D02*
X15586701Y-13564174D01*
X15586701Y-13564174D02*
X15567653Y-13554650D01*
X15567653Y-13554650D02*
X15539082Y-13554650D01*
X15539082Y-13554650D02*
X15520034Y-13564174D01*
X15520034Y-13564174D02*
X15510510Y-13573698D01*
X15720034Y-13687984D02*
X15700987Y-13678460D01*
X15700987Y-13678460D02*
X15691463Y-13668936D01*
X15691463Y-13668936D02*
X15681939Y-13649888D01*
X15681939Y-13649888D02*
X15681939Y-13592746D01*
X15681939Y-13592746D02*
X15691463Y-13573698D01*
X15691463Y-13573698D02*
X15700987Y-13564174D01*
X15700987Y-13564174D02*
X15720034Y-13554650D01*
X15720034Y-13554650D02*
X15748606Y-13554650D01*
X15748606Y-13554650D02*
X15767653Y-13564174D01*
X15767653Y-13564174D02*
X15777177Y-13573698D01*
X15777177Y-13573698D02*
X15786701Y-13592746D01*
X15786701Y-13592746D02*
X15786701Y-13649888D01*
X15786701Y-13649888D02*
X15777177Y-13668936D01*
X15777177Y-13668936D02*
X15767653Y-13678460D01*
X15767653Y-13678460D02*
X15748606Y-13687984D01*
X15748606Y-13687984D02*
X15720034Y-13687984D01*
X15900987Y-13687984D02*
X15881939Y-13678460D01*
X15881939Y-13678460D02*
X15872415Y-13659412D01*
X15872415Y-13659412D02*
X15872415Y-13487984D01*
X16053368Y-13678460D02*
X16034320Y-13687984D01*
X16034320Y-13687984D02*
X15996225Y-13687984D01*
X15996225Y-13687984D02*
X15977177Y-13678460D01*
X15977177Y-13678460D02*
X15967653Y-13659412D01*
X15967653Y-13659412D02*
X15967653Y-13583222D01*
X15967653Y-13583222D02*
X15977177Y-13564174D01*
X15977177Y-13564174D02*
X15996225Y-13554650D01*
X15996225Y-13554650D02*
X16034320Y-13554650D01*
X16034320Y-13554650D02*
X16053368Y-13564174D01*
X16053368Y-13564174D02*
X16062891Y-13583222D01*
X16062891Y-13583222D02*
X16062891Y-13602269D01*
X16062891Y-13602269D02*
X15967653Y-13621317D01*
X16139082Y-13678460D02*
X16158130Y-13687984D01*
X16158130Y-13687984D02*
X16196225Y-13687984D01*
X16196225Y-13687984D02*
X16215272Y-13678460D01*
X16215272Y-13678460D02*
X16224796Y-13659412D01*
X16224796Y-13659412D02*
X16224796Y-13649888D01*
X16224796Y-13649888D02*
X16215272Y-13630841D01*
X16215272Y-13630841D02*
X16196225Y-13621317D01*
X16196225Y-13621317D02*
X16167653Y-13621317D01*
X16167653Y-13621317D02*
X16148606Y-13611793D01*
X16148606Y-13611793D02*
X16139082Y-13592746D01*
X16139082Y-13592746D02*
X16139082Y-13583222D01*
X16139082Y-13583222D02*
X16148606Y-13564174D01*
X16148606Y-13564174D02*
X16167653Y-13554650D01*
X16167653Y-13554650D02*
X16196225Y-13554650D01*
X16196225Y-13554650D02*
X16215272Y-13564174D01*
X16291463Y-13764174D02*
X16300987Y-13754650D01*
X16300987Y-13754650D02*
X16320034Y-13726079D01*
X16320034Y-13726079D02*
X16329558Y-13707031D01*
X16329558Y-13707031D02*
X16339082Y-13678460D01*
X16339082Y-13678460D02*
X16348606Y-13630841D01*
X16348606Y-13630841D02*
X16348606Y-13592746D01*
X16348606Y-13592746D02*
X16339082Y-13545127D01*
X16339082Y-13545127D02*
X16329558Y-13516555D01*
X16329558Y-13516555D02*
X16320034Y-13497508D01*
X16320034Y-13497508D02*
X16300987Y-13468936D01*
X16300987Y-13468936D02*
X16291463Y-13459412D01*
X16653368Y-13764174D02*
X16643844Y-13754650D01*
X16643844Y-13754650D02*
X16624796Y-13726079D01*
X16624796Y-13726079D02*
X16615272Y-13707031D01*
X16615272Y-13707031D02*
X16605749Y-13678460D01*
X16605749Y-13678460D02*
X16596225Y-13630841D01*
X16596225Y-13630841D02*
X16596225Y-13592746D01*
X16596225Y-13592746D02*
X16605749Y-13545127D01*
X16605749Y-13545127D02*
X16615272Y-13516555D01*
X16615272Y-13516555D02*
X16624796Y-13497508D01*
X16624796Y-13497508D02*
X16643844Y-13468936D01*
X16643844Y-13468936D02*
X16653368Y-13459412D01*
X16729558Y-13554650D02*
X16729558Y-13687984D01*
X16729558Y-13573698D02*
X16739082Y-13564174D01*
X16739082Y-13564174D02*
X16758130Y-13554650D01*
X16758130Y-13554650D02*
X16786701Y-13554650D01*
X16786701Y-13554650D02*
X16805749Y-13564174D01*
X16805749Y-13564174D02*
X16815273Y-13583222D01*
X16815273Y-13583222D02*
X16815273Y-13687984D01*
X16939082Y-13687984D02*
X16920034Y-13678460D01*
X16920034Y-13678460D02*
X16910511Y-13668936D01*
X16910511Y-13668936D02*
X16900987Y-13649888D01*
X16900987Y-13649888D02*
X16900987Y-13592746D01*
X16900987Y-13592746D02*
X16910511Y-13573698D01*
X16910511Y-13573698D02*
X16920034Y-13564174D01*
X16920034Y-13564174D02*
X16939082Y-13554650D01*
X16939082Y-13554650D02*
X16967654Y-13554650D01*
X16967654Y-13554650D02*
X16986701Y-13564174D01*
X16986701Y-13564174D02*
X16996225Y-13573698D01*
X16996225Y-13573698D02*
X17005749Y-13592746D01*
X17005749Y-13592746D02*
X17005749Y-13649888D01*
X17005749Y-13649888D02*
X16996225Y-13668936D01*
X16996225Y-13668936D02*
X16986701Y-13678460D01*
X16986701Y-13678460D02*
X16967654Y-13687984D01*
X16967654Y-13687984D02*
X16939082Y-13687984D01*
X17062892Y-13554650D02*
X17139082Y-13554650D01*
X17091463Y-13487984D02*
X17091463Y-13659412D01*
X17091463Y-13659412D02*
X17100987Y-13678460D01*
X17100987Y-13678460D02*
X17120034Y-13687984D01*
X17120034Y-13687984D02*
X17139082Y-13687984D01*
X17358130Y-13554650D02*
X17358130Y-13754650D01*
X17358130Y-13564174D02*
X17377177Y-13554650D01*
X17377177Y-13554650D02*
X17415273Y-13554650D01*
X17415273Y-13554650D02*
X17434320Y-13564174D01*
X17434320Y-13564174D02*
X17443844Y-13573698D01*
X17443844Y-13573698D02*
X17453368Y-13592746D01*
X17453368Y-13592746D02*
X17453368Y-13649888D01*
X17453368Y-13649888D02*
X17443844Y-13668936D01*
X17443844Y-13668936D02*
X17434320Y-13678460D01*
X17434320Y-13678460D02*
X17415273Y-13687984D01*
X17415273Y-13687984D02*
X17377177Y-13687984D01*
X17377177Y-13687984D02*
X17358130Y-13678460D01*
X17567654Y-13687984D02*
X17548606Y-13678460D01*
X17548606Y-13678460D02*
X17539082Y-13659412D01*
X17539082Y-13659412D02*
X17539082Y-13487984D01*
X17729558Y-13687984D02*
X17729558Y-13583222D01*
X17729558Y-13583222D02*
X17720035Y-13564174D01*
X17720035Y-13564174D02*
X17700987Y-13554650D01*
X17700987Y-13554650D02*
X17662892Y-13554650D01*
X17662892Y-13554650D02*
X17643844Y-13564174D01*
X17729558Y-13678460D02*
X17710511Y-13687984D01*
X17710511Y-13687984D02*
X17662892Y-13687984D01*
X17662892Y-13687984D02*
X17643844Y-13678460D01*
X17643844Y-13678460D02*
X17634320Y-13659412D01*
X17634320Y-13659412D02*
X17634320Y-13640365D01*
X17634320Y-13640365D02*
X17643844Y-13621317D01*
X17643844Y-13621317D02*
X17662892Y-13611793D01*
X17662892Y-13611793D02*
X17710511Y-13611793D01*
X17710511Y-13611793D02*
X17729558Y-13602269D01*
X17796225Y-13554650D02*
X17872415Y-13554650D01*
X17824796Y-13487984D02*
X17824796Y-13659412D01*
X17824796Y-13659412D02*
X17834320Y-13678460D01*
X17834320Y-13678460D02*
X17853368Y-13687984D01*
X17853368Y-13687984D02*
X17872415Y-13687984D01*
X18015273Y-13678460D02*
X17996225Y-13687984D01*
X17996225Y-13687984D02*
X17958130Y-13687984D01*
X17958130Y-13687984D02*
X17939082Y-13678460D01*
X17939082Y-13678460D02*
X17929558Y-13659412D01*
X17929558Y-13659412D02*
X17929558Y-13583222D01*
X17929558Y-13583222D02*
X17939082Y-13564174D01*
X17939082Y-13564174D02*
X17958130Y-13554650D01*
X17958130Y-13554650D02*
X17996225Y-13554650D01*
X17996225Y-13554650D02*
X18015273Y-13564174D01*
X18015273Y-13564174D02*
X18024796Y-13583222D01*
X18024796Y-13583222D02*
X18024796Y-13602269D01*
X18024796Y-13602269D02*
X17929558Y-13621317D01*
X18196225Y-13687984D02*
X18196225Y-13487984D01*
X18196225Y-13678460D02*
X18177177Y-13687984D01*
X18177177Y-13687984D02*
X18139082Y-13687984D01*
X18139082Y-13687984D02*
X18120035Y-13678460D01*
X18120035Y-13678460D02*
X18110511Y-13668936D01*
X18110511Y-13668936D02*
X18100987Y-13649888D01*
X18100987Y-13649888D02*
X18100987Y-13592746D01*
X18100987Y-13592746D02*
X18110511Y-13573698D01*
X18110511Y-13573698D02*
X18120035Y-13564174D01*
X18120035Y-13564174D02*
X18139082Y-13554650D01*
X18139082Y-13554650D02*
X18177177Y-13554650D01*
X18177177Y-13554650D02*
X18196225Y-13564174D01*
X18272416Y-13764174D02*
X18281939Y-13754650D01*
X18281939Y-13754650D02*
X18300987Y-13726079D01*
X18300987Y-13726079D02*
X18310511Y-13707031D01*
X18310511Y-13707031D02*
X18320035Y-13678460D01*
X18320035Y-13678460D02*
X18329558Y-13630841D01*
X18329558Y-13630841D02*
X18329558Y-13592746D01*
X18329558Y-13592746D02*
X18320035Y-13545127D01*
X18320035Y-13545127D02*
X18310511Y-13516555D01*
X18310511Y-13516555D02*
X18300987Y-13497508D01*
X18300987Y-13497508D02*
X18281939Y-13468936D01*
X18281939Y-13468936D02*
X18272416Y-13459412D01*
M02*
