G04 #@! TF.GenerationSoftware,KiCad,Pcbnew,8.0.3*
G04 #@! TF.CreationDate,2024-12-06T19:50:04+13:00*
G04 #@! TF.ProjectId,DEC8881_tester,44454338-3838-4315-9f74-65737465722e,rev?*
G04 #@! TF.SameCoordinates,Original*
G04 #@! TF.FileFunction,Copper,L2,Bot*
G04 #@! TF.FilePolarity,Positive*
%FSLAX46Y46*%
G04 Gerber Fmt 4.6, Leading zero omitted, Abs format (unit mm)*
G04 Created by KiCad (PCBNEW 8.0.3) date 2024-12-06 19:50:04*
%MOMM*%
%LPD*%
G01*
G04 APERTURE LIST*
G04 #@! TA.AperFunction,ComponentPad*
%ADD10C,1.400000*%
G04 #@! TD*
G04 #@! TA.AperFunction,ComponentPad*
%ADD11O,1.400000X1.400000*%
G04 #@! TD*
G04 #@! TA.AperFunction,ComponentPad*
%ADD12C,2.000000*%
G04 #@! TD*
G04 #@! TA.AperFunction,ComponentPad*
%ADD13R,1.600000X1.600000*%
G04 #@! TD*
G04 #@! TA.AperFunction,ComponentPad*
%ADD14O,1.600000X1.600000*%
G04 #@! TD*
G04 #@! TA.AperFunction,ComponentPad*
%ADD15R,1.800000X1.800000*%
G04 #@! TD*
G04 #@! TA.AperFunction,ComponentPad*
%ADD16C,1.800000*%
G04 #@! TD*
G04 #@! TA.AperFunction,ComponentPad*
%ADD17R,2.000000X1.440000*%
G04 #@! TD*
G04 #@! TA.AperFunction,ComponentPad*
%ADD18O,2.000000X1.440000*%
G04 #@! TD*
G04 #@! TA.AperFunction,ComponentPad*
%ADD19R,4.600000X2.000000*%
G04 #@! TD*
G04 #@! TA.AperFunction,ComponentPad*
%ADD20O,4.200000X2.000000*%
G04 #@! TD*
G04 #@! TA.AperFunction,ComponentPad*
%ADD21O,2.000000X4.200000*%
G04 #@! TD*
G04 #@! TA.AperFunction,ComponentPad*
%ADD22R,1.700000X1.700000*%
G04 #@! TD*
G04 #@! TA.AperFunction,ComponentPad*
%ADD23O,1.700000X1.700000*%
G04 #@! TD*
G04 #@! TA.AperFunction,Conductor*
%ADD24C,0.200000*%
G04 #@! TD*
G04 #@! TA.AperFunction,Conductor*
%ADD25C,0.400000*%
G04 #@! TD*
G04 APERTURE END LIST*
D10*
X121539000Y-103505000D03*
D11*
X129159000Y-103505000D03*
D12*
X144399000Y-100275000D03*
X150899000Y-100275000D03*
X144399000Y-104775000D03*
X150899000Y-104775000D03*
D10*
X121539000Y-100965000D03*
D11*
X129159000Y-100965000D03*
D10*
X121539000Y-108585000D03*
D11*
X129159000Y-108585000D03*
D12*
X134239000Y-107895000D03*
X140739000Y-107895000D03*
X134239000Y-112395000D03*
X140739000Y-112395000D03*
D13*
X171069000Y-117475000D03*
D14*
X168529000Y-117475000D03*
X165989000Y-117475000D03*
X163449000Y-117475000D03*
X160909000Y-117475000D03*
X158369000Y-117475000D03*
D10*
X121539000Y-93345000D03*
D11*
X129159000Y-93345000D03*
D12*
X134239000Y-85035000D03*
X140739000Y-85035000D03*
X134239000Y-89535000D03*
X140739000Y-89535000D03*
D15*
X187579000Y-86995000D03*
D16*
X185039000Y-86995000D03*
D12*
X144399000Y-92655000D03*
X150899000Y-92655000D03*
X144399000Y-97155000D03*
X150899000Y-97155000D03*
D10*
X121539000Y-88265000D03*
D11*
X129159000Y-88265000D03*
D10*
X174879000Y-102235000D03*
D11*
X182499000Y-102235000D03*
D17*
X160807400Y-92329000D03*
D18*
X160807400Y-94869000D03*
X160807400Y-97409000D03*
X160807400Y-99949000D03*
X160807400Y-102489000D03*
X160807400Y-105029000D03*
X160807400Y-107569000D03*
X168427400Y-107569000D03*
X168427400Y-105029000D03*
X168427400Y-102489000D03*
X168427400Y-99949000D03*
X168427400Y-97409000D03*
X168427400Y-94869000D03*
X168427400Y-92329000D03*
D15*
X187579000Y-109855000D03*
D16*
X185039000Y-109855000D03*
D10*
X174879000Y-109855000D03*
D11*
X182499000Y-109855000D03*
D13*
X171069000Y-121825000D03*
D14*
X168529000Y-121825000D03*
X165989000Y-121825000D03*
X163449000Y-121825000D03*
X160909000Y-121825000D03*
X158369000Y-121825000D03*
D13*
X129159000Y-124333000D03*
D14*
X131699000Y-124333000D03*
X134239000Y-124333000D03*
X136779000Y-124333000D03*
X139319000Y-124333000D03*
X141859000Y-124333000D03*
X144399000Y-124333000D03*
X146939000Y-124333000D03*
X149479000Y-124333000D03*
X152019000Y-124333000D03*
X152019000Y-116713000D03*
X149479000Y-116713000D03*
X146939000Y-116713000D03*
X144399000Y-116713000D03*
X141859000Y-116713000D03*
X139319000Y-116713000D03*
X136779000Y-116713000D03*
X134239000Y-116713000D03*
X131699000Y-116713000D03*
X129159000Y-116713000D03*
D12*
X134239000Y-92655000D03*
X140739000Y-92655000D03*
X134239000Y-97155000D03*
X140739000Y-97155000D03*
D15*
X187579000Y-102235000D03*
D16*
X185039000Y-102235000D03*
D12*
X134239000Y-100275000D03*
X140739000Y-100275000D03*
X134239000Y-104775000D03*
X140739000Y-104775000D03*
D10*
X174879000Y-86995000D03*
D11*
X182499000Y-86995000D03*
D10*
X121539000Y-111125000D03*
D11*
X129159000Y-111125000D03*
D10*
X121539000Y-85725000D03*
D11*
X129159000Y-85725000D03*
D15*
X169799000Y-66675000D03*
D16*
X169799000Y-69215000D03*
D15*
X187579000Y-94615000D03*
D16*
X185039000Y-94615000D03*
D12*
X144399000Y-107895000D03*
X150899000Y-107895000D03*
X144399000Y-112395000D03*
X150899000Y-112395000D03*
D10*
X169799000Y-79375000D03*
D11*
X169799000Y-71755000D03*
D10*
X121539000Y-95815000D03*
D11*
X129159000Y-95815000D03*
D19*
X178069000Y-78105000D03*
D20*
X178069000Y-71805000D03*
D21*
X173269000Y-75205000D03*
D22*
X171069000Y-125476000D03*
D23*
X168529000Y-125476000D03*
X165989000Y-125476000D03*
X163449000Y-125476000D03*
X160909000Y-125476000D03*
X158369000Y-125476000D03*
D12*
X144399000Y-85035000D03*
X150899000Y-85035000D03*
X144399000Y-89535000D03*
X150899000Y-89535000D03*
D10*
X174879000Y-94615000D03*
D11*
X182499000Y-94615000D03*
D24*
X144399000Y-107895000D02*
X150899000Y-107895000D01*
X144399000Y-92655000D02*
X150899000Y-92655000D01*
X169799000Y-71755000D02*
X169799000Y-69215000D01*
X182499000Y-86995000D02*
X185039000Y-86995000D01*
X182499000Y-94615000D02*
X185039000Y-94615000D01*
X182499000Y-102235000D02*
X185039000Y-102235000D01*
X182499000Y-109855000D02*
X185039000Y-109855000D01*
D25*
X173355000Y-116459000D02*
X173355000Y-119539000D01*
X172847000Y-115951000D02*
X173355000Y-116459000D01*
X130418057Y-117972057D02*
X156174886Y-117972057D01*
X127889000Y-79375000D02*
X169799000Y-79375000D01*
X156174886Y-117972057D02*
X158195943Y-115951000D01*
X173355000Y-119539000D02*
X171069000Y-121825000D01*
X129159000Y-116713000D02*
X130418057Y-117972057D01*
X158195943Y-115951000D02*
X172847000Y-115951000D01*
X121539000Y-85725000D02*
X127889000Y-79375000D01*
D24*
X134239000Y-89535000D02*
X140739000Y-89535000D01*
X130429000Y-89535000D02*
X129159000Y-88265000D01*
X134239000Y-89535000D02*
X130429000Y-89535000D01*
X129769000Y-86335000D02*
X141199000Y-86335000D01*
X150899000Y-89535000D02*
X151003000Y-89535000D01*
X129159000Y-85725000D02*
X129769000Y-86335000D01*
X141199000Y-86335000D02*
X144399000Y-89535000D01*
X151003000Y-89535000D02*
X158877000Y-97409000D01*
X158877000Y-97409000D02*
X160807400Y-97409000D01*
X144399000Y-89535000D02*
X150899000Y-89535000D01*
X129159000Y-95815000D02*
X130499000Y-97155000D01*
X134239000Y-97155000D02*
X140739000Y-97155000D01*
X130499000Y-97155000D02*
X134239000Y-97155000D01*
X141859000Y-94615000D02*
X144399000Y-97155000D01*
X129159000Y-93345000D02*
X130429000Y-94615000D01*
X159004000Y-105029000D02*
X160807400Y-105029000D01*
X151130000Y-97155000D02*
X159004000Y-105029000D01*
X150899000Y-97155000D02*
X151130000Y-97155000D01*
X130429000Y-94615000D02*
X141859000Y-94615000D01*
X144399000Y-97155000D02*
X150899000Y-97155000D01*
X154455000Y-106449000D02*
X157099000Y-109093000D01*
X142413000Y-106449000D02*
X154455000Y-106449000D01*
X129159000Y-103505000D02*
X130429000Y-104775000D01*
X140739000Y-104775000D02*
X142413000Y-106449000D01*
X157099000Y-109093000D02*
X166903400Y-109093000D01*
X134239000Y-104775000D02*
X140739000Y-104775000D01*
X166903400Y-109093000D02*
X168427400Y-107569000D01*
X130429000Y-104775000D02*
X134239000Y-104775000D01*
X167407400Y-106049000D02*
X168427400Y-105029000D01*
X129159000Y-100965000D02*
X130429000Y-102235000D01*
X150899000Y-104775000D02*
X152173000Y-106049000D01*
X144399000Y-104775000D02*
X150899000Y-104775000D01*
X130429000Y-102235000D02*
X141859000Y-102235000D01*
X152173000Y-106049000D02*
X167407400Y-106049000D01*
X141859000Y-102235000D02*
X144399000Y-104775000D01*
X171196000Y-101092000D02*
X170053000Y-99949000D01*
X134239000Y-112395000D02*
X140739000Y-112395000D01*
X129159000Y-111125000D02*
X130429000Y-112395000D01*
X170053000Y-99949000D02*
X168427400Y-99949000D01*
X130429000Y-112395000D02*
X134239000Y-112395000D01*
X142039000Y-113695000D02*
X168118000Y-113695000D01*
X140739000Y-112395000D02*
X142039000Y-113695000D01*
X171196000Y-110617000D02*
X171196000Y-101092000D01*
X168118000Y-113695000D02*
X171196000Y-110617000D01*
X150899000Y-112395000D02*
X168529000Y-112395000D01*
X169672000Y-101219000D02*
X167640000Y-101219000D01*
X141859000Y-109855000D02*
X144399000Y-112395000D01*
X169926000Y-101473000D02*
X169672000Y-101219000D01*
X166751000Y-99085400D02*
X168427400Y-97409000D01*
X169926000Y-110998000D02*
X169926000Y-101473000D01*
X129159000Y-108585000D02*
X130429000Y-109855000D01*
X130429000Y-109855000D02*
X141859000Y-109855000D01*
X144399000Y-112395000D02*
X150899000Y-112395000D01*
X166751000Y-100330000D02*
X166751000Y-99085400D01*
X168529000Y-112395000D02*
X169926000Y-110998000D01*
X167640000Y-101219000D02*
X166751000Y-100330000D01*
X168459000Y-114116000D02*
X136836000Y-114116000D01*
X136836000Y-114116000D02*
X134239000Y-116713000D01*
X174879000Y-86995000D02*
X171831000Y-90043000D01*
X171831000Y-110744000D02*
X168459000Y-114116000D01*
X171831000Y-90043000D02*
X171831000Y-110744000D01*
X173082000Y-96412000D02*
X173082000Y-110255000D01*
X173082000Y-110255000D02*
X168821000Y-114516000D01*
X138976000Y-114516000D02*
X136779000Y-116713000D01*
X174879000Y-94615000D02*
X173082000Y-96412000D01*
X168821000Y-114516000D02*
X138976000Y-114516000D01*
X173482000Y-110617000D02*
X169183000Y-114916000D01*
X141116000Y-114916000D02*
X139319000Y-116713000D01*
X174879000Y-102235000D02*
X173482000Y-103632000D01*
X169183000Y-114916000D02*
X141116000Y-114916000D01*
X173482000Y-103632000D02*
X173482000Y-110617000D01*
X169418000Y-115316000D02*
X143256000Y-115316000D01*
X143256000Y-115316000D02*
X141859000Y-116713000D01*
X174879000Y-109855000D02*
X169418000Y-115316000D01*
X165989000Y-121825000D02*
X165989000Y-117475000D01*
X165989000Y-121825000D02*
X165989000Y-124714000D01*
X158369000Y-117475000D02*
X158369000Y-121825000D01*
X168529000Y-121825000D02*
X168529000Y-117475000D01*
X168529000Y-121825000D02*
X168529000Y-124714000D01*
X163449000Y-121825000D02*
X163449000Y-117475000D01*
X163449000Y-121825000D02*
X163449000Y-124714000D01*
X160909000Y-121825000D02*
X160909000Y-117475000D01*
X160909000Y-121825000D02*
X160909000Y-124714000D01*
M02*
