M48
; DRILL file {KiCad 8.0.3} date 2024-12-06T19:50:10+1300
; FORMAT={-:-/ absolute / metric / decimal}
; #@! TF.CreationDate,2024-12-06T19:50:10+13:00
; #@! TF.GenerationSoftware,Kicad,Pcbnew,8.0.3
; #@! TF.FileFunction,Plated,1,2,PTH
FMAT,2
METRIC
; #@! TA.AperFunction,Plated,PTH,ComponentDrill
T1C0.700
; #@! TA.AperFunction,Plated,PTH,ComponentDrill
T2C0.800
; #@! TA.AperFunction,Plated,PTH,ComponentDrill
T3C0.900
; #@! TA.AperFunction,Plated,PTH,ComponentDrill
T4C1.000
; #@! TA.AperFunction,Plated,PTH,ComponentDrill
T5C1.100
%
G90
G05
T1
X121.539Y-85.725
X121.539Y-88.265
X121.539Y-93.345
X121.539Y-95.815
X121.539Y-100.965
X121.539Y-103.505
X121.539Y-108.585
X121.539Y-111.125
X129.159Y-85.725
X129.159Y-88.265
X129.159Y-93.345
X129.159Y-95.815
X129.159Y-100.965
X129.159Y-103.505
X129.159Y-108.585
X129.159Y-111.125
X169.799Y-71.755
X169.799Y-79.375
X174.879Y-86.995
X174.879Y-94.615
X174.879Y-102.235
X174.879Y-109.855
X182.499Y-86.995
X182.499Y-94.615
X182.499Y-102.235
X182.499Y-109.855
T2
X129.159Y-116.713
X129.159Y-124.333
X131.699Y-116.713
X131.699Y-124.333
X134.239Y-116.713
X134.239Y-124.333
X136.779Y-116.713
X136.779Y-124.333
X139.319Y-116.713
X139.319Y-124.333
X141.859Y-116.713
X141.859Y-124.333
X144.399Y-116.713
X144.399Y-124.333
X146.939Y-116.713
X146.939Y-124.333
X149.479Y-116.713
X149.479Y-124.333
X152.019Y-116.713
X152.019Y-124.333
X158.369Y-117.475
X158.369Y-121.825
X160.909Y-117.475
X160.909Y-121.825
X163.449Y-117.475
X163.449Y-121.825
X165.989Y-117.475
X165.989Y-121.825
X168.529Y-117.475
X168.529Y-121.825
X171.069Y-117.475
X171.069Y-121.825
T3
X169.799Y-66.675
X169.799Y-69.215
X185.039Y-86.995
X185.039Y-94.615
X185.039Y-102.235
X185.039Y-109.855
X187.579Y-86.995
X187.579Y-94.615
X187.579Y-102.235
X187.579Y-109.855
T4
X158.369Y-125.476
X160.807Y-92.329
X160.807Y-94.869
X160.807Y-97.409
X160.807Y-99.949
X160.807Y-102.489
X160.807Y-105.029
X160.807Y-107.569
X160.909Y-125.476
X163.449Y-125.476
X165.989Y-125.476
X168.427Y-92.329
X168.427Y-94.869
X168.427Y-97.409
X168.427Y-99.949
X168.427Y-102.489
X168.427Y-105.029
X168.427Y-107.569
X168.529Y-125.476
X171.069Y-125.476
T5
X134.239Y-85.035
X134.239Y-89.535
X134.239Y-92.655
X134.239Y-97.155
X134.239Y-100.275
X134.239Y-104.775
X134.239Y-107.895
X134.239Y-112.395
X140.739Y-85.035
X140.739Y-89.535
X140.739Y-92.655
X140.739Y-97.155
X140.739Y-100.275
X140.739Y-104.775
X140.739Y-107.895
X140.739Y-112.395
X144.399Y-85.035
X144.399Y-89.535
X144.399Y-92.655
X144.399Y-97.155
X144.399Y-100.275
X144.399Y-104.775
X144.399Y-107.895
X144.399Y-112.395
X150.899Y-85.035
X150.899Y-89.535
X150.899Y-92.655
X150.899Y-97.155
X150.899Y-100.275
X150.899Y-104.775
X150.899Y-107.895
X150.899Y-112.395
T4
X173.269Y-76.305G85X173.269Y-74.105
G05
X179.169Y-71.805G85X176.969Y-71.805
G05
X179.369Y-78.105G85X176.769Y-78.105
G05
M30
