%TF.GenerationSoftware,KiCad,Pcbnew,8.0.3*%
%TF.CreationDate,2024-11-19T19:51:04+13:00*%
%TF.ProjectId,DEC8881_tester,44454338-3838-4315-9f74-65737465722e,rev?*%
%TF.SameCoordinates,Original*%
%TF.FileFunction,Drillmap*%
%TF.FilePolarity,Positive*%
%FSLAX45Y45*%
G04 Gerber Fmt 4.5, Leading zero omitted, Abs format (unit mm)*
G04 Created by KiCad (PCBNEW 8.0.3) date 2024-11-19 19:51:04*
%MOMM*%
%LPD*%
G01*
G04 APERTURE LIST*
%ADD10C,0.050000*%
%ADD11C,0.200000*%
%ADD12C,0.100000*%
%ADD13C,0.110000*%
G04 APERTURE END LIST*
D10*
X19138900Y-12700000D02*
G75*
G02*
X18884900Y-12954000I-254000J0D01*
G01*
X11772900Y-12954000D02*
G75*
G02*
X11518900Y-12700000I0J254000D01*
G01*
X11518900Y-12700000D02*
X11518900Y-6667500D01*
X11518900Y-6667500D02*
G75*
G02*
X11772900Y-6413500I254000J0D01*
G01*
X11772900Y-6413500D02*
X18884900Y-6413500D01*
X18884900Y-6413500D02*
G75*
G02*
X19138900Y-6667500I0J-254000D01*
G01*
X18884900Y-12954000D02*
X11772900Y-12954000D01*
X19138900Y-6667500D02*
X19138900Y-12700000D01*
D11*
D12*
X12118900Y-8537500D02*
X12188900Y-8607500D01*
X12188900Y-8537500D02*
X12118900Y-8607500D01*
X12118900Y-8791500D02*
X12188900Y-8861500D01*
X12188900Y-8791500D02*
X12118900Y-8861500D01*
X12118900Y-9299500D02*
X12188900Y-9369500D01*
X12188900Y-9299500D02*
X12118900Y-9369500D01*
X12118900Y-9546500D02*
X12188900Y-9616500D01*
X12188900Y-9546500D02*
X12118900Y-9616500D01*
X12118900Y-10061500D02*
X12188900Y-10131500D01*
X12188900Y-10061500D02*
X12118900Y-10131500D01*
X12118900Y-10315500D02*
X12188900Y-10385500D01*
X12188900Y-10315500D02*
X12118900Y-10385500D01*
X12118900Y-10823500D02*
X12188900Y-10893500D01*
X12188900Y-10823500D02*
X12118900Y-10893500D01*
X12118900Y-11077500D02*
X12188900Y-11147500D01*
X12188900Y-11077500D02*
X12118900Y-11147500D01*
X12880900Y-8537500D02*
X12950900Y-8607500D01*
X12950900Y-8537500D02*
X12880900Y-8607500D01*
X12880900Y-8791500D02*
X12950900Y-8861500D01*
X12950900Y-8791500D02*
X12880900Y-8861500D01*
X12880900Y-9299500D02*
X12950900Y-9369500D01*
X12950900Y-9299500D02*
X12880900Y-9369500D01*
X12880900Y-9546500D02*
X12950900Y-9616500D01*
X12950900Y-9546500D02*
X12880900Y-9616500D01*
X12880900Y-10061500D02*
X12950900Y-10131500D01*
X12950900Y-10061500D02*
X12880900Y-10131500D01*
X12880900Y-10315500D02*
X12950900Y-10385500D01*
X12950900Y-10315500D02*
X12880900Y-10385500D01*
X12880900Y-10823500D02*
X12950900Y-10893500D01*
X12950900Y-10823500D02*
X12880900Y-10893500D01*
X12880900Y-11077500D02*
X12950900Y-11147500D01*
X12950900Y-11077500D02*
X12880900Y-11147500D01*
X16944900Y-7140500D02*
X17014900Y-7210500D01*
X17014900Y-7140500D02*
X16944900Y-7210500D01*
X16944900Y-7902500D02*
X17014900Y-7972500D01*
X17014900Y-7902500D02*
X16944900Y-7972500D01*
X17452900Y-8664500D02*
X17522900Y-8734500D01*
X17522900Y-8664500D02*
X17452900Y-8734500D01*
X17452900Y-9426500D02*
X17522900Y-9496500D01*
X17522900Y-9426500D02*
X17452900Y-9496500D01*
X17452900Y-10188500D02*
X17522900Y-10258500D01*
X17522900Y-10188500D02*
X17452900Y-10258500D01*
X17452900Y-10950500D02*
X17522900Y-11020500D01*
X17522900Y-10950500D02*
X17452900Y-11020500D01*
X18214900Y-8664500D02*
X18284900Y-8734500D01*
X18284900Y-8664500D02*
X18214900Y-8734500D01*
X18214900Y-9426500D02*
X18284900Y-9496500D01*
X18284900Y-9426500D02*
X18214900Y-9496500D01*
X18214900Y-10188500D02*
X18284900Y-10258500D01*
X18284900Y-10188500D02*
X18214900Y-10258500D01*
X18214900Y-10950500D02*
X18284900Y-11020500D01*
X18284900Y-10950500D02*
X18214900Y-11020500D01*
X12955900Y-11671300D02*
G75*
G02*
X12875900Y-11671300I-40000J0D01*
G01*
X12875900Y-11671300D02*
G75*
G02*
X12955900Y-11671300I40000J0D01*
G01*
X12955900Y-12433300D02*
G75*
G02*
X12875900Y-12433300I-40000J0D01*
G01*
X12875900Y-12433300D02*
G75*
G02*
X12955900Y-12433300I40000J0D01*
G01*
X13209900Y-11671300D02*
G75*
G02*
X13129900Y-11671300I-40000J0D01*
G01*
X13129900Y-11671300D02*
G75*
G02*
X13209900Y-11671300I40000J0D01*
G01*
X13209900Y-12433300D02*
G75*
G02*
X13129900Y-12433300I-40000J0D01*
G01*
X13129900Y-12433300D02*
G75*
G02*
X13209900Y-12433300I40000J0D01*
G01*
X13463900Y-11671300D02*
G75*
G02*
X13383900Y-11671300I-40000J0D01*
G01*
X13383900Y-11671300D02*
G75*
G02*
X13463900Y-11671300I40000J0D01*
G01*
X13463900Y-12433300D02*
G75*
G02*
X13383900Y-12433300I-40000J0D01*
G01*
X13383900Y-12433300D02*
G75*
G02*
X13463900Y-12433300I40000J0D01*
G01*
X13717900Y-11671300D02*
G75*
G02*
X13637900Y-11671300I-40000J0D01*
G01*
X13637900Y-11671300D02*
G75*
G02*
X13717900Y-11671300I40000J0D01*
G01*
X13717900Y-12433300D02*
G75*
G02*
X13637900Y-12433300I-40000J0D01*
G01*
X13637900Y-12433300D02*
G75*
G02*
X13717900Y-12433300I40000J0D01*
G01*
X13971900Y-11671300D02*
G75*
G02*
X13891900Y-11671300I-40000J0D01*
G01*
X13891900Y-11671300D02*
G75*
G02*
X13971900Y-11671300I40000J0D01*
G01*
X13971900Y-12433300D02*
G75*
G02*
X13891900Y-12433300I-40000J0D01*
G01*
X13891900Y-12433300D02*
G75*
G02*
X13971900Y-12433300I40000J0D01*
G01*
X14225900Y-11671300D02*
G75*
G02*
X14145900Y-11671300I-40000J0D01*
G01*
X14145900Y-11671300D02*
G75*
G02*
X14225900Y-11671300I40000J0D01*
G01*
X14225900Y-12433300D02*
G75*
G02*
X14145900Y-12433300I-40000J0D01*
G01*
X14145900Y-12433300D02*
G75*
G02*
X14225900Y-12433300I40000J0D01*
G01*
X14479900Y-11671300D02*
G75*
G02*
X14399900Y-11671300I-40000J0D01*
G01*
X14399900Y-11671300D02*
G75*
G02*
X14479900Y-11671300I40000J0D01*
G01*
X14479900Y-12433300D02*
G75*
G02*
X14399900Y-12433300I-40000J0D01*
G01*
X14399900Y-12433300D02*
G75*
G02*
X14479900Y-12433300I40000J0D01*
G01*
X14733900Y-11671300D02*
G75*
G02*
X14653900Y-11671300I-40000J0D01*
G01*
X14653900Y-11671300D02*
G75*
G02*
X14733900Y-11671300I40000J0D01*
G01*
X14733900Y-12433300D02*
G75*
G02*
X14653900Y-12433300I-40000J0D01*
G01*
X14653900Y-12433300D02*
G75*
G02*
X14733900Y-12433300I40000J0D01*
G01*
X14987900Y-11671300D02*
G75*
G02*
X14907900Y-11671300I-40000J0D01*
G01*
X14907900Y-11671300D02*
G75*
G02*
X14987900Y-11671300I40000J0D01*
G01*
X14987900Y-12433300D02*
G75*
G02*
X14907900Y-12433300I-40000J0D01*
G01*
X14907900Y-12433300D02*
G75*
G02*
X14987900Y-12433300I40000J0D01*
G01*
X15241900Y-11671300D02*
G75*
G02*
X15161900Y-11671300I-40000J0D01*
G01*
X15161900Y-11671300D02*
G75*
G02*
X15241900Y-11671300I40000J0D01*
G01*
X15241900Y-12433300D02*
G75*
G02*
X15161900Y-12433300I-40000J0D01*
G01*
X15161900Y-12433300D02*
G75*
G02*
X15241900Y-12433300I40000J0D01*
G01*
X15876900Y-11747500D02*
G75*
G02*
X15796900Y-11747500I-40000J0D01*
G01*
X15796900Y-11747500D02*
G75*
G02*
X15876900Y-11747500I40000J0D01*
G01*
X15876900Y-12182500D02*
G75*
G02*
X15796900Y-12182500I-40000J0D01*
G01*
X15796900Y-12182500D02*
G75*
G02*
X15876900Y-12182500I40000J0D01*
G01*
X16130900Y-11747500D02*
G75*
G02*
X16050900Y-11747500I-40000J0D01*
G01*
X16050900Y-11747500D02*
G75*
G02*
X16130900Y-11747500I40000J0D01*
G01*
X16130900Y-12182500D02*
G75*
G02*
X16050900Y-12182500I-40000J0D01*
G01*
X16050900Y-12182500D02*
G75*
G02*
X16130900Y-12182500I40000J0D01*
G01*
X16384900Y-11747500D02*
G75*
G02*
X16304900Y-11747500I-40000J0D01*
G01*
X16304900Y-11747500D02*
G75*
G02*
X16384900Y-11747500I40000J0D01*
G01*
X16384900Y-12182500D02*
G75*
G02*
X16304900Y-12182500I-40000J0D01*
G01*
X16304900Y-12182500D02*
G75*
G02*
X16384900Y-12182500I40000J0D01*
G01*
X16638900Y-11747500D02*
G75*
G02*
X16558900Y-11747500I-40000J0D01*
G01*
X16558900Y-11747500D02*
G75*
G02*
X16638900Y-11747500I40000J0D01*
G01*
X16638900Y-12182500D02*
G75*
G02*
X16558900Y-12182500I-40000J0D01*
G01*
X16558900Y-12182500D02*
G75*
G02*
X16638900Y-12182500I40000J0D01*
G01*
X16892900Y-11747500D02*
G75*
G02*
X16812900Y-11747500I-40000J0D01*
G01*
X16812900Y-11747500D02*
G75*
G02*
X16892900Y-11747500I40000J0D01*
G01*
X16892900Y-12182500D02*
G75*
G02*
X16812900Y-12182500I-40000J0D01*
G01*
X16812900Y-12182500D02*
G75*
G02*
X16892900Y-12182500I40000J0D01*
G01*
X17146900Y-11747500D02*
G75*
G02*
X17066900Y-11747500I-40000J0D01*
G01*
X17066900Y-11747500D02*
G75*
G02*
X17146900Y-11747500I40000J0D01*
G01*
X17146900Y-12182500D02*
G75*
G02*
X17066900Y-12182500I-40000J0D01*
G01*
X17066900Y-12182500D02*
G75*
G02*
X17146900Y-12182500I40000J0D01*
G01*
X16979900Y-6622500D02*
X16979900Y-6712500D01*
X16934900Y-6667500D02*
X17024900Y-6667500D01*
X16979900Y-6876500D02*
X16979900Y-6966500D01*
X16934900Y-6921500D02*
X17024900Y-6921500D01*
X18503900Y-8654500D02*
X18503900Y-8744500D01*
X18458900Y-8699500D02*
X18548900Y-8699500D01*
X18503900Y-9416500D02*
X18503900Y-9506500D01*
X18458900Y-9461500D02*
X18548900Y-9461500D01*
X18503900Y-10178500D02*
X18503900Y-10268500D01*
X18458900Y-10223500D02*
X18548900Y-10223500D01*
X18503900Y-10940500D02*
X18503900Y-11030500D01*
X18458900Y-10985500D02*
X18548900Y-10985500D01*
X18757900Y-8654500D02*
X18757900Y-8744500D01*
X18712900Y-8699500D02*
X18802900Y-8699500D01*
X18757900Y-9416500D02*
X18757900Y-9506500D01*
X18712900Y-9461500D02*
X18802900Y-9461500D01*
X18757900Y-10178500D02*
X18757900Y-10268500D01*
X18712900Y-10223500D02*
X18802900Y-10223500D01*
X18757900Y-10940500D02*
X18757900Y-11030500D01*
X18712900Y-10985500D02*
X18802900Y-10985500D01*
X15872256Y-12582956D02*
X15872256Y-12512244D01*
X15801544Y-12512244D01*
X15801544Y-12582956D01*
X15872256Y-12582956D01*
X16116096Y-9268256D02*
X16116096Y-9197544D01*
X16045384Y-9197544D01*
X16045384Y-9268256D01*
X16116096Y-9268256D01*
X16116096Y-9522256D02*
X16116096Y-9451544D01*
X16045384Y-9451544D01*
X16045384Y-9522256D01*
X16116096Y-9522256D01*
X16116096Y-9776256D02*
X16116096Y-9705544D01*
X16045384Y-9705544D01*
X16045384Y-9776256D01*
X16116096Y-9776256D01*
X16116096Y-10030256D02*
X16116096Y-9959544D01*
X16045384Y-9959544D01*
X16045384Y-10030256D01*
X16116096Y-10030256D01*
X16116096Y-10284256D02*
X16116096Y-10213544D01*
X16045384Y-10213544D01*
X16045384Y-10284256D01*
X16116096Y-10284256D01*
X16116096Y-10538256D02*
X16116096Y-10467544D01*
X16045384Y-10467544D01*
X16045384Y-10538256D01*
X16116096Y-10538256D01*
X16116096Y-10792256D02*
X16116096Y-10721544D01*
X16045384Y-10721544D01*
X16045384Y-10792256D01*
X16116096Y-10792256D01*
X16126256Y-12582956D02*
X16126256Y-12512244D01*
X16055544Y-12512244D01*
X16055544Y-12582956D01*
X16126256Y-12582956D01*
X16380256Y-12582956D02*
X16380256Y-12512244D01*
X16309544Y-12512244D01*
X16309544Y-12582956D01*
X16380256Y-12582956D01*
X16634256Y-12582956D02*
X16634256Y-12512244D01*
X16563544Y-12512244D01*
X16563544Y-12582956D01*
X16634256Y-12582956D01*
X16878096Y-9268256D02*
X16878096Y-9197544D01*
X16807384Y-9197544D01*
X16807384Y-9268256D01*
X16878096Y-9268256D01*
X16878096Y-9522256D02*
X16878096Y-9451544D01*
X16807384Y-9451544D01*
X16807384Y-9522256D01*
X16878096Y-9522256D01*
X16878096Y-9776256D02*
X16878096Y-9705544D01*
X16807384Y-9705544D01*
X16807384Y-9776256D01*
X16878096Y-9776256D01*
X16878096Y-10030256D02*
X16878096Y-9959544D01*
X16807384Y-9959544D01*
X16807384Y-10030256D01*
X16878096Y-10030256D01*
X16878096Y-10284256D02*
X16878096Y-10213544D01*
X16807384Y-10213544D01*
X16807384Y-10284256D01*
X16878096Y-10284256D01*
X16878096Y-10538256D02*
X16878096Y-10467544D01*
X16807384Y-10467544D01*
X16807384Y-10538256D01*
X16878096Y-10538256D01*
X16878096Y-10792256D02*
X16878096Y-10721544D01*
X16807384Y-10721544D01*
X16807384Y-10792256D01*
X16878096Y-10792256D01*
X16888256Y-12582956D02*
X16888256Y-12512244D01*
X16817544Y-12512244D01*
X16817544Y-12582956D01*
X16888256Y-12582956D01*
X17142256Y-12582956D02*
X17142256Y-12512244D01*
X17071544Y-12512244D01*
X17071544Y-12582956D01*
X17142256Y-12582956D01*
X17362256Y-7555856D02*
X17362256Y-7485144D01*
X17291544Y-7485144D01*
X17291544Y-7555856D01*
X17362256Y-7555856D01*
X17376900Y-7630500D02*
X17376900Y-7410500D01*
X17276900Y-7410500D02*
G75*
G02*
X17376900Y-7410500I50000J0D01*
G01*
X17276900Y-7410500D02*
X17276900Y-7630500D01*
X17276900Y-7630500D02*
G75*
G03*
X17376900Y-7630500I50000J0D01*
G01*
X17842256Y-7215856D02*
X17842256Y-7145144D01*
X17771544Y-7145144D01*
X17771544Y-7215856D01*
X17842256Y-7215856D01*
X17916900Y-7130500D02*
X17696900Y-7130500D01*
X17696900Y-7230500D02*
G75*
G02*
X17696900Y-7130500I0J50000D01*
G01*
X17696900Y-7230500D02*
X17916900Y-7230500D01*
X17916900Y-7230500D02*
G75*
G03*
X17916900Y-7130500I0J50000D01*
G01*
X17842256Y-7845856D02*
X17842256Y-7775144D01*
X17771544Y-7775144D01*
X17771544Y-7845856D01*
X17842256Y-7845856D01*
X17936900Y-7760500D02*
X17676900Y-7760500D01*
X17676900Y-7860500D02*
G75*
G02*
X17676900Y-7760500I0J50000D01*
G01*
X17676900Y-7860500D02*
X17936900Y-7860500D01*
X17936900Y-7860500D02*
G75*
G03*
X17936900Y-7760500I0J50000D01*
G01*
D13*
X13423900Y-8558500D02*
X13478900Y-8503500D01*
X13423900Y-8448500D01*
X13368900Y-8503500D01*
X13423900Y-8558500D01*
X13423900Y-9008500D02*
X13478900Y-8953500D01*
X13423900Y-8898500D01*
X13368900Y-8953500D01*
X13423900Y-9008500D01*
X13423900Y-9320500D02*
X13478900Y-9265500D01*
X13423900Y-9210500D01*
X13368900Y-9265500D01*
X13423900Y-9320500D01*
X13423900Y-9770500D02*
X13478900Y-9715500D01*
X13423900Y-9660500D01*
X13368900Y-9715500D01*
X13423900Y-9770500D01*
X13423900Y-10082500D02*
X13478900Y-10027500D01*
X13423900Y-9972500D01*
X13368900Y-10027500D01*
X13423900Y-10082500D01*
X13423900Y-10532500D02*
X13478900Y-10477500D01*
X13423900Y-10422500D01*
X13368900Y-10477500D01*
X13423900Y-10532500D01*
X13423900Y-10844500D02*
X13478900Y-10789500D01*
X13423900Y-10734500D01*
X13368900Y-10789500D01*
X13423900Y-10844500D01*
X13423900Y-11294500D02*
X13478900Y-11239500D01*
X13423900Y-11184500D01*
X13368900Y-11239500D01*
X13423900Y-11294500D01*
X14073900Y-8558500D02*
X14128900Y-8503500D01*
X14073900Y-8448500D01*
X14018900Y-8503500D01*
X14073900Y-8558500D01*
X14073900Y-9008500D02*
X14128900Y-8953500D01*
X14073900Y-8898500D01*
X14018900Y-8953500D01*
X14073900Y-9008500D01*
X14073900Y-9320500D02*
X14128900Y-9265500D01*
X14073900Y-9210500D01*
X14018900Y-9265500D01*
X14073900Y-9320500D01*
X14073900Y-9770500D02*
X14128900Y-9715500D01*
X14073900Y-9660500D01*
X14018900Y-9715500D01*
X14073900Y-9770500D01*
X14073900Y-10082500D02*
X14128900Y-10027500D01*
X14073900Y-9972500D01*
X14018900Y-10027500D01*
X14073900Y-10082500D01*
X14073900Y-10532500D02*
X14128900Y-10477500D01*
X14073900Y-10422500D01*
X14018900Y-10477500D01*
X14073900Y-10532500D01*
X14073900Y-10844500D02*
X14128900Y-10789500D01*
X14073900Y-10734500D01*
X14018900Y-10789500D01*
X14073900Y-10844500D01*
X14073900Y-11294500D02*
X14128900Y-11239500D01*
X14073900Y-11184500D01*
X14018900Y-11239500D01*
X14073900Y-11294500D01*
X14439900Y-8558500D02*
X14494900Y-8503500D01*
X14439900Y-8448500D01*
X14384900Y-8503500D01*
X14439900Y-8558500D01*
X14439900Y-9008500D02*
X14494900Y-8953500D01*
X14439900Y-8898500D01*
X14384900Y-8953500D01*
X14439900Y-9008500D01*
X14439900Y-9320500D02*
X14494900Y-9265500D01*
X14439900Y-9210500D01*
X14384900Y-9265500D01*
X14439900Y-9320500D01*
X14439900Y-9770500D02*
X14494900Y-9715500D01*
X14439900Y-9660500D01*
X14384900Y-9715500D01*
X14439900Y-9770500D01*
X14439900Y-10082500D02*
X14494900Y-10027500D01*
X14439900Y-9972500D01*
X14384900Y-10027500D01*
X14439900Y-10082500D01*
X14439900Y-10532500D02*
X14494900Y-10477500D01*
X14439900Y-10422500D01*
X14384900Y-10477500D01*
X14439900Y-10532500D01*
X14439900Y-10844500D02*
X14494900Y-10789500D01*
X14439900Y-10734500D01*
X14384900Y-10789500D01*
X14439900Y-10844500D01*
X14439900Y-11294500D02*
X14494900Y-11239500D01*
X14439900Y-11184500D01*
X14384900Y-11239500D01*
X14439900Y-11294500D01*
X15089900Y-8558500D02*
X15144900Y-8503500D01*
X15089900Y-8448500D01*
X15034900Y-8503500D01*
X15089900Y-8558500D01*
X15089900Y-9008500D02*
X15144900Y-8953500D01*
X15089900Y-8898500D01*
X15034900Y-8953500D01*
X15089900Y-9008500D01*
X15089900Y-9320500D02*
X15144900Y-9265500D01*
X15089900Y-9210500D01*
X15034900Y-9265500D01*
X15089900Y-9320500D01*
X15089900Y-9770500D02*
X15144900Y-9715500D01*
X15089900Y-9660500D01*
X15034900Y-9715500D01*
X15089900Y-9770500D01*
X15089900Y-10082500D02*
X15144900Y-10027500D01*
X15089900Y-9972500D01*
X15034900Y-10027500D01*
X15089900Y-10082500D01*
X15089900Y-10532500D02*
X15144900Y-10477500D01*
X15089900Y-10422500D01*
X15034900Y-10477500D01*
X15089900Y-10532500D01*
X15089900Y-10844500D02*
X15144900Y-10789500D01*
X15089900Y-10734500D01*
X15034900Y-10789500D01*
X15089900Y-10844500D01*
X15089900Y-11294500D02*
X15144900Y-11239500D01*
X15089900Y-11184500D01*
X15034900Y-11239500D01*
X15089900Y-11294500D01*
D11*
X11777177Y-13267984D02*
X11777177Y-13067984D01*
X11777177Y-13067984D02*
X11824796Y-13067984D01*
X11824796Y-13067984D02*
X11853367Y-13077508D01*
X11853367Y-13077508D02*
X11872415Y-13096555D01*
X11872415Y-13096555D02*
X11881939Y-13115603D01*
X11881939Y-13115603D02*
X11891462Y-13153698D01*
X11891462Y-13153698D02*
X11891462Y-13182269D01*
X11891462Y-13182269D02*
X11881939Y-13220365D01*
X11881939Y-13220365D02*
X11872415Y-13239412D01*
X11872415Y-13239412D02*
X11853367Y-13258460D01*
X11853367Y-13258460D02*
X11824796Y-13267984D01*
X11824796Y-13267984D02*
X11777177Y-13267984D01*
X11977177Y-13267984D02*
X11977177Y-13134650D01*
X11977177Y-13172746D02*
X11986701Y-13153698D01*
X11986701Y-13153698D02*
X11996224Y-13144174D01*
X11996224Y-13144174D02*
X12015272Y-13134650D01*
X12015272Y-13134650D02*
X12034320Y-13134650D01*
X12100986Y-13267984D02*
X12100986Y-13134650D01*
X12100986Y-13067984D02*
X12091462Y-13077508D01*
X12091462Y-13077508D02*
X12100986Y-13087031D01*
X12100986Y-13087031D02*
X12110510Y-13077508D01*
X12110510Y-13077508D02*
X12100986Y-13067984D01*
X12100986Y-13067984D02*
X12100986Y-13087031D01*
X12224796Y-13267984D02*
X12205748Y-13258460D01*
X12205748Y-13258460D02*
X12196224Y-13239412D01*
X12196224Y-13239412D02*
X12196224Y-13067984D01*
X12329558Y-13267984D02*
X12310510Y-13258460D01*
X12310510Y-13258460D02*
X12300986Y-13239412D01*
X12300986Y-13239412D02*
X12300986Y-13067984D01*
X12558129Y-13267984D02*
X12558129Y-13067984D01*
X12558129Y-13067984D02*
X12624796Y-13210841D01*
X12624796Y-13210841D02*
X12691462Y-13067984D01*
X12691462Y-13067984D02*
X12691462Y-13267984D01*
X12872415Y-13267984D02*
X12872415Y-13163222D01*
X12872415Y-13163222D02*
X12862891Y-13144174D01*
X12862891Y-13144174D02*
X12843843Y-13134650D01*
X12843843Y-13134650D02*
X12805748Y-13134650D01*
X12805748Y-13134650D02*
X12786701Y-13144174D01*
X12872415Y-13258460D02*
X12853367Y-13267984D01*
X12853367Y-13267984D02*
X12805748Y-13267984D01*
X12805748Y-13267984D02*
X12786701Y-13258460D01*
X12786701Y-13258460D02*
X12777177Y-13239412D01*
X12777177Y-13239412D02*
X12777177Y-13220365D01*
X12777177Y-13220365D02*
X12786701Y-13201317D01*
X12786701Y-13201317D02*
X12805748Y-13191793D01*
X12805748Y-13191793D02*
X12853367Y-13191793D01*
X12853367Y-13191793D02*
X12872415Y-13182269D01*
X12967653Y-13134650D02*
X12967653Y-13334650D01*
X12967653Y-13144174D02*
X12986701Y-13134650D01*
X12986701Y-13134650D02*
X13024796Y-13134650D01*
X13024796Y-13134650D02*
X13043843Y-13144174D01*
X13043843Y-13144174D02*
X13053367Y-13153698D01*
X13053367Y-13153698D02*
X13062891Y-13172746D01*
X13062891Y-13172746D02*
X13062891Y-13229888D01*
X13062891Y-13229888D02*
X13053367Y-13248936D01*
X13053367Y-13248936D02*
X13043843Y-13258460D01*
X13043843Y-13258460D02*
X13024796Y-13267984D01*
X13024796Y-13267984D02*
X12986701Y-13267984D01*
X12986701Y-13267984D02*
X12967653Y-13258460D01*
X13148605Y-13248936D02*
X13158129Y-13258460D01*
X13158129Y-13258460D02*
X13148605Y-13267984D01*
X13148605Y-13267984D02*
X13139082Y-13258460D01*
X13139082Y-13258460D02*
X13148605Y-13248936D01*
X13148605Y-13248936D02*
X13148605Y-13267984D01*
X13148605Y-13144174D02*
X13158129Y-13153698D01*
X13158129Y-13153698D02*
X13148605Y-13163222D01*
X13148605Y-13163222D02*
X13139082Y-13153698D01*
X13139082Y-13153698D02*
X13148605Y-13144174D01*
X13148605Y-13144174D02*
X13148605Y-13163222D01*
D12*
X11446400Y-13561500D02*
X11516400Y-13631500D01*
X11516400Y-13561500D02*
X11446400Y-13631500D01*
D11*
X11815272Y-13487984D02*
X11834320Y-13487984D01*
X11834320Y-13487984D02*
X11853367Y-13497508D01*
X11853367Y-13497508D02*
X11862891Y-13507031D01*
X11862891Y-13507031D02*
X11872415Y-13526079D01*
X11872415Y-13526079D02*
X11881939Y-13564174D01*
X11881939Y-13564174D02*
X11881939Y-13611793D01*
X11881939Y-13611793D02*
X11872415Y-13649888D01*
X11872415Y-13649888D02*
X11862891Y-13668936D01*
X11862891Y-13668936D02*
X11853367Y-13678460D01*
X11853367Y-13678460D02*
X11834320Y-13687984D01*
X11834320Y-13687984D02*
X11815272Y-13687984D01*
X11815272Y-13687984D02*
X11796224Y-13678460D01*
X11796224Y-13678460D02*
X11786701Y-13668936D01*
X11786701Y-13668936D02*
X11777177Y-13649888D01*
X11777177Y-13649888D02*
X11767653Y-13611793D01*
X11767653Y-13611793D02*
X11767653Y-13564174D01*
X11767653Y-13564174D02*
X11777177Y-13526079D01*
X11777177Y-13526079D02*
X11786701Y-13507031D01*
X11786701Y-13507031D02*
X11796224Y-13497508D01*
X11796224Y-13497508D02*
X11815272Y-13487984D01*
X11967653Y-13668936D02*
X11977177Y-13678460D01*
X11977177Y-13678460D02*
X11967653Y-13687984D01*
X11967653Y-13687984D02*
X11958129Y-13678460D01*
X11958129Y-13678460D02*
X11967653Y-13668936D01*
X11967653Y-13668936D02*
X11967653Y-13687984D01*
X12043843Y-13487984D02*
X12177177Y-13487984D01*
X12177177Y-13487984D02*
X12091462Y-13687984D01*
X12291462Y-13487984D02*
X12310510Y-13487984D01*
X12310510Y-13487984D02*
X12329558Y-13497508D01*
X12329558Y-13497508D02*
X12339082Y-13507031D01*
X12339082Y-13507031D02*
X12348605Y-13526079D01*
X12348605Y-13526079D02*
X12358129Y-13564174D01*
X12358129Y-13564174D02*
X12358129Y-13611793D01*
X12358129Y-13611793D02*
X12348605Y-13649888D01*
X12348605Y-13649888D02*
X12339082Y-13668936D01*
X12339082Y-13668936D02*
X12329558Y-13678460D01*
X12329558Y-13678460D02*
X12310510Y-13687984D01*
X12310510Y-13687984D02*
X12291462Y-13687984D01*
X12291462Y-13687984D02*
X12272415Y-13678460D01*
X12272415Y-13678460D02*
X12262891Y-13668936D01*
X12262891Y-13668936D02*
X12253367Y-13649888D01*
X12253367Y-13649888D02*
X12243843Y-13611793D01*
X12243843Y-13611793D02*
X12243843Y-13564174D01*
X12243843Y-13564174D02*
X12253367Y-13526079D01*
X12253367Y-13526079D02*
X12262891Y-13507031D01*
X12262891Y-13507031D02*
X12272415Y-13497508D01*
X12272415Y-13497508D02*
X12291462Y-13487984D01*
X12481939Y-13487984D02*
X12500986Y-13487984D01*
X12500986Y-13487984D02*
X12520034Y-13497508D01*
X12520034Y-13497508D02*
X12529558Y-13507031D01*
X12529558Y-13507031D02*
X12539082Y-13526079D01*
X12539082Y-13526079D02*
X12548605Y-13564174D01*
X12548605Y-13564174D02*
X12548605Y-13611793D01*
X12548605Y-13611793D02*
X12539082Y-13649888D01*
X12539082Y-13649888D02*
X12529558Y-13668936D01*
X12529558Y-13668936D02*
X12520034Y-13678460D01*
X12520034Y-13678460D02*
X12500986Y-13687984D01*
X12500986Y-13687984D02*
X12481939Y-13687984D01*
X12481939Y-13687984D02*
X12462891Y-13678460D01*
X12462891Y-13678460D02*
X12453367Y-13668936D01*
X12453367Y-13668936D02*
X12443843Y-13649888D01*
X12443843Y-13649888D02*
X12434320Y-13611793D01*
X12434320Y-13611793D02*
X12434320Y-13564174D01*
X12434320Y-13564174D02*
X12443843Y-13526079D01*
X12443843Y-13526079D02*
X12453367Y-13507031D01*
X12453367Y-13507031D02*
X12462891Y-13497508D01*
X12462891Y-13497508D02*
X12481939Y-13487984D01*
X12634320Y-13687984D02*
X12634320Y-13554650D01*
X12634320Y-13573698D02*
X12643843Y-13564174D01*
X12643843Y-13564174D02*
X12662891Y-13554650D01*
X12662891Y-13554650D02*
X12691463Y-13554650D01*
X12691463Y-13554650D02*
X12710510Y-13564174D01*
X12710510Y-13564174D02*
X12720034Y-13583222D01*
X12720034Y-13583222D02*
X12720034Y-13687984D01*
X12720034Y-13583222D02*
X12729558Y-13564174D01*
X12729558Y-13564174D02*
X12748605Y-13554650D01*
X12748605Y-13554650D02*
X12777177Y-13554650D01*
X12777177Y-13554650D02*
X12796224Y-13564174D01*
X12796224Y-13564174D02*
X12805748Y-13583222D01*
X12805748Y-13583222D02*
X12805748Y-13687984D01*
X12900986Y-13687984D02*
X12900986Y-13554650D01*
X12900986Y-13573698D02*
X12910510Y-13564174D01*
X12910510Y-13564174D02*
X12929558Y-13554650D01*
X12929558Y-13554650D02*
X12958129Y-13554650D01*
X12958129Y-13554650D02*
X12977177Y-13564174D01*
X12977177Y-13564174D02*
X12986701Y-13583222D01*
X12986701Y-13583222D02*
X12986701Y-13687984D01*
X12986701Y-13583222D02*
X12996224Y-13564174D01*
X12996224Y-13564174D02*
X13015272Y-13554650D01*
X13015272Y-13554650D02*
X13043843Y-13554650D01*
X13043843Y-13554650D02*
X13062891Y-13564174D01*
X13062891Y-13564174D02*
X13072415Y-13583222D01*
X13072415Y-13583222D02*
X13072415Y-13687984D01*
X13462891Y-13478460D02*
X13291463Y-13735603D01*
X13720034Y-13487984D02*
X13739082Y-13487984D01*
X13739082Y-13487984D02*
X13758129Y-13497508D01*
X13758129Y-13497508D02*
X13767653Y-13507031D01*
X13767653Y-13507031D02*
X13777177Y-13526079D01*
X13777177Y-13526079D02*
X13786701Y-13564174D01*
X13786701Y-13564174D02*
X13786701Y-13611793D01*
X13786701Y-13611793D02*
X13777177Y-13649888D01*
X13777177Y-13649888D02*
X13767653Y-13668936D01*
X13767653Y-13668936D02*
X13758129Y-13678460D01*
X13758129Y-13678460D02*
X13739082Y-13687984D01*
X13739082Y-13687984D02*
X13720034Y-13687984D01*
X13720034Y-13687984D02*
X13700986Y-13678460D01*
X13700986Y-13678460D02*
X13691463Y-13668936D01*
X13691463Y-13668936D02*
X13681939Y-13649888D01*
X13681939Y-13649888D02*
X13672415Y-13611793D01*
X13672415Y-13611793D02*
X13672415Y-13564174D01*
X13672415Y-13564174D02*
X13681939Y-13526079D01*
X13681939Y-13526079D02*
X13691463Y-13507031D01*
X13691463Y-13507031D02*
X13700986Y-13497508D01*
X13700986Y-13497508D02*
X13720034Y-13487984D01*
X13872415Y-13668936D02*
X13881939Y-13678460D01*
X13881939Y-13678460D02*
X13872415Y-13687984D01*
X13872415Y-13687984D02*
X13862891Y-13678460D01*
X13862891Y-13678460D02*
X13872415Y-13668936D01*
X13872415Y-13668936D02*
X13872415Y-13687984D01*
X14005748Y-13487984D02*
X14024796Y-13487984D01*
X14024796Y-13487984D02*
X14043844Y-13497508D01*
X14043844Y-13497508D02*
X14053367Y-13507031D01*
X14053367Y-13507031D02*
X14062891Y-13526079D01*
X14062891Y-13526079D02*
X14072415Y-13564174D01*
X14072415Y-13564174D02*
X14072415Y-13611793D01*
X14072415Y-13611793D02*
X14062891Y-13649888D01*
X14062891Y-13649888D02*
X14053367Y-13668936D01*
X14053367Y-13668936D02*
X14043844Y-13678460D01*
X14043844Y-13678460D02*
X14024796Y-13687984D01*
X14024796Y-13687984D02*
X14005748Y-13687984D01*
X14005748Y-13687984D02*
X13986701Y-13678460D01*
X13986701Y-13678460D02*
X13977177Y-13668936D01*
X13977177Y-13668936D02*
X13967653Y-13649888D01*
X13967653Y-13649888D02*
X13958129Y-13611793D01*
X13958129Y-13611793D02*
X13958129Y-13564174D01*
X13958129Y-13564174D02*
X13967653Y-13526079D01*
X13967653Y-13526079D02*
X13977177Y-13507031D01*
X13977177Y-13507031D02*
X13986701Y-13497508D01*
X13986701Y-13497508D02*
X14005748Y-13487984D01*
X14148606Y-13507031D02*
X14158129Y-13497508D01*
X14158129Y-13497508D02*
X14177177Y-13487984D01*
X14177177Y-13487984D02*
X14224796Y-13487984D01*
X14224796Y-13487984D02*
X14243844Y-13497508D01*
X14243844Y-13497508D02*
X14253367Y-13507031D01*
X14253367Y-13507031D02*
X14262891Y-13526079D01*
X14262891Y-13526079D02*
X14262891Y-13545127D01*
X14262891Y-13545127D02*
X14253367Y-13573698D01*
X14253367Y-13573698D02*
X14139082Y-13687984D01*
X14139082Y-13687984D02*
X14262891Y-13687984D01*
X14329558Y-13487984D02*
X14462891Y-13487984D01*
X14462891Y-13487984D02*
X14377177Y-13687984D01*
X14624796Y-13487984D02*
X14586701Y-13487984D01*
X14586701Y-13487984D02*
X14567653Y-13497508D01*
X14567653Y-13497508D02*
X14558129Y-13507031D01*
X14558129Y-13507031D02*
X14539082Y-13535603D01*
X14539082Y-13535603D02*
X14529558Y-13573698D01*
X14529558Y-13573698D02*
X14529558Y-13649888D01*
X14529558Y-13649888D02*
X14539082Y-13668936D01*
X14539082Y-13668936D02*
X14548606Y-13678460D01*
X14548606Y-13678460D02*
X14567653Y-13687984D01*
X14567653Y-13687984D02*
X14605748Y-13687984D01*
X14605748Y-13687984D02*
X14624796Y-13678460D01*
X14624796Y-13678460D02*
X14634320Y-13668936D01*
X14634320Y-13668936D02*
X14643844Y-13649888D01*
X14643844Y-13649888D02*
X14643844Y-13602269D01*
X14643844Y-13602269D02*
X14634320Y-13583222D01*
X14634320Y-13583222D02*
X14624796Y-13573698D01*
X14624796Y-13573698D02*
X14605748Y-13564174D01*
X14605748Y-13564174D02*
X14567653Y-13564174D01*
X14567653Y-13564174D02*
X14548606Y-13573698D01*
X14548606Y-13573698D02*
X14539082Y-13583222D01*
X14539082Y-13583222D02*
X14529558Y-13602269D01*
X14720034Y-13487984D02*
X14720034Y-13526079D01*
X14796225Y-13487984D02*
X14796225Y-13526079D01*
X15091463Y-13764174D02*
X15081939Y-13754650D01*
X15081939Y-13754650D02*
X15062891Y-13726079D01*
X15062891Y-13726079D02*
X15053368Y-13707031D01*
X15053368Y-13707031D02*
X15043844Y-13678460D01*
X15043844Y-13678460D02*
X15034320Y-13630841D01*
X15034320Y-13630841D02*
X15034320Y-13592746D01*
X15034320Y-13592746D02*
X15043844Y-13545127D01*
X15043844Y-13545127D02*
X15053368Y-13516555D01*
X15053368Y-13516555D02*
X15062891Y-13497508D01*
X15062891Y-13497508D02*
X15081939Y-13468936D01*
X15081939Y-13468936D02*
X15091463Y-13459412D01*
X15158129Y-13507031D02*
X15167653Y-13497508D01*
X15167653Y-13497508D02*
X15186701Y-13487984D01*
X15186701Y-13487984D02*
X15234320Y-13487984D01*
X15234320Y-13487984D02*
X15253368Y-13497508D01*
X15253368Y-13497508D02*
X15262891Y-13507031D01*
X15262891Y-13507031D02*
X15272415Y-13526079D01*
X15272415Y-13526079D02*
X15272415Y-13545127D01*
X15272415Y-13545127D02*
X15262891Y-13573698D01*
X15262891Y-13573698D02*
X15148606Y-13687984D01*
X15148606Y-13687984D02*
X15272415Y-13687984D01*
X15443844Y-13487984D02*
X15405748Y-13487984D01*
X15405748Y-13487984D02*
X15386701Y-13497508D01*
X15386701Y-13497508D02*
X15377177Y-13507031D01*
X15377177Y-13507031D02*
X15358129Y-13535603D01*
X15358129Y-13535603D02*
X15348606Y-13573698D01*
X15348606Y-13573698D02*
X15348606Y-13649888D01*
X15348606Y-13649888D02*
X15358129Y-13668936D01*
X15358129Y-13668936D02*
X15367653Y-13678460D01*
X15367653Y-13678460D02*
X15386701Y-13687984D01*
X15386701Y-13687984D02*
X15424796Y-13687984D01*
X15424796Y-13687984D02*
X15443844Y-13678460D01*
X15443844Y-13678460D02*
X15453368Y-13668936D01*
X15453368Y-13668936D02*
X15462891Y-13649888D01*
X15462891Y-13649888D02*
X15462891Y-13602269D01*
X15462891Y-13602269D02*
X15453368Y-13583222D01*
X15453368Y-13583222D02*
X15443844Y-13573698D01*
X15443844Y-13573698D02*
X15424796Y-13564174D01*
X15424796Y-13564174D02*
X15386701Y-13564174D01*
X15386701Y-13564174D02*
X15367653Y-13573698D01*
X15367653Y-13573698D02*
X15358129Y-13583222D01*
X15358129Y-13583222D02*
X15348606Y-13602269D01*
X15700987Y-13687984D02*
X15700987Y-13487984D01*
X15786701Y-13687984D02*
X15786701Y-13583222D01*
X15786701Y-13583222D02*
X15777177Y-13564174D01*
X15777177Y-13564174D02*
X15758130Y-13554650D01*
X15758130Y-13554650D02*
X15729558Y-13554650D01*
X15729558Y-13554650D02*
X15710510Y-13564174D01*
X15710510Y-13564174D02*
X15700987Y-13573698D01*
X15910510Y-13687984D02*
X15891463Y-13678460D01*
X15891463Y-13678460D02*
X15881939Y-13668936D01*
X15881939Y-13668936D02*
X15872415Y-13649888D01*
X15872415Y-13649888D02*
X15872415Y-13592746D01*
X15872415Y-13592746D02*
X15881939Y-13573698D01*
X15881939Y-13573698D02*
X15891463Y-13564174D01*
X15891463Y-13564174D02*
X15910510Y-13554650D01*
X15910510Y-13554650D02*
X15939082Y-13554650D01*
X15939082Y-13554650D02*
X15958130Y-13564174D01*
X15958130Y-13564174D02*
X15967653Y-13573698D01*
X15967653Y-13573698D02*
X15977177Y-13592746D01*
X15977177Y-13592746D02*
X15977177Y-13649888D01*
X15977177Y-13649888D02*
X15967653Y-13668936D01*
X15967653Y-13668936D02*
X15958130Y-13678460D01*
X15958130Y-13678460D02*
X15939082Y-13687984D01*
X15939082Y-13687984D02*
X15910510Y-13687984D01*
X16091463Y-13687984D02*
X16072415Y-13678460D01*
X16072415Y-13678460D02*
X16062891Y-13659412D01*
X16062891Y-13659412D02*
X16062891Y-13487984D01*
X16243844Y-13678460D02*
X16224796Y-13687984D01*
X16224796Y-13687984D02*
X16186701Y-13687984D01*
X16186701Y-13687984D02*
X16167653Y-13678460D01*
X16167653Y-13678460D02*
X16158130Y-13659412D01*
X16158130Y-13659412D02*
X16158130Y-13583222D01*
X16158130Y-13583222D02*
X16167653Y-13564174D01*
X16167653Y-13564174D02*
X16186701Y-13554650D01*
X16186701Y-13554650D02*
X16224796Y-13554650D01*
X16224796Y-13554650D02*
X16243844Y-13564174D01*
X16243844Y-13564174D02*
X16253368Y-13583222D01*
X16253368Y-13583222D02*
X16253368Y-13602269D01*
X16253368Y-13602269D02*
X16158130Y-13621317D01*
X16329558Y-13678460D02*
X16348606Y-13687984D01*
X16348606Y-13687984D02*
X16386701Y-13687984D01*
X16386701Y-13687984D02*
X16405749Y-13678460D01*
X16405749Y-13678460D02*
X16415272Y-13659412D01*
X16415272Y-13659412D02*
X16415272Y-13649888D01*
X16415272Y-13649888D02*
X16405749Y-13630841D01*
X16405749Y-13630841D02*
X16386701Y-13621317D01*
X16386701Y-13621317D02*
X16358130Y-13621317D01*
X16358130Y-13621317D02*
X16339082Y-13611793D01*
X16339082Y-13611793D02*
X16329558Y-13592746D01*
X16329558Y-13592746D02*
X16329558Y-13583222D01*
X16329558Y-13583222D02*
X16339082Y-13564174D01*
X16339082Y-13564174D02*
X16358130Y-13554650D01*
X16358130Y-13554650D02*
X16386701Y-13554650D01*
X16386701Y-13554650D02*
X16405749Y-13564174D01*
X16481939Y-13764174D02*
X16491463Y-13754650D01*
X16491463Y-13754650D02*
X16510511Y-13726079D01*
X16510511Y-13726079D02*
X16520034Y-13707031D01*
X16520034Y-13707031D02*
X16529558Y-13678460D01*
X16529558Y-13678460D02*
X16539082Y-13630841D01*
X16539082Y-13630841D02*
X16539082Y-13592746D01*
X16539082Y-13592746D02*
X16529558Y-13545127D01*
X16529558Y-13545127D02*
X16520034Y-13516555D01*
X16520034Y-13516555D02*
X16510511Y-13497508D01*
X16510511Y-13497508D02*
X16491463Y-13468936D01*
X16491463Y-13468936D02*
X16481939Y-13459412D01*
D12*
X11516400Y-13860500D02*
G75*
G02*
X11436400Y-13860500I-40000J0D01*
G01*
X11436400Y-13860500D02*
G75*
G02*
X11516400Y-13860500I40000J0D01*
G01*
D11*
X11815272Y-13751984D02*
X11834320Y-13751984D01*
X11834320Y-13751984D02*
X11853367Y-13761508D01*
X11853367Y-13761508D02*
X11862891Y-13771031D01*
X11862891Y-13771031D02*
X11872415Y-13790079D01*
X11872415Y-13790079D02*
X11881939Y-13828174D01*
X11881939Y-13828174D02*
X11881939Y-13875793D01*
X11881939Y-13875793D02*
X11872415Y-13913888D01*
X11872415Y-13913888D02*
X11862891Y-13932936D01*
X11862891Y-13932936D02*
X11853367Y-13942460D01*
X11853367Y-13942460D02*
X11834320Y-13951984D01*
X11834320Y-13951984D02*
X11815272Y-13951984D01*
X11815272Y-13951984D02*
X11796224Y-13942460D01*
X11796224Y-13942460D02*
X11786701Y-13932936D01*
X11786701Y-13932936D02*
X11777177Y-13913888D01*
X11777177Y-13913888D02*
X11767653Y-13875793D01*
X11767653Y-13875793D02*
X11767653Y-13828174D01*
X11767653Y-13828174D02*
X11777177Y-13790079D01*
X11777177Y-13790079D02*
X11786701Y-13771031D01*
X11786701Y-13771031D02*
X11796224Y-13761508D01*
X11796224Y-13761508D02*
X11815272Y-13751984D01*
X11967653Y-13932936D02*
X11977177Y-13942460D01*
X11977177Y-13942460D02*
X11967653Y-13951984D01*
X11967653Y-13951984D02*
X11958129Y-13942460D01*
X11958129Y-13942460D02*
X11967653Y-13932936D01*
X11967653Y-13932936D02*
X11967653Y-13951984D01*
X12091462Y-13837698D02*
X12072415Y-13828174D01*
X12072415Y-13828174D02*
X12062891Y-13818650D01*
X12062891Y-13818650D02*
X12053367Y-13799603D01*
X12053367Y-13799603D02*
X12053367Y-13790079D01*
X12053367Y-13790079D02*
X12062891Y-13771031D01*
X12062891Y-13771031D02*
X12072415Y-13761508D01*
X12072415Y-13761508D02*
X12091462Y-13751984D01*
X12091462Y-13751984D02*
X12129558Y-13751984D01*
X12129558Y-13751984D02*
X12148605Y-13761508D01*
X12148605Y-13761508D02*
X12158129Y-13771031D01*
X12158129Y-13771031D02*
X12167653Y-13790079D01*
X12167653Y-13790079D02*
X12167653Y-13799603D01*
X12167653Y-13799603D02*
X12158129Y-13818650D01*
X12158129Y-13818650D02*
X12148605Y-13828174D01*
X12148605Y-13828174D02*
X12129558Y-13837698D01*
X12129558Y-13837698D02*
X12091462Y-13837698D01*
X12091462Y-13837698D02*
X12072415Y-13847222D01*
X12072415Y-13847222D02*
X12062891Y-13856746D01*
X12062891Y-13856746D02*
X12053367Y-13875793D01*
X12053367Y-13875793D02*
X12053367Y-13913888D01*
X12053367Y-13913888D02*
X12062891Y-13932936D01*
X12062891Y-13932936D02*
X12072415Y-13942460D01*
X12072415Y-13942460D02*
X12091462Y-13951984D01*
X12091462Y-13951984D02*
X12129558Y-13951984D01*
X12129558Y-13951984D02*
X12148605Y-13942460D01*
X12148605Y-13942460D02*
X12158129Y-13932936D01*
X12158129Y-13932936D02*
X12167653Y-13913888D01*
X12167653Y-13913888D02*
X12167653Y-13875793D01*
X12167653Y-13875793D02*
X12158129Y-13856746D01*
X12158129Y-13856746D02*
X12148605Y-13847222D01*
X12148605Y-13847222D02*
X12129558Y-13837698D01*
X12291462Y-13751984D02*
X12310510Y-13751984D01*
X12310510Y-13751984D02*
X12329558Y-13761508D01*
X12329558Y-13761508D02*
X12339082Y-13771031D01*
X12339082Y-13771031D02*
X12348605Y-13790079D01*
X12348605Y-13790079D02*
X12358129Y-13828174D01*
X12358129Y-13828174D02*
X12358129Y-13875793D01*
X12358129Y-13875793D02*
X12348605Y-13913888D01*
X12348605Y-13913888D02*
X12339082Y-13932936D01*
X12339082Y-13932936D02*
X12329558Y-13942460D01*
X12329558Y-13942460D02*
X12310510Y-13951984D01*
X12310510Y-13951984D02*
X12291462Y-13951984D01*
X12291462Y-13951984D02*
X12272415Y-13942460D01*
X12272415Y-13942460D02*
X12262891Y-13932936D01*
X12262891Y-13932936D02*
X12253367Y-13913888D01*
X12253367Y-13913888D02*
X12243843Y-13875793D01*
X12243843Y-13875793D02*
X12243843Y-13828174D01*
X12243843Y-13828174D02*
X12253367Y-13790079D01*
X12253367Y-13790079D02*
X12262891Y-13771031D01*
X12262891Y-13771031D02*
X12272415Y-13761508D01*
X12272415Y-13761508D02*
X12291462Y-13751984D01*
X12481939Y-13751984D02*
X12500986Y-13751984D01*
X12500986Y-13751984D02*
X12520034Y-13761508D01*
X12520034Y-13761508D02*
X12529558Y-13771031D01*
X12529558Y-13771031D02*
X12539082Y-13790079D01*
X12539082Y-13790079D02*
X12548605Y-13828174D01*
X12548605Y-13828174D02*
X12548605Y-13875793D01*
X12548605Y-13875793D02*
X12539082Y-13913888D01*
X12539082Y-13913888D02*
X12529558Y-13932936D01*
X12529558Y-13932936D02*
X12520034Y-13942460D01*
X12520034Y-13942460D02*
X12500986Y-13951984D01*
X12500986Y-13951984D02*
X12481939Y-13951984D01*
X12481939Y-13951984D02*
X12462891Y-13942460D01*
X12462891Y-13942460D02*
X12453367Y-13932936D01*
X12453367Y-13932936D02*
X12443843Y-13913888D01*
X12443843Y-13913888D02*
X12434320Y-13875793D01*
X12434320Y-13875793D02*
X12434320Y-13828174D01*
X12434320Y-13828174D02*
X12443843Y-13790079D01*
X12443843Y-13790079D02*
X12453367Y-13771031D01*
X12453367Y-13771031D02*
X12462891Y-13761508D01*
X12462891Y-13761508D02*
X12481939Y-13751984D01*
X12634320Y-13951984D02*
X12634320Y-13818650D01*
X12634320Y-13837698D02*
X12643843Y-13828174D01*
X12643843Y-13828174D02*
X12662891Y-13818650D01*
X12662891Y-13818650D02*
X12691463Y-13818650D01*
X12691463Y-13818650D02*
X12710510Y-13828174D01*
X12710510Y-13828174D02*
X12720034Y-13847222D01*
X12720034Y-13847222D02*
X12720034Y-13951984D01*
X12720034Y-13847222D02*
X12729558Y-13828174D01*
X12729558Y-13828174D02*
X12748605Y-13818650D01*
X12748605Y-13818650D02*
X12777177Y-13818650D01*
X12777177Y-13818650D02*
X12796224Y-13828174D01*
X12796224Y-13828174D02*
X12805748Y-13847222D01*
X12805748Y-13847222D02*
X12805748Y-13951984D01*
X12900986Y-13951984D02*
X12900986Y-13818650D01*
X12900986Y-13837698D02*
X12910510Y-13828174D01*
X12910510Y-13828174D02*
X12929558Y-13818650D01*
X12929558Y-13818650D02*
X12958129Y-13818650D01*
X12958129Y-13818650D02*
X12977177Y-13828174D01*
X12977177Y-13828174D02*
X12986701Y-13847222D01*
X12986701Y-13847222D02*
X12986701Y-13951984D01*
X12986701Y-13847222D02*
X12996224Y-13828174D01*
X12996224Y-13828174D02*
X13015272Y-13818650D01*
X13015272Y-13818650D02*
X13043843Y-13818650D01*
X13043843Y-13818650D02*
X13062891Y-13828174D01*
X13062891Y-13828174D02*
X13072415Y-13847222D01*
X13072415Y-13847222D02*
X13072415Y-13951984D01*
X13462891Y-13742460D02*
X13291463Y-13999603D01*
X13720034Y-13751984D02*
X13739082Y-13751984D01*
X13739082Y-13751984D02*
X13758129Y-13761508D01*
X13758129Y-13761508D02*
X13767653Y-13771031D01*
X13767653Y-13771031D02*
X13777177Y-13790079D01*
X13777177Y-13790079D02*
X13786701Y-13828174D01*
X13786701Y-13828174D02*
X13786701Y-13875793D01*
X13786701Y-13875793D02*
X13777177Y-13913888D01*
X13777177Y-13913888D02*
X13767653Y-13932936D01*
X13767653Y-13932936D02*
X13758129Y-13942460D01*
X13758129Y-13942460D02*
X13739082Y-13951984D01*
X13739082Y-13951984D02*
X13720034Y-13951984D01*
X13720034Y-13951984D02*
X13700986Y-13942460D01*
X13700986Y-13942460D02*
X13691463Y-13932936D01*
X13691463Y-13932936D02*
X13681939Y-13913888D01*
X13681939Y-13913888D02*
X13672415Y-13875793D01*
X13672415Y-13875793D02*
X13672415Y-13828174D01*
X13672415Y-13828174D02*
X13681939Y-13790079D01*
X13681939Y-13790079D02*
X13691463Y-13771031D01*
X13691463Y-13771031D02*
X13700986Y-13761508D01*
X13700986Y-13761508D02*
X13720034Y-13751984D01*
X13872415Y-13932936D02*
X13881939Y-13942460D01*
X13881939Y-13942460D02*
X13872415Y-13951984D01*
X13872415Y-13951984D02*
X13862891Y-13942460D01*
X13862891Y-13942460D02*
X13872415Y-13932936D01*
X13872415Y-13932936D02*
X13872415Y-13951984D01*
X14005748Y-13751984D02*
X14024796Y-13751984D01*
X14024796Y-13751984D02*
X14043844Y-13761508D01*
X14043844Y-13761508D02*
X14053367Y-13771031D01*
X14053367Y-13771031D02*
X14062891Y-13790079D01*
X14062891Y-13790079D02*
X14072415Y-13828174D01*
X14072415Y-13828174D02*
X14072415Y-13875793D01*
X14072415Y-13875793D02*
X14062891Y-13913888D01*
X14062891Y-13913888D02*
X14053367Y-13932936D01*
X14053367Y-13932936D02*
X14043844Y-13942460D01*
X14043844Y-13942460D02*
X14024796Y-13951984D01*
X14024796Y-13951984D02*
X14005748Y-13951984D01*
X14005748Y-13951984D02*
X13986701Y-13942460D01*
X13986701Y-13942460D02*
X13977177Y-13932936D01*
X13977177Y-13932936D02*
X13967653Y-13913888D01*
X13967653Y-13913888D02*
X13958129Y-13875793D01*
X13958129Y-13875793D02*
X13958129Y-13828174D01*
X13958129Y-13828174D02*
X13967653Y-13790079D01*
X13967653Y-13790079D02*
X13977177Y-13771031D01*
X13977177Y-13771031D02*
X13986701Y-13761508D01*
X13986701Y-13761508D02*
X14005748Y-13751984D01*
X14139082Y-13751984D02*
X14262891Y-13751984D01*
X14262891Y-13751984D02*
X14196225Y-13828174D01*
X14196225Y-13828174D02*
X14224796Y-13828174D01*
X14224796Y-13828174D02*
X14243844Y-13837698D01*
X14243844Y-13837698D02*
X14253367Y-13847222D01*
X14253367Y-13847222D02*
X14262891Y-13866269D01*
X14262891Y-13866269D02*
X14262891Y-13913888D01*
X14262891Y-13913888D02*
X14253367Y-13932936D01*
X14253367Y-13932936D02*
X14243844Y-13942460D01*
X14243844Y-13942460D02*
X14224796Y-13951984D01*
X14224796Y-13951984D02*
X14167653Y-13951984D01*
X14167653Y-13951984D02*
X14148606Y-13942460D01*
X14148606Y-13942460D02*
X14139082Y-13932936D01*
X14453367Y-13951984D02*
X14339082Y-13951984D01*
X14396225Y-13951984D02*
X14396225Y-13751984D01*
X14396225Y-13751984D02*
X14377177Y-13780555D01*
X14377177Y-13780555D02*
X14358129Y-13799603D01*
X14358129Y-13799603D02*
X14339082Y-13809127D01*
X14634320Y-13751984D02*
X14539082Y-13751984D01*
X14539082Y-13751984D02*
X14529558Y-13847222D01*
X14529558Y-13847222D02*
X14539082Y-13837698D01*
X14539082Y-13837698D02*
X14558129Y-13828174D01*
X14558129Y-13828174D02*
X14605748Y-13828174D01*
X14605748Y-13828174D02*
X14624796Y-13837698D01*
X14624796Y-13837698D02*
X14634320Y-13847222D01*
X14634320Y-13847222D02*
X14643844Y-13866269D01*
X14643844Y-13866269D02*
X14643844Y-13913888D01*
X14643844Y-13913888D02*
X14634320Y-13932936D01*
X14634320Y-13932936D02*
X14624796Y-13942460D01*
X14624796Y-13942460D02*
X14605748Y-13951984D01*
X14605748Y-13951984D02*
X14558129Y-13951984D01*
X14558129Y-13951984D02*
X14539082Y-13942460D01*
X14539082Y-13942460D02*
X14529558Y-13932936D01*
X14720034Y-13751984D02*
X14720034Y-13790079D01*
X14796225Y-13751984D02*
X14796225Y-13790079D01*
X15091463Y-14028174D02*
X15081939Y-14018650D01*
X15081939Y-14018650D02*
X15062891Y-13990079D01*
X15062891Y-13990079D02*
X15053368Y-13971031D01*
X15053368Y-13971031D02*
X15043844Y-13942460D01*
X15043844Y-13942460D02*
X15034320Y-13894841D01*
X15034320Y-13894841D02*
X15034320Y-13856746D01*
X15034320Y-13856746D02*
X15043844Y-13809127D01*
X15043844Y-13809127D02*
X15053368Y-13780555D01*
X15053368Y-13780555D02*
X15062891Y-13761508D01*
X15062891Y-13761508D02*
X15081939Y-13732936D01*
X15081939Y-13732936D02*
X15091463Y-13723412D01*
X15148606Y-13751984D02*
X15272415Y-13751984D01*
X15272415Y-13751984D02*
X15205748Y-13828174D01*
X15205748Y-13828174D02*
X15234320Y-13828174D01*
X15234320Y-13828174D02*
X15253368Y-13837698D01*
X15253368Y-13837698D02*
X15262891Y-13847222D01*
X15262891Y-13847222D02*
X15272415Y-13866269D01*
X15272415Y-13866269D02*
X15272415Y-13913888D01*
X15272415Y-13913888D02*
X15262891Y-13932936D01*
X15262891Y-13932936D02*
X15253368Y-13942460D01*
X15253368Y-13942460D02*
X15234320Y-13951984D01*
X15234320Y-13951984D02*
X15177177Y-13951984D01*
X15177177Y-13951984D02*
X15158129Y-13942460D01*
X15158129Y-13942460D02*
X15148606Y-13932936D01*
X15348606Y-13771031D02*
X15358129Y-13761508D01*
X15358129Y-13761508D02*
X15377177Y-13751984D01*
X15377177Y-13751984D02*
X15424796Y-13751984D01*
X15424796Y-13751984D02*
X15443844Y-13761508D01*
X15443844Y-13761508D02*
X15453368Y-13771031D01*
X15453368Y-13771031D02*
X15462891Y-13790079D01*
X15462891Y-13790079D02*
X15462891Y-13809127D01*
X15462891Y-13809127D02*
X15453368Y-13837698D01*
X15453368Y-13837698D02*
X15339082Y-13951984D01*
X15339082Y-13951984D02*
X15462891Y-13951984D01*
X15700987Y-13951984D02*
X15700987Y-13751984D01*
X15786701Y-13951984D02*
X15786701Y-13847222D01*
X15786701Y-13847222D02*
X15777177Y-13828174D01*
X15777177Y-13828174D02*
X15758130Y-13818650D01*
X15758130Y-13818650D02*
X15729558Y-13818650D01*
X15729558Y-13818650D02*
X15710510Y-13828174D01*
X15710510Y-13828174D02*
X15700987Y-13837698D01*
X15910510Y-13951984D02*
X15891463Y-13942460D01*
X15891463Y-13942460D02*
X15881939Y-13932936D01*
X15881939Y-13932936D02*
X15872415Y-13913888D01*
X15872415Y-13913888D02*
X15872415Y-13856746D01*
X15872415Y-13856746D02*
X15881939Y-13837698D01*
X15881939Y-13837698D02*
X15891463Y-13828174D01*
X15891463Y-13828174D02*
X15910510Y-13818650D01*
X15910510Y-13818650D02*
X15939082Y-13818650D01*
X15939082Y-13818650D02*
X15958130Y-13828174D01*
X15958130Y-13828174D02*
X15967653Y-13837698D01*
X15967653Y-13837698D02*
X15977177Y-13856746D01*
X15977177Y-13856746D02*
X15977177Y-13913888D01*
X15977177Y-13913888D02*
X15967653Y-13932936D01*
X15967653Y-13932936D02*
X15958130Y-13942460D01*
X15958130Y-13942460D02*
X15939082Y-13951984D01*
X15939082Y-13951984D02*
X15910510Y-13951984D01*
X16091463Y-13951984D02*
X16072415Y-13942460D01*
X16072415Y-13942460D02*
X16062891Y-13923412D01*
X16062891Y-13923412D02*
X16062891Y-13751984D01*
X16243844Y-13942460D02*
X16224796Y-13951984D01*
X16224796Y-13951984D02*
X16186701Y-13951984D01*
X16186701Y-13951984D02*
X16167653Y-13942460D01*
X16167653Y-13942460D02*
X16158130Y-13923412D01*
X16158130Y-13923412D02*
X16158130Y-13847222D01*
X16158130Y-13847222D02*
X16167653Y-13828174D01*
X16167653Y-13828174D02*
X16186701Y-13818650D01*
X16186701Y-13818650D02*
X16224796Y-13818650D01*
X16224796Y-13818650D02*
X16243844Y-13828174D01*
X16243844Y-13828174D02*
X16253368Y-13847222D01*
X16253368Y-13847222D02*
X16253368Y-13866269D01*
X16253368Y-13866269D02*
X16158130Y-13885317D01*
X16329558Y-13942460D02*
X16348606Y-13951984D01*
X16348606Y-13951984D02*
X16386701Y-13951984D01*
X16386701Y-13951984D02*
X16405749Y-13942460D01*
X16405749Y-13942460D02*
X16415272Y-13923412D01*
X16415272Y-13923412D02*
X16415272Y-13913888D01*
X16415272Y-13913888D02*
X16405749Y-13894841D01*
X16405749Y-13894841D02*
X16386701Y-13885317D01*
X16386701Y-13885317D02*
X16358130Y-13885317D01*
X16358130Y-13885317D02*
X16339082Y-13875793D01*
X16339082Y-13875793D02*
X16329558Y-13856746D01*
X16329558Y-13856746D02*
X16329558Y-13847222D01*
X16329558Y-13847222D02*
X16339082Y-13828174D01*
X16339082Y-13828174D02*
X16358130Y-13818650D01*
X16358130Y-13818650D02*
X16386701Y-13818650D01*
X16386701Y-13818650D02*
X16405749Y-13828174D01*
X16481939Y-14028174D02*
X16491463Y-14018650D01*
X16491463Y-14018650D02*
X16510511Y-13990079D01*
X16510511Y-13990079D02*
X16520034Y-13971031D01*
X16520034Y-13971031D02*
X16529558Y-13942460D01*
X16529558Y-13942460D02*
X16539082Y-13894841D01*
X16539082Y-13894841D02*
X16539082Y-13856746D01*
X16539082Y-13856746D02*
X16529558Y-13809127D01*
X16529558Y-13809127D02*
X16520034Y-13780555D01*
X16520034Y-13780555D02*
X16510511Y-13761508D01*
X16510511Y-13761508D02*
X16491463Y-13732936D01*
X16491463Y-13732936D02*
X16481939Y-13723412D01*
D12*
X11471400Y-14079500D02*
X11471400Y-14169500D01*
X11426400Y-14124500D02*
X11516400Y-14124500D01*
D11*
X11815272Y-14015984D02*
X11834320Y-14015984D01*
X11834320Y-14015984D02*
X11853367Y-14025508D01*
X11853367Y-14025508D02*
X11862891Y-14035031D01*
X11862891Y-14035031D02*
X11872415Y-14054079D01*
X11872415Y-14054079D02*
X11881939Y-14092174D01*
X11881939Y-14092174D02*
X11881939Y-14139793D01*
X11881939Y-14139793D02*
X11872415Y-14177888D01*
X11872415Y-14177888D02*
X11862891Y-14196936D01*
X11862891Y-14196936D02*
X11853367Y-14206460D01*
X11853367Y-14206460D02*
X11834320Y-14215984D01*
X11834320Y-14215984D02*
X11815272Y-14215984D01*
X11815272Y-14215984D02*
X11796224Y-14206460D01*
X11796224Y-14206460D02*
X11786701Y-14196936D01*
X11786701Y-14196936D02*
X11777177Y-14177888D01*
X11777177Y-14177888D02*
X11767653Y-14139793D01*
X11767653Y-14139793D02*
X11767653Y-14092174D01*
X11767653Y-14092174D02*
X11777177Y-14054079D01*
X11777177Y-14054079D02*
X11786701Y-14035031D01*
X11786701Y-14035031D02*
X11796224Y-14025508D01*
X11796224Y-14025508D02*
X11815272Y-14015984D01*
X11967653Y-14196936D02*
X11977177Y-14206460D01*
X11977177Y-14206460D02*
X11967653Y-14215984D01*
X11967653Y-14215984D02*
X11958129Y-14206460D01*
X11958129Y-14206460D02*
X11967653Y-14196936D01*
X11967653Y-14196936D02*
X11967653Y-14215984D01*
X12072415Y-14215984D02*
X12110510Y-14215984D01*
X12110510Y-14215984D02*
X12129558Y-14206460D01*
X12129558Y-14206460D02*
X12139082Y-14196936D01*
X12139082Y-14196936D02*
X12158129Y-14168365D01*
X12158129Y-14168365D02*
X12167653Y-14130269D01*
X12167653Y-14130269D02*
X12167653Y-14054079D01*
X12167653Y-14054079D02*
X12158129Y-14035031D01*
X12158129Y-14035031D02*
X12148605Y-14025508D01*
X12148605Y-14025508D02*
X12129558Y-14015984D01*
X12129558Y-14015984D02*
X12091462Y-14015984D01*
X12091462Y-14015984D02*
X12072415Y-14025508D01*
X12072415Y-14025508D02*
X12062891Y-14035031D01*
X12062891Y-14035031D02*
X12053367Y-14054079D01*
X12053367Y-14054079D02*
X12053367Y-14101698D01*
X12053367Y-14101698D02*
X12062891Y-14120746D01*
X12062891Y-14120746D02*
X12072415Y-14130269D01*
X12072415Y-14130269D02*
X12091462Y-14139793D01*
X12091462Y-14139793D02*
X12129558Y-14139793D01*
X12129558Y-14139793D02*
X12148605Y-14130269D01*
X12148605Y-14130269D02*
X12158129Y-14120746D01*
X12158129Y-14120746D02*
X12167653Y-14101698D01*
X12291462Y-14015984D02*
X12310510Y-14015984D01*
X12310510Y-14015984D02*
X12329558Y-14025508D01*
X12329558Y-14025508D02*
X12339082Y-14035031D01*
X12339082Y-14035031D02*
X12348605Y-14054079D01*
X12348605Y-14054079D02*
X12358129Y-14092174D01*
X12358129Y-14092174D02*
X12358129Y-14139793D01*
X12358129Y-14139793D02*
X12348605Y-14177888D01*
X12348605Y-14177888D02*
X12339082Y-14196936D01*
X12339082Y-14196936D02*
X12329558Y-14206460D01*
X12329558Y-14206460D02*
X12310510Y-14215984D01*
X12310510Y-14215984D02*
X12291462Y-14215984D01*
X12291462Y-14215984D02*
X12272415Y-14206460D01*
X12272415Y-14206460D02*
X12262891Y-14196936D01*
X12262891Y-14196936D02*
X12253367Y-14177888D01*
X12253367Y-14177888D02*
X12243843Y-14139793D01*
X12243843Y-14139793D02*
X12243843Y-14092174D01*
X12243843Y-14092174D02*
X12253367Y-14054079D01*
X12253367Y-14054079D02*
X12262891Y-14035031D01*
X12262891Y-14035031D02*
X12272415Y-14025508D01*
X12272415Y-14025508D02*
X12291462Y-14015984D01*
X12481939Y-14015984D02*
X12500986Y-14015984D01*
X12500986Y-14015984D02*
X12520034Y-14025508D01*
X12520034Y-14025508D02*
X12529558Y-14035031D01*
X12529558Y-14035031D02*
X12539082Y-14054079D01*
X12539082Y-14054079D02*
X12548605Y-14092174D01*
X12548605Y-14092174D02*
X12548605Y-14139793D01*
X12548605Y-14139793D02*
X12539082Y-14177888D01*
X12539082Y-14177888D02*
X12529558Y-14196936D01*
X12529558Y-14196936D02*
X12520034Y-14206460D01*
X12520034Y-14206460D02*
X12500986Y-14215984D01*
X12500986Y-14215984D02*
X12481939Y-14215984D01*
X12481939Y-14215984D02*
X12462891Y-14206460D01*
X12462891Y-14206460D02*
X12453367Y-14196936D01*
X12453367Y-14196936D02*
X12443843Y-14177888D01*
X12443843Y-14177888D02*
X12434320Y-14139793D01*
X12434320Y-14139793D02*
X12434320Y-14092174D01*
X12434320Y-14092174D02*
X12443843Y-14054079D01*
X12443843Y-14054079D02*
X12453367Y-14035031D01*
X12453367Y-14035031D02*
X12462891Y-14025508D01*
X12462891Y-14025508D02*
X12481939Y-14015984D01*
X12634320Y-14215984D02*
X12634320Y-14082650D01*
X12634320Y-14101698D02*
X12643843Y-14092174D01*
X12643843Y-14092174D02*
X12662891Y-14082650D01*
X12662891Y-14082650D02*
X12691463Y-14082650D01*
X12691463Y-14082650D02*
X12710510Y-14092174D01*
X12710510Y-14092174D02*
X12720034Y-14111222D01*
X12720034Y-14111222D02*
X12720034Y-14215984D01*
X12720034Y-14111222D02*
X12729558Y-14092174D01*
X12729558Y-14092174D02*
X12748605Y-14082650D01*
X12748605Y-14082650D02*
X12777177Y-14082650D01*
X12777177Y-14082650D02*
X12796224Y-14092174D01*
X12796224Y-14092174D02*
X12805748Y-14111222D01*
X12805748Y-14111222D02*
X12805748Y-14215984D01*
X12900986Y-14215984D02*
X12900986Y-14082650D01*
X12900986Y-14101698D02*
X12910510Y-14092174D01*
X12910510Y-14092174D02*
X12929558Y-14082650D01*
X12929558Y-14082650D02*
X12958129Y-14082650D01*
X12958129Y-14082650D02*
X12977177Y-14092174D01*
X12977177Y-14092174D02*
X12986701Y-14111222D01*
X12986701Y-14111222D02*
X12986701Y-14215984D01*
X12986701Y-14111222D02*
X12996224Y-14092174D01*
X12996224Y-14092174D02*
X13015272Y-14082650D01*
X13015272Y-14082650D02*
X13043843Y-14082650D01*
X13043843Y-14082650D02*
X13062891Y-14092174D01*
X13062891Y-14092174D02*
X13072415Y-14111222D01*
X13072415Y-14111222D02*
X13072415Y-14215984D01*
X13462891Y-14006460D02*
X13291463Y-14263603D01*
X13720034Y-14015984D02*
X13739082Y-14015984D01*
X13739082Y-14015984D02*
X13758129Y-14025508D01*
X13758129Y-14025508D02*
X13767653Y-14035031D01*
X13767653Y-14035031D02*
X13777177Y-14054079D01*
X13777177Y-14054079D02*
X13786701Y-14092174D01*
X13786701Y-14092174D02*
X13786701Y-14139793D01*
X13786701Y-14139793D02*
X13777177Y-14177888D01*
X13777177Y-14177888D02*
X13767653Y-14196936D01*
X13767653Y-14196936D02*
X13758129Y-14206460D01*
X13758129Y-14206460D02*
X13739082Y-14215984D01*
X13739082Y-14215984D02*
X13720034Y-14215984D01*
X13720034Y-14215984D02*
X13700986Y-14206460D01*
X13700986Y-14206460D02*
X13691463Y-14196936D01*
X13691463Y-14196936D02*
X13681939Y-14177888D01*
X13681939Y-14177888D02*
X13672415Y-14139793D01*
X13672415Y-14139793D02*
X13672415Y-14092174D01*
X13672415Y-14092174D02*
X13681939Y-14054079D01*
X13681939Y-14054079D02*
X13691463Y-14035031D01*
X13691463Y-14035031D02*
X13700986Y-14025508D01*
X13700986Y-14025508D02*
X13720034Y-14015984D01*
X13872415Y-14196936D02*
X13881939Y-14206460D01*
X13881939Y-14206460D02*
X13872415Y-14215984D01*
X13872415Y-14215984D02*
X13862891Y-14206460D01*
X13862891Y-14206460D02*
X13872415Y-14196936D01*
X13872415Y-14196936D02*
X13872415Y-14215984D01*
X14005748Y-14015984D02*
X14024796Y-14015984D01*
X14024796Y-14015984D02*
X14043844Y-14025508D01*
X14043844Y-14025508D02*
X14053367Y-14035031D01*
X14053367Y-14035031D02*
X14062891Y-14054079D01*
X14062891Y-14054079D02*
X14072415Y-14092174D01*
X14072415Y-14092174D02*
X14072415Y-14139793D01*
X14072415Y-14139793D02*
X14062891Y-14177888D01*
X14062891Y-14177888D02*
X14053367Y-14196936D01*
X14053367Y-14196936D02*
X14043844Y-14206460D01*
X14043844Y-14206460D02*
X14024796Y-14215984D01*
X14024796Y-14215984D02*
X14005748Y-14215984D01*
X14005748Y-14215984D02*
X13986701Y-14206460D01*
X13986701Y-14206460D02*
X13977177Y-14196936D01*
X13977177Y-14196936D02*
X13967653Y-14177888D01*
X13967653Y-14177888D02*
X13958129Y-14139793D01*
X13958129Y-14139793D02*
X13958129Y-14092174D01*
X13958129Y-14092174D02*
X13967653Y-14054079D01*
X13967653Y-14054079D02*
X13977177Y-14035031D01*
X13977177Y-14035031D02*
X13986701Y-14025508D01*
X13986701Y-14025508D02*
X14005748Y-14015984D01*
X14139082Y-14015984D02*
X14262891Y-14015984D01*
X14262891Y-14015984D02*
X14196225Y-14092174D01*
X14196225Y-14092174D02*
X14224796Y-14092174D01*
X14224796Y-14092174D02*
X14243844Y-14101698D01*
X14243844Y-14101698D02*
X14253367Y-14111222D01*
X14253367Y-14111222D02*
X14262891Y-14130269D01*
X14262891Y-14130269D02*
X14262891Y-14177888D01*
X14262891Y-14177888D02*
X14253367Y-14196936D01*
X14253367Y-14196936D02*
X14243844Y-14206460D01*
X14243844Y-14206460D02*
X14224796Y-14215984D01*
X14224796Y-14215984D02*
X14167653Y-14215984D01*
X14167653Y-14215984D02*
X14148606Y-14206460D01*
X14148606Y-14206460D02*
X14139082Y-14196936D01*
X14443844Y-14015984D02*
X14348606Y-14015984D01*
X14348606Y-14015984D02*
X14339082Y-14111222D01*
X14339082Y-14111222D02*
X14348606Y-14101698D01*
X14348606Y-14101698D02*
X14367653Y-14092174D01*
X14367653Y-14092174D02*
X14415272Y-14092174D01*
X14415272Y-14092174D02*
X14434320Y-14101698D01*
X14434320Y-14101698D02*
X14443844Y-14111222D01*
X14443844Y-14111222D02*
X14453367Y-14130269D01*
X14453367Y-14130269D02*
X14453367Y-14177888D01*
X14453367Y-14177888D02*
X14443844Y-14196936D01*
X14443844Y-14196936D02*
X14434320Y-14206460D01*
X14434320Y-14206460D02*
X14415272Y-14215984D01*
X14415272Y-14215984D02*
X14367653Y-14215984D01*
X14367653Y-14215984D02*
X14348606Y-14206460D01*
X14348606Y-14206460D02*
X14339082Y-14196936D01*
X14624796Y-14082650D02*
X14624796Y-14215984D01*
X14577177Y-14006460D02*
X14529558Y-14149317D01*
X14529558Y-14149317D02*
X14653367Y-14149317D01*
X14720034Y-14015984D02*
X14720034Y-14054079D01*
X14796225Y-14015984D02*
X14796225Y-14054079D01*
X15091463Y-14292174D02*
X15081939Y-14282650D01*
X15081939Y-14282650D02*
X15062891Y-14254079D01*
X15062891Y-14254079D02*
X15053368Y-14235031D01*
X15053368Y-14235031D02*
X15043844Y-14206460D01*
X15043844Y-14206460D02*
X15034320Y-14158841D01*
X15034320Y-14158841D02*
X15034320Y-14120746D01*
X15034320Y-14120746D02*
X15043844Y-14073127D01*
X15043844Y-14073127D02*
X15053368Y-14044555D01*
X15053368Y-14044555D02*
X15062891Y-14025508D01*
X15062891Y-14025508D02*
X15081939Y-13996936D01*
X15081939Y-13996936D02*
X15091463Y-13987412D01*
X15272415Y-14215984D02*
X15158129Y-14215984D01*
X15215272Y-14215984D02*
X15215272Y-14015984D01*
X15215272Y-14015984D02*
X15196225Y-14044555D01*
X15196225Y-14044555D02*
X15177177Y-14063603D01*
X15177177Y-14063603D02*
X15158129Y-14073127D01*
X15396225Y-14015984D02*
X15415272Y-14015984D01*
X15415272Y-14015984D02*
X15434320Y-14025508D01*
X15434320Y-14025508D02*
X15443844Y-14035031D01*
X15443844Y-14035031D02*
X15453368Y-14054079D01*
X15453368Y-14054079D02*
X15462891Y-14092174D01*
X15462891Y-14092174D02*
X15462891Y-14139793D01*
X15462891Y-14139793D02*
X15453368Y-14177888D01*
X15453368Y-14177888D02*
X15443844Y-14196936D01*
X15443844Y-14196936D02*
X15434320Y-14206460D01*
X15434320Y-14206460D02*
X15415272Y-14215984D01*
X15415272Y-14215984D02*
X15396225Y-14215984D01*
X15396225Y-14215984D02*
X15377177Y-14206460D01*
X15377177Y-14206460D02*
X15367653Y-14196936D01*
X15367653Y-14196936D02*
X15358129Y-14177888D01*
X15358129Y-14177888D02*
X15348606Y-14139793D01*
X15348606Y-14139793D02*
X15348606Y-14092174D01*
X15348606Y-14092174D02*
X15358129Y-14054079D01*
X15358129Y-14054079D02*
X15367653Y-14035031D01*
X15367653Y-14035031D02*
X15377177Y-14025508D01*
X15377177Y-14025508D02*
X15396225Y-14015984D01*
X15700987Y-14215984D02*
X15700987Y-14015984D01*
X15786701Y-14215984D02*
X15786701Y-14111222D01*
X15786701Y-14111222D02*
X15777177Y-14092174D01*
X15777177Y-14092174D02*
X15758130Y-14082650D01*
X15758130Y-14082650D02*
X15729558Y-14082650D01*
X15729558Y-14082650D02*
X15710510Y-14092174D01*
X15710510Y-14092174D02*
X15700987Y-14101698D01*
X15910510Y-14215984D02*
X15891463Y-14206460D01*
X15891463Y-14206460D02*
X15881939Y-14196936D01*
X15881939Y-14196936D02*
X15872415Y-14177888D01*
X15872415Y-14177888D02*
X15872415Y-14120746D01*
X15872415Y-14120746D02*
X15881939Y-14101698D01*
X15881939Y-14101698D02*
X15891463Y-14092174D01*
X15891463Y-14092174D02*
X15910510Y-14082650D01*
X15910510Y-14082650D02*
X15939082Y-14082650D01*
X15939082Y-14082650D02*
X15958130Y-14092174D01*
X15958130Y-14092174D02*
X15967653Y-14101698D01*
X15967653Y-14101698D02*
X15977177Y-14120746D01*
X15977177Y-14120746D02*
X15977177Y-14177888D01*
X15977177Y-14177888D02*
X15967653Y-14196936D01*
X15967653Y-14196936D02*
X15958130Y-14206460D01*
X15958130Y-14206460D02*
X15939082Y-14215984D01*
X15939082Y-14215984D02*
X15910510Y-14215984D01*
X16091463Y-14215984D02*
X16072415Y-14206460D01*
X16072415Y-14206460D02*
X16062891Y-14187412D01*
X16062891Y-14187412D02*
X16062891Y-14015984D01*
X16243844Y-14206460D02*
X16224796Y-14215984D01*
X16224796Y-14215984D02*
X16186701Y-14215984D01*
X16186701Y-14215984D02*
X16167653Y-14206460D01*
X16167653Y-14206460D02*
X16158130Y-14187412D01*
X16158130Y-14187412D02*
X16158130Y-14111222D01*
X16158130Y-14111222D02*
X16167653Y-14092174D01*
X16167653Y-14092174D02*
X16186701Y-14082650D01*
X16186701Y-14082650D02*
X16224796Y-14082650D01*
X16224796Y-14082650D02*
X16243844Y-14092174D01*
X16243844Y-14092174D02*
X16253368Y-14111222D01*
X16253368Y-14111222D02*
X16253368Y-14130269D01*
X16253368Y-14130269D02*
X16158130Y-14149317D01*
X16329558Y-14206460D02*
X16348606Y-14215984D01*
X16348606Y-14215984D02*
X16386701Y-14215984D01*
X16386701Y-14215984D02*
X16405749Y-14206460D01*
X16405749Y-14206460D02*
X16415272Y-14187412D01*
X16415272Y-14187412D02*
X16415272Y-14177888D01*
X16415272Y-14177888D02*
X16405749Y-14158841D01*
X16405749Y-14158841D02*
X16386701Y-14149317D01*
X16386701Y-14149317D02*
X16358130Y-14149317D01*
X16358130Y-14149317D02*
X16339082Y-14139793D01*
X16339082Y-14139793D02*
X16329558Y-14120746D01*
X16329558Y-14120746D02*
X16329558Y-14111222D01*
X16329558Y-14111222D02*
X16339082Y-14092174D01*
X16339082Y-14092174D02*
X16358130Y-14082650D01*
X16358130Y-14082650D02*
X16386701Y-14082650D01*
X16386701Y-14082650D02*
X16405749Y-14092174D01*
X16481939Y-14292174D02*
X16491463Y-14282650D01*
X16491463Y-14282650D02*
X16510511Y-14254079D01*
X16510511Y-14254079D02*
X16520034Y-14235031D01*
X16520034Y-14235031D02*
X16529558Y-14206460D01*
X16529558Y-14206460D02*
X16539082Y-14158841D01*
X16539082Y-14158841D02*
X16539082Y-14120746D01*
X16539082Y-14120746D02*
X16529558Y-14073127D01*
X16529558Y-14073127D02*
X16520034Y-14044555D01*
X16520034Y-14044555D02*
X16510511Y-14025508D01*
X16510511Y-14025508D02*
X16491463Y-13996936D01*
X16491463Y-13996936D02*
X16481939Y-13987412D01*
D12*
X11501756Y-14423856D02*
X11501756Y-14353144D01*
X11431044Y-14353144D01*
X11431044Y-14423856D01*
X11501756Y-14423856D01*
D11*
X11881939Y-14479984D02*
X11767653Y-14479984D01*
X11824796Y-14479984D02*
X11824796Y-14279984D01*
X11824796Y-14279984D02*
X11805748Y-14308555D01*
X11805748Y-14308555D02*
X11786701Y-14327603D01*
X11786701Y-14327603D02*
X11767653Y-14337127D01*
X11967653Y-14460936D02*
X11977177Y-14470460D01*
X11977177Y-14470460D02*
X11967653Y-14479984D01*
X11967653Y-14479984D02*
X11958129Y-14470460D01*
X11958129Y-14470460D02*
X11967653Y-14460936D01*
X11967653Y-14460936D02*
X11967653Y-14479984D01*
X12100986Y-14279984D02*
X12120034Y-14279984D01*
X12120034Y-14279984D02*
X12139082Y-14289508D01*
X12139082Y-14289508D02*
X12148605Y-14299031D01*
X12148605Y-14299031D02*
X12158129Y-14318079D01*
X12158129Y-14318079D02*
X12167653Y-14356174D01*
X12167653Y-14356174D02*
X12167653Y-14403793D01*
X12167653Y-14403793D02*
X12158129Y-14441888D01*
X12158129Y-14441888D02*
X12148605Y-14460936D01*
X12148605Y-14460936D02*
X12139082Y-14470460D01*
X12139082Y-14470460D02*
X12120034Y-14479984D01*
X12120034Y-14479984D02*
X12100986Y-14479984D01*
X12100986Y-14479984D02*
X12081939Y-14470460D01*
X12081939Y-14470460D02*
X12072415Y-14460936D01*
X12072415Y-14460936D02*
X12062891Y-14441888D01*
X12062891Y-14441888D02*
X12053367Y-14403793D01*
X12053367Y-14403793D02*
X12053367Y-14356174D01*
X12053367Y-14356174D02*
X12062891Y-14318079D01*
X12062891Y-14318079D02*
X12072415Y-14299031D01*
X12072415Y-14299031D02*
X12081939Y-14289508D01*
X12081939Y-14289508D02*
X12100986Y-14279984D01*
X12291462Y-14279984D02*
X12310510Y-14279984D01*
X12310510Y-14279984D02*
X12329558Y-14289508D01*
X12329558Y-14289508D02*
X12339082Y-14299031D01*
X12339082Y-14299031D02*
X12348605Y-14318079D01*
X12348605Y-14318079D02*
X12358129Y-14356174D01*
X12358129Y-14356174D02*
X12358129Y-14403793D01*
X12358129Y-14403793D02*
X12348605Y-14441888D01*
X12348605Y-14441888D02*
X12339082Y-14460936D01*
X12339082Y-14460936D02*
X12329558Y-14470460D01*
X12329558Y-14470460D02*
X12310510Y-14479984D01*
X12310510Y-14479984D02*
X12291462Y-14479984D01*
X12291462Y-14479984D02*
X12272415Y-14470460D01*
X12272415Y-14470460D02*
X12262891Y-14460936D01*
X12262891Y-14460936D02*
X12253367Y-14441888D01*
X12253367Y-14441888D02*
X12243843Y-14403793D01*
X12243843Y-14403793D02*
X12243843Y-14356174D01*
X12243843Y-14356174D02*
X12253367Y-14318079D01*
X12253367Y-14318079D02*
X12262891Y-14299031D01*
X12262891Y-14299031D02*
X12272415Y-14289508D01*
X12272415Y-14289508D02*
X12291462Y-14279984D01*
X12481939Y-14279984D02*
X12500986Y-14279984D01*
X12500986Y-14279984D02*
X12520034Y-14289508D01*
X12520034Y-14289508D02*
X12529558Y-14299031D01*
X12529558Y-14299031D02*
X12539082Y-14318079D01*
X12539082Y-14318079D02*
X12548605Y-14356174D01*
X12548605Y-14356174D02*
X12548605Y-14403793D01*
X12548605Y-14403793D02*
X12539082Y-14441888D01*
X12539082Y-14441888D02*
X12529558Y-14460936D01*
X12529558Y-14460936D02*
X12520034Y-14470460D01*
X12520034Y-14470460D02*
X12500986Y-14479984D01*
X12500986Y-14479984D02*
X12481939Y-14479984D01*
X12481939Y-14479984D02*
X12462891Y-14470460D01*
X12462891Y-14470460D02*
X12453367Y-14460936D01*
X12453367Y-14460936D02*
X12443843Y-14441888D01*
X12443843Y-14441888D02*
X12434320Y-14403793D01*
X12434320Y-14403793D02*
X12434320Y-14356174D01*
X12434320Y-14356174D02*
X12443843Y-14318079D01*
X12443843Y-14318079D02*
X12453367Y-14299031D01*
X12453367Y-14299031D02*
X12462891Y-14289508D01*
X12462891Y-14289508D02*
X12481939Y-14279984D01*
X12634320Y-14479984D02*
X12634320Y-14346650D01*
X12634320Y-14365698D02*
X12643843Y-14356174D01*
X12643843Y-14356174D02*
X12662891Y-14346650D01*
X12662891Y-14346650D02*
X12691463Y-14346650D01*
X12691463Y-14346650D02*
X12710510Y-14356174D01*
X12710510Y-14356174D02*
X12720034Y-14375222D01*
X12720034Y-14375222D02*
X12720034Y-14479984D01*
X12720034Y-14375222D02*
X12729558Y-14356174D01*
X12729558Y-14356174D02*
X12748605Y-14346650D01*
X12748605Y-14346650D02*
X12777177Y-14346650D01*
X12777177Y-14346650D02*
X12796224Y-14356174D01*
X12796224Y-14356174D02*
X12805748Y-14375222D01*
X12805748Y-14375222D02*
X12805748Y-14479984D01*
X12900986Y-14479984D02*
X12900986Y-14346650D01*
X12900986Y-14365698D02*
X12910510Y-14356174D01*
X12910510Y-14356174D02*
X12929558Y-14346650D01*
X12929558Y-14346650D02*
X12958129Y-14346650D01*
X12958129Y-14346650D02*
X12977177Y-14356174D01*
X12977177Y-14356174D02*
X12986701Y-14375222D01*
X12986701Y-14375222D02*
X12986701Y-14479984D01*
X12986701Y-14375222D02*
X12996224Y-14356174D01*
X12996224Y-14356174D02*
X13015272Y-14346650D01*
X13015272Y-14346650D02*
X13043843Y-14346650D01*
X13043843Y-14346650D02*
X13062891Y-14356174D01*
X13062891Y-14356174D02*
X13072415Y-14375222D01*
X13072415Y-14375222D02*
X13072415Y-14479984D01*
X13462891Y-14270460D02*
X13291463Y-14527603D01*
X13720034Y-14279984D02*
X13739082Y-14279984D01*
X13739082Y-14279984D02*
X13758129Y-14289508D01*
X13758129Y-14289508D02*
X13767653Y-14299031D01*
X13767653Y-14299031D02*
X13777177Y-14318079D01*
X13777177Y-14318079D02*
X13786701Y-14356174D01*
X13786701Y-14356174D02*
X13786701Y-14403793D01*
X13786701Y-14403793D02*
X13777177Y-14441888D01*
X13777177Y-14441888D02*
X13767653Y-14460936D01*
X13767653Y-14460936D02*
X13758129Y-14470460D01*
X13758129Y-14470460D02*
X13739082Y-14479984D01*
X13739082Y-14479984D02*
X13720034Y-14479984D01*
X13720034Y-14479984D02*
X13700986Y-14470460D01*
X13700986Y-14470460D02*
X13691463Y-14460936D01*
X13691463Y-14460936D02*
X13681939Y-14441888D01*
X13681939Y-14441888D02*
X13672415Y-14403793D01*
X13672415Y-14403793D02*
X13672415Y-14356174D01*
X13672415Y-14356174D02*
X13681939Y-14318079D01*
X13681939Y-14318079D02*
X13691463Y-14299031D01*
X13691463Y-14299031D02*
X13700986Y-14289508D01*
X13700986Y-14289508D02*
X13720034Y-14279984D01*
X13872415Y-14460936D02*
X13881939Y-14470460D01*
X13881939Y-14470460D02*
X13872415Y-14479984D01*
X13872415Y-14479984D02*
X13862891Y-14470460D01*
X13862891Y-14470460D02*
X13872415Y-14460936D01*
X13872415Y-14460936D02*
X13872415Y-14479984D01*
X14005748Y-14279984D02*
X14024796Y-14279984D01*
X14024796Y-14279984D02*
X14043844Y-14289508D01*
X14043844Y-14289508D02*
X14053367Y-14299031D01*
X14053367Y-14299031D02*
X14062891Y-14318079D01*
X14062891Y-14318079D02*
X14072415Y-14356174D01*
X14072415Y-14356174D02*
X14072415Y-14403793D01*
X14072415Y-14403793D02*
X14062891Y-14441888D01*
X14062891Y-14441888D02*
X14053367Y-14460936D01*
X14053367Y-14460936D02*
X14043844Y-14470460D01*
X14043844Y-14470460D02*
X14024796Y-14479984D01*
X14024796Y-14479984D02*
X14005748Y-14479984D01*
X14005748Y-14479984D02*
X13986701Y-14470460D01*
X13986701Y-14470460D02*
X13977177Y-14460936D01*
X13977177Y-14460936D02*
X13967653Y-14441888D01*
X13967653Y-14441888D02*
X13958129Y-14403793D01*
X13958129Y-14403793D02*
X13958129Y-14356174D01*
X13958129Y-14356174D02*
X13967653Y-14318079D01*
X13967653Y-14318079D02*
X13977177Y-14299031D01*
X13977177Y-14299031D02*
X13986701Y-14289508D01*
X13986701Y-14289508D02*
X14005748Y-14279984D01*
X14139082Y-14279984D02*
X14262891Y-14279984D01*
X14262891Y-14279984D02*
X14196225Y-14356174D01*
X14196225Y-14356174D02*
X14224796Y-14356174D01*
X14224796Y-14356174D02*
X14243844Y-14365698D01*
X14243844Y-14365698D02*
X14253367Y-14375222D01*
X14253367Y-14375222D02*
X14262891Y-14394269D01*
X14262891Y-14394269D02*
X14262891Y-14441888D01*
X14262891Y-14441888D02*
X14253367Y-14460936D01*
X14253367Y-14460936D02*
X14243844Y-14470460D01*
X14243844Y-14470460D02*
X14224796Y-14479984D01*
X14224796Y-14479984D02*
X14167653Y-14479984D01*
X14167653Y-14479984D02*
X14148606Y-14470460D01*
X14148606Y-14470460D02*
X14139082Y-14460936D01*
X14358129Y-14479984D02*
X14396225Y-14479984D01*
X14396225Y-14479984D02*
X14415272Y-14470460D01*
X14415272Y-14470460D02*
X14424796Y-14460936D01*
X14424796Y-14460936D02*
X14443844Y-14432365D01*
X14443844Y-14432365D02*
X14453367Y-14394269D01*
X14453367Y-14394269D02*
X14453367Y-14318079D01*
X14453367Y-14318079D02*
X14443844Y-14299031D01*
X14443844Y-14299031D02*
X14434320Y-14289508D01*
X14434320Y-14289508D02*
X14415272Y-14279984D01*
X14415272Y-14279984D02*
X14377177Y-14279984D01*
X14377177Y-14279984D02*
X14358129Y-14289508D01*
X14358129Y-14289508D02*
X14348606Y-14299031D01*
X14348606Y-14299031D02*
X14339082Y-14318079D01*
X14339082Y-14318079D02*
X14339082Y-14365698D01*
X14339082Y-14365698D02*
X14348606Y-14384746D01*
X14348606Y-14384746D02*
X14358129Y-14394269D01*
X14358129Y-14394269D02*
X14377177Y-14403793D01*
X14377177Y-14403793D02*
X14415272Y-14403793D01*
X14415272Y-14403793D02*
X14434320Y-14394269D01*
X14434320Y-14394269D02*
X14443844Y-14384746D01*
X14443844Y-14384746D02*
X14453367Y-14365698D01*
X14624796Y-14346650D02*
X14624796Y-14479984D01*
X14577177Y-14270460D02*
X14529558Y-14413317D01*
X14529558Y-14413317D02*
X14653367Y-14413317D01*
X14720034Y-14279984D02*
X14720034Y-14318079D01*
X14796225Y-14279984D02*
X14796225Y-14318079D01*
X15091463Y-14556174D02*
X15081939Y-14546650D01*
X15081939Y-14546650D02*
X15062891Y-14518079D01*
X15062891Y-14518079D02*
X15053368Y-14499031D01*
X15053368Y-14499031D02*
X15043844Y-14470460D01*
X15043844Y-14470460D02*
X15034320Y-14422841D01*
X15034320Y-14422841D02*
X15034320Y-14384746D01*
X15034320Y-14384746D02*
X15043844Y-14337127D01*
X15043844Y-14337127D02*
X15053368Y-14308555D01*
X15053368Y-14308555D02*
X15062891Y-14289508D01*
X15062891Y-14289508D02*
X15081939Y-14260936D01*
X15081939Y-14260936D02*
X15091463Y-14251412D01*
X15158129Y-14299031D02*
X15167653Y-14289508D01*
X15167653Y-14289508D02*
X15186701Y-14279984D01*
X15186701Y-14279984D02*
X15234320Y-14279984D01*
X15234320Y-14279984D02*
X15253368Y-14289508D01*
X15253368Y-14289508D02*
X15262891Y-14299031D01*
X15262891Y-14299031D02*
X15272415Y-14318079D01*
X15272415Y-14318079D02*
X15272415Y-14337127D01*
X15272415Y-14337127D02*
X15262891Y-14365698D01*
X15262891Y-14365698D02*
X15148606Y-14479984D01*
X15148606Y-14479984D02*
X15272415Y-14479984D01*
X15396225Y-14279984D02*
X15415272Y-14279984D01*
X15415272Y-14279984D02*
X15434320Y-14289508D01*
X15434320Y-14289508D02*
X15443844Y-14299031D01*
X15443844Y-14299031D02*
X15453368Y-14318079D01*
X15453368Y-14318079D02*
X15462891Y-14356174D01*
X15462891Y-14356174D02*
X15462891Y-14403793D01*
X15462891Y-14403793D02*
X15453368Y-14441888D01*
X15453368Y-14441888D02*
X15443844Y-14460936D01*
X15443844Y-14460936D02*
X15434320Y-14470460D01*
X15434320Y-14470460D02*
X15415272Y-14479984D01*
X15415272Y-14479984D02*
X15396225Y-14479984D01*
X15396225Y-14479984D02*
X15377177Y-14470460D01*
X15377177Y-14470460D02*
X15367653Y-14460936D01*
X15367653Y-14460936D02*
X15358129Y-14441888D01*
X15358129Y-14441888D02*
X15348606Y-14403793D01*
X15348606Y-14403793D02*
X15348606Y-14356174D01*
X15348606Y-14356174D02*
X15358129Y-14318079D01*
X15358129Y-14318079D02*
X15367653Y-14299031D01*
X15367653Y-14299031D02*
X15377177Y-14289508D01*
X15377177Y-14289508D02*
X15396225Y-14279984D01*
X15700987Y-14479984D02*
X15700987Y-14279984D01*
X15786701Y-14479984D02*
X15786701Y-14375222D01*
X15786701Y-14375222D02*
X15777177Y-14356174D01*
X15777177Y-14356174D02*
X15758130Y-14346650D01*
X15758130Y-14346650D02*
X15729558Y-14346650D01*
X15729558Y-14346650D02*
X15710510Y-14356174D01*
X15710510Y-14356174D02*
X15700987Y-14365698D01*
X15910510Y-14479984D02*
X15891463Y-14470460D01*
X15891463Y-14470460D02*
X15881939Y-14460936D01*
X15881939Y-14460936D02*
X15872415Y-14441888D01*
X15872415Y-14441888D02*
X15872415Y-14384746D01*
X15872415Y-14384746D02*
X15881939Y-14365698D01*
X15881939Y-14365698D02*
X15891463Y-14356174D01*
X15891463Y-14356174D02*
X15910510Y-14346650D01*
X15910510Y-14346650D02*
X15939082Y-14346650D01*
X15939082Y-14346650D02*
X15958130Y-14356174D01*
X15958130Y-14356174D02*
X15967653Y-14365698D01*
X15967653Y-14365698D02*
X15977177Y-14384746D01*
X15977177Y-14384746D02*
X15977177Y-14441888D01*
X15977177Y-14441888D02*
X15967653Y-14460936D01*
X15967653Y-14460936D02*
X15958130Y-14470460D01*
X15958130Y-14470460D02*
X15939082Y-14479984D01*
X15939082Y-14479984D02*
X15910510Y-14479984D01*
X16091463Y-14479984D02*
X16072415Y-14470460D01*
X16072415Y-14470460D02*
X16062891Y-14451412D01*
X16062891Y-14451412D02*
X16062891Y-14279984D01*
X16243844Y-14470460D02*
X16224796Y-14479984D01*
X16224796Y-14479984D02*
X16186701Y-14479984D01*
X16186701Y-14479984D02*
X16167653Y-14470460D01*
X16167653Y-14470460D02*
X16158130Y-14451412D01*
X16158130Y-14451412D02*
X16158130Y-14375222D01*
X16158130Y-14375222D02*
X16167653Y-14356174D01*
X16167653Y-14356174D02*
X16186701Y-14346650D01*
X16186701Y-14346650D02*
X16224796Y-14346650D01*
X16224796Y-14346650D02*
X16243844Y-14356174D01*
X16243844Y-14356174D02*
X16253368Y-14375222D01*
X16253368Y-14375222D02*
X16253368Y-14394269D01*
X16253368Y-14394269D02*
X16158130Y-14413317D01*
X16329558Y-14470460D02*
X16348606Y-14479984D01*
X16348606Y-14479984D02*
X16386701Y-14479984D01*
X16386701Y-14479984D02*
X16405749Y-14470460D01*
X16405749Y-14470460D02*
X16415272Y-14451412D01*
X16415272Y-14451412D02*
X16415272Y-14441888D01*
X16415272Y-14441888D02*
X16405749Y-14422841D01*
X16405749Y-14422841D02*
X16386701Y-14413317D01*
X16386701Y-14413317D02*
X16358130Y-14413317D01*
X16358130Y-14413317D02*
X16339082Y-14403793D01*
X16339082Y-14403793D02*
X16329558Y-14384746D01*
X16329558Y-14384746D02*
X16329558Y-14375222D01*
X16329558Y-14375222D02*
X16339082Y-14356174D01*
X16339082Y-14356174D02*
X16358130Y-14346650D01*
X16358130Y-14346650D02*
X16386701Y-14346650D01*
X16386701Y-14346650D02*
X16405749Y-14356174D01*
X16653368Y-14403793D02*
X16805749Y-14403793D01*
X16729558Y-14479984D02*
X16729558Y-14327603D01*
X17034320Y-14279984D02*
X17158130Y-14279984D01*
X17158130Y-14279984D02*
X17091463Y-14356174D01*
X17091463Y-14356174D02*
X17120035Y-14356174D01*
X17120035Y-14356174D02*
X17139082Y-14365698D01*
X17139082Y-14365698D02*
X17148606Y-14375222D01*
X17148606Y-14375222D02*
X17158130Y-14394269D01*
X17158130Y-14394269D02*
X17158130Y-14441888D01*
X17158130Y-14441888D02*
X17148606Y-14460936D01*
X17148606Y-14460936D02*
X17139082Y-14470460D01*
X17139082Y-14470460D02*
X17120035Y-14479984D01*
X17120035Y-14479984D02*
X17062892Y-14479984D01*
X17062892Y-14479984D02*
X17043844Y-14470460D01*
X17043844Y-14470460D02*
X17034320Y-14460936D01*
X17386701Y-14470460D02*
X17405749Y-14479984D01*
X17405749Y-14479984D02*
X17443844Y-14479984D01*
X17443844Y-14479984D02*
X17462892Y-14470460D01*
X17462892Y-14470460D02*
X17472416Y-14451412D01*
X17472416Y-14451412D02*
X17472416Y-14441888D01*
X17472416Y-14441888D02*
X17462892Y-14422841D01*
X17462892Y-14422841D02*
X17443844Y-14413317D01*
X17443844Y-14413317D02*
X17415273Y-14413317D01*
X17415273Y-14413317D02*
X17396225Y-14403793D01*
X17396225Y-14403793D02*
X17386701Y-14384746D01*
X17386701Y-14384746D02*
X17386701Y-14375222D01*
X17386701Y-14375222D02*
X17396225Y-14356174D01*
X17396225Y-14356174D02*
X17415273Y-14346650D01*
X17415273Y-14346650D02*
X17443844Y-14346650D01*
X17443844Y-14346650D02*
X17462892Y-14356174D01*
X17586701Y-14479984D02*
X17567654Y-14470460D01*
X17567654Y-14470460D02*
X17558130Y-14451412D01*
X17558130Y-14451412D02*
X17558130Y-14279984D01*
X17691463Y-14479984D02*
X17672416Y-14470460D01*
X17672416Y-14470460D02*
X17662892Y-14460936D01*
X17662892Y-14460936D02*
X17653368Y-14441888D01*
X17653368Y-14441888D02*
X17653368Y-14384746D01*
X17653368Y-14384746D02*
X17662892Y-14365698D01*
X17662892Y-14365698D02*
X17672416Y-14356174D01*
X17672416Y-14356174D02*
X17691463Y-14346650D01*
X17691463Y-14346650D02*
X17720035Y-14346650D01*
X17720035Y-14346650D02*
X17739082Y-14356174D01*
X17739082Y-14356174D02*
X17748606Y-14365698D01*
X17748606Y-14365698D02*
X17758130Y-14384746D01*
X17758130Y-14384746D02*
X17758130Y-14441888D01*
X17758130Y-14441888D02*
X17748606Y-14460936D01*
X17748606Y-14460936D02*
X17739082Y-14470460D01*
X17739082Y-14470460D02*
X17720035Y-14479984D01*
X17720035Y-14479984D02*
X17691463Y-14479984D01*
X17815273Y-14346650D02*
X17891463Y-14346650D01*
X17843844Y-14279984D02*
X17843844Y-14451412D01*
X17843844Y-14451412D02*
X17853368Y-14470460D01*
X17853368Y-14470460D02*
X17872416Y-14479984D01*
X17872416Y-14479984D02*
X17891463Y-14479984D01*
X17948606Y-14470460D02*
X17967654Y-14479984D01*
X17967654Y-14479984D02*
X18005749Y-14479984D01*
X18005749Y-14479984D02*
X18024797Y-14470460D01*
X18024797Y-14470460D02*
X18034320Y-14451412D01*
X18034320Y-14451412D02*
X18034320Y-14441888D01*
X18034320Y-14441888D02*
X18024797Y-14422841D01*
X18024797Y-14422841D02*
X18005749Y-14413317D01*
X18005749Y-14413317D02*
X17977177Y-14413317D01*
X17977177Y-14413317D02*
X17958130Y-14403793D01*
X17958130Y-14403793D02*
X17948606Y-14384746D01*
X17948606Y-14384746D02*
X17948606Y-14375222D01*
X17948606Y-14375222D02*
X17958130Y-14356174D01*
X17958130Y-14356174D02*
X17977177Y-14346650D01*
X17977177Y-14346650D02*
X18005749Y-14346650D01*
X18005749Y-14346650D02*
X18024797Y-14356174D01*
X18100987Y-14556174D02*
X18110511Y-14546650D01*
X18110511Y-14546650D02*
X18129558Y-14518079D01*
X18129558Y-14518079D02*
X18139082Y-14499031D01*
X18139082Y-14499031D02*
X18148606Y-14470460D01*
X18148606Y-14470460D02*
X18158130Y-14422841D01*
X18158130Y-14422841D02*
X18158130Y-14384746D01*
X18158130Y-14384746D02*
X18148606Y-14337127D01*
X18148606Y-14337127D02*
X18139082Y-14308555D01*
X18139082Y-14308555D02*
X18129558Y-14289508D01*
X18129558Y-14289508D02*
X18110511Y-14260936D01*
X18110511Y-14260936D02*
X18100987Y-14251412D01*
D13*
X11461400Y-14707500D02*
X11516400Y-14652500D01*
X11461400Y-14597500D01*
X11406400Y-14652500D01*
X11461400Y-14707500D01*
D11*
X11881939Y-14743984D02*
X11767653Y-14743984D01*
X11824796Y-14743984D02*
X11824796Y-14543984D01*
X11824796Y-14543984D02*
X11805748Y-14572555D01*
X11805748Y-14572555D02*
X11786701Y-14591603D01*
X11786701Y-14591603D02*
X11767653Y-14601127D01*
X11967653Y-14724936D02*
X11977177Y-14734460D01*
X11977177Y-14734460D02*
X11967653Y-14743984D01*
X11967653Y-14743984D02*
X11958129Y-14734460D01*
X11958129Y-14734460D02*
X11967653Y-14724936D01*
X11967653Y-14724936D02*
X11967653Y-14743984D01*
X12167653Y-14743984D02*
X12053367Y-14743984D01*
X12110510Y-14743984D02*
X12110510Y-14543984D01*
X12110510Y-14543984D02*
X12091462Y-14572555D01*
X12091462Y-14572555D02*
X12072415Y-14591603D01*
X12072415Y-14591603D02*
X12053367Y-14601127D01*
X12291462Y-14543984D02*
X12310510Y-14543984D01*
X12310510Y-14543984D02*
X12329558Y-14553508D01*
X12329558Y-14553508D02*
X12339082Y-14563031D01*
X12339082Y-14563031D02*
X12348605Y-14582079D01*
X12348605Y-14582079D02*
X12358129Y-14620174D01*
X12358129Y-14620174D02*
X12358129Y-14667793D01*
X12358129Y-14667793D02*
X12348605Y-14705888D01*
X12348605Y-14705888D02*
X12339082Y-14724936D01*
X12339082Y-14724936D02*
X12329558Y-14734460D01*
X12329558Y-14734460D02*
X12310510Y-14743984D01*
X12310510Y-14743984D02*
X12291462Y-14743984D01*
X12291462Y-14743984D02*
X12272415Y-14734460D01*
X12272415Y-14734460D02*
X12262891Y-14724936D01*
X12262891Y-14724936D02*
X12253367Y-14705888D01*
X12253367Y-14705888D02*
X12243843Y-14667793D01*
X12243843Y-14667793D02*
X12243843Y-14620174D01*
X12243843Y-14620174D02*
X12253367Y-14582079D01*
X12253367Y-14582079D02*
X12262891Y-14563031D01*
X12262891Y-14563031D02*
X12272415Y-14553508D01*
X12272415Y-14553508D02*
X12291462Y-14543984D01*
X12481939Y-14543984D02*
X12500986Y-14543984D01*
X12500986Y-14543984D02*
X12520034Y-14553508D01*
X12520034Y-14553508D02*
X12529558Y-14563031D01*
X12529558Y-14563031D02*
X12539082Y-14582079D01*
X12539082Y-14582079D02*
X12548605Y-14620174D01*
X12548605Y-14620174D02*
X12548605Y-14667793D01*
X12548605Y-14667793D02*
X12539082Y-14705888D01*
X12539082Y-14705888D02*
X12529558Y-14724936D01*
X12529558Y-14724936D02*
X12520034Y-14734460D01*
X12520034Y-14734460D02*
X12500986Y-14743984D01*
X12500986Y-14743984D02*
X12481939Y-14743984D01*
X12481939Y-14743984D02*
X12462891Y-14734460D01*
X12462891Y-14734460D02*
X12453367Y-14724936D01*
X12453367Y-14724936D02*
X12443843Y-14705888D01*
X12443843Y-14705888D02*
X12434320Y-14667793D01*
X12434320Y-14667793D02*
X12434320Y-14620174D01*
X12434320Y-14620174D02*
X12443843Y-14582079D01*
X12443843Y-14582079D02*
X12453367Y-14563031D01*
X12453367Y-14563031D02*
X12462891Y-14553508D01*
X12462891Y-14553508D02*
X12481939Y-14543984D01*
X12634320Y-14743984D02*
X12634320Y-14610650D01*
X12634320Y-14629698D02*
X12643843Y-14620174D01*
X12643843Y-14620174D02*
X12662891Y-14610650D01*
X12662891Y-14610650D02*
X12691463Y-14610650D01*
X12691463Y-14610650D02*
X12710510Y-14620174D01*
X12710510Y-14620174D02*
X12720034Y-14639222D01*
X12720034Y-14639222D02*
X12720034Y-14743984D01*
X12720034Y-14639222D02*
X12729558Y-14620174D01*
X12729558Y-14620174D02*
X12748605Y-14610650D01*
X12748605Y-14610650D02*
X12777177Y-14610650D01*
X12777177Y-14610650D02*
X12796224Y-14620174D01*
X12796224Y-14620174D02*
X12805748Y-14639222D01*
X12805748Y-14639222D02*
X12805748Y-14743984D01*
X12900986Y-14743984D02*
X12900986Y-14610650D01*
X12900986Y-14629698D02*
X12910510Y-14620174D01*
X12910510Y-14620174D02*
X12929558Y-14610650D01*
X12929558Y-14610650D02*
X12958129Y-14610650D01*
X12958129Y-14610650D02*
X12977177Y-14620174D01*
X12977177Y-14620174D02*
X12986701Y-14639222D01*
X12986701Y-14639222D02*
X12986701Y-14743984D01*
X12986701Y-14639222D02*
X12996224Y-14620174D01*
X12996224Y-14620174D02*
X13015272Y-14610650D01*
X13015272Y-14610650D02*
X13043843Y-14610650D01*
X13043843Y-14610650D02*
X13062891Y-14620174D01*
X13062891Y-14620174D02*
X13072415Y-14639222D01*
X13072415Y-14639222D02*
X13072415Y-14743984D01*
X13462891Y-14534460D02*
X13291463Y-14791603D01*
X13720034Y-14543984D02*
X13739082Y-14543984D01*
X13739082Y-14543984D02*
X13758129Y-14553508D01*
X13758129Y-14553508D02*
X13767653Y-14563031D01*
X13767653Y-14563031D02*
X13777177Y-14582079D01*
X13777177Y-14582079D02*
X13786701Y-14620174D01*
X13786701Y-14620174D02*
X13786701Y-14667793D01*
X13786701Y-14667793D02*
X13777177Y-14705888D01*
X13777177Y-14705888D02*
X13767653Y-14724936D01*
X13767653Y-14724936D02*
X13758129Y-14734460D01*
X13758129Y-14734460D02*
X13739082Y-14743984D01*
X13739082Y-14743984D02*
X13720034Y-14743984D01*
X13720034Y-14743984D02*
X13700986Y-14734460D01*
X13700986Y-14734460D02*
X13691463Y-14724936D01*
X13691463Y-14724936D02*
X13681939Y-14705888D01*
X13681939Y-14705888D02*
X13672415Y-14667793D01*
X13672415Y-14667793D02*
X13672415Y-14620174D01*
X13672415Y-14620174D02*
X13681939Y-14582079D01*
X13681939Y-14582079D02*
X13691463Y-14563031D01*
X13691463Y-14563031D02*
X13700986Y-14553508D01*
X13700986Y-14553508D02*
X13720034Y-14543984D01*
X13872415Y-14724936D02*
X13881939Y-14734460D01*
X13881939Y-14734460D02*
X13872415Y-14743984D01*
X13872415Y-14743984D02*
X13862891Y-14734460D01*
X13862891Y-14734460D02*
X13872415Y-14724936D01*
X13872415Y-14724936D02*
X13872415Y-14743984D01*
X14005748Y-14543984D02*
X14024796Y-14543984D01*
X14024796Y-14543984D02*
X14043844Y-14553508D01*
X14043844Y-14553508D02*
X14053367Y-14563031D01*
X14053367Y-14563031D02*
X14062891Y-14582079D01*
X14062891Y-14582079D02*
X14072415Y-14620174D01*
X14072415Y-14620174D02*
X14072415Y-14667793D01*
X14072415Y-14667793D02*
X14062891Y-14705888D01*
X14062891Y-14705888D02*
X14053367Y-14724936D01*
X14053367Y-14724936D02*
X14043844Y-14734460D01*
X14043844Y-14734460D02*
X14024796Y-14743984D01*
X14024796Y-14743984D02*
X14005748Y-14743984D01*
X14005748Y-14743984D02*
X13986701Y-14734460D01*
X13986701Y-14734460D02*
X13977177Y-14724936D01*
X13977177Y-14724936D02*
X13967653Y-14705888D01*
X13967653Y-14705888D02*
X13958129Y-14667793D01*
X13958129Y-14667793D02*
X13958129Y-14620174D01*
X13958129Y-14620174D02*
X13967653Y-14582079D01*
X13967653Y-14582079D02*
X13977177Y-14563031D01*
X13977177Y-14563031D02*
X13986701Y-14553508D01*
X13986701Y-14553508D02*
X14005748Y-14543984D01*
X14243844Y-14610650D02*
X14243844Y-14743984D01*
X14196225Y-14534460D02*
X14148606Y-14677317D01*
X14148606Y-14677317D02*
X14272415Y-14677317D01*
X14329558Y-14543984D02*
X14453367Y-14543984D01*
X14453367Y-14543984D02*
X14386701Y-14620174D01*
X14386701Y-14620174D02*
X14415272Y-14620174D01*
X14415272Y-14620174D02*
X14434320Y-14629698D01*
X14434320Y-14629698D02*
X14443844Y-14639222D01*
X14443844Y-14639222D02*
X14453367Y-14658269D01*
X14453367Y-14658269D02*
X14453367Y-14705888D01*
X14453367Y-14705888D02*
X14443844Y-14724936D01*
X14443844Y-14724936D02*
X14434320Y-14734460D01*
X14434320Y-14734460D02*
X14415272Y-14743984D01*
X14415272Y-14743984D02*
X14358129Y-14743984D01*
X14358129Y-14743984D02*
X14339082Y-14734460D01*
X14339082Y-14734460D02*
X14329558Y-14724936D01*
X14520034Y-14543984D02*
X14643844Y-14543984D01*
X14643844Y-14543984D02*
X14577177Y-14620174D01*
X14577177Y-14620174D02*
X14605748Y-14620174D01*
X14605748Y-14620174D02*
X14624796Y-14629698D01*
X14624796Y-14629698D02*
X14634320Y-14639222D01*
X14634320Y-14639222D02*
X14643844Y-14658269D01*
X14643844Y-14658269D02*
X14643844Y-14705888D01*
X14643844Y-14705888D02*
X14634320Y-14724936D01*
X14634320Y-14724936D02*
X14624796Y-14734460D01*
X14624796Y-14734460D02*
X14605748Y-14743984D01*
X14605748Y-14743984D02*
X14548606Y-14743984D01*
X14548606Y-14743984D02*
X14529558Y-14734460D01*
X14529558Y-14734460D02*
X14520034Y-14724936D01*
X14720034Y-14543984D02*
X14720034Y-14582079D01*
X14796225Y-14543984D02*
X14796225Y-14582079D01*
X15091463Y-14820174D02*
X15081939Y-14810650D01*
X15081939Y-14810650D02*
X15062891Y-14782079D01*
X15062891Y-14782079D02*
X15053368Y-14763031D01*
X15053368Y-14763031D02*
X15043844Y-14734460D01*
X15043844Y-14734460D02*
X15034320Y-14686841D01*
X15034320Y-14686841D02*
X15034320Y-14648746D01*
X15034320Y-14648746D02*
X15043844Y-14601127D01*
X15043844Y-14601127D02*
X15053368Y-14572555D01*
X15053368Y-14572555D02*
X15062891Y-14553508D01*
X15062891Y-14553508D02*
X15081939Y-14524936D01*
X15081939Y-14524936D02*
X15091463Y-14515412D01*
X15148606Y-14543984D02*
X15272415Y-14543984D01*
X15272415Y-14543984D02*
X15205748Y-14620174D01*
X15205748Y-14620174D02*
X15234320Y-14620174D01*
X15234320Y-14620174D02*
X15253368Y-14629698D01*
X15253368Y-14629698D02*
X15262891Y-14639222D01*
X15262891Y-14639222D02*
X15272415Y-14658269D01*
X15272415Y-14658269D02*
X15272415Y-14705888D01*
X15272415Y-14705888D02*
X15262891Y-14724936D01*
X15262891Y-14724936D02*
X15253368Y-14734460D01*
X15253368Y-14734460D02*
X15234320Y-14743984D01*
X15234320Y-14743984D02*
X15177177Y-14743984D01*
X15177177Y-14743984D02*
X15158129Y-14734460D01*
X15158129Y-14734460D02*
X15148606Y-14724936D01*
X15348606Y-14563031D02*
X15358129Y-14553508D01*
X15358129Y-14553508D02*
X15377177Y-14543984D01*
X15377177Y-14543984D02*
X15424796Y-14543984D01*
X15424796Y-14543984D02*
X15443844Y-14553508D01*
X15443844Y-14553508D02*
X15453368Y-14563031D01*
X15453368Y-14563031D02*
X15462891Y-14582079D01*
X15462891Y-14582079D02*
X15462891Y-14601127D01*
X15462891Y-14601127D02*
X15453368Y-14629698D01*
X15453368Y-14629698D02*
X15339082Y-14743984D01*
X15339082Y-14743984D02*
X15462891Y-14743984D01*
X15700987Y-14743984D02*
X15700987Y-14543984D01*
X15786701Y-14743984D02*
X15786701Y-14639222D01*
X15786701Y-14639222D02*
X15777177Y-14620174D01*
X15777177Y-14620174D02*
X15758130Y-14610650D01*
X15758130Y-14610650D02*
X15729558Y-14610650D01*
X15729558Y-14610650D02*
X15710510Y-14620174D01*
X15710510Y-14620174D02*
X15700987Y-14629698D01*
X15910510Y-14743984D02*
X15891463Y-14734460D01*
X15891463Y-14734460D02*
X15881939Y-14724936D01*
X15881939Y-14724936D02*
X15872415Y-14705888D01*
X15872415Y-14705888D02*
X15872415Y-14648746D01*
X15872415Y-14648746D02*
X15881939Y-14629698D01*
X15881939Y-14629698D02*
X15891463Y-14620174D01*
X15891463Y-14620174D02*
X15910510Y-14610650D01*
X15910510Y-14610650D02*
X15939082Y-14610650D01*
X15939082Y-14610650D02*
X15958130Y-14620174D01*
X15958130Y-14620174D02*
X15967653Y-14629698D01*
X15967653Y-14629698D02*
X15977177Y-14648746D01*
X15977177Y-14648746D02*
X15977177Y-14705888D01*
X15977177Y-14705888D02*
X15967653Y-14724936D01*
X15967653Y-14724936D02*
X15958130Y-14734460D01*
X15958130Y-14734460D02*
X15939082Y-14743984D01*
X15939082Y-14743984D02*
X15910510Y-14743984D01*
X16091463Y-14743984D02*
X16072415Y-14734460D01*
X16072415Y-14734460D02*
X16062891Y-14715412D01*
X16062891Y-14715412D02*
X16062891Y-14543984D01*
X16243844Y-14734460D02*
X16224796Y-14743984D01*
X16224796Y-14743984D02*
X16186701Y-14743984D01*
X16186701Y-14743984D02*
X16167653Y-14734460D01*
X16167653Y-14734460D02*
X16158130Y-14715412D01*
X16158130Y-14715412D02*
X16158130Y-14639222D01*
X16158130Y-14639222D02*
X16167653Y-14620174D01*
X16167653Y-14620174D02*
X16186701Y-14610650D01*
X16186701Y-14610650D02*
X16224796Y-14610650D01*
X16224796Y-14610650D02*
X16243844Y-14620174D01*
X16243844Y-14620174D02*
X16253368Y-14639222D01*
X16253368Y-14639222D02*
X16253368Y-14658269D01*
X16253368Y-14658269D02*
X16158130Y-14677317D01*
X16329558Y-14734460D02*
X16348606Y-14743984D01*
X16348606Y-14743984D02*
X16386701Y-14743984D01*
X16386701Y-14743984D02*
X16405749Y-14734460D01*
X16405749Y-14734460D02*
X16415272Y-14715412D01*
X16415272Y-14715412D02*
X16415272Y-14705888D01*
X16415272Y-14705888D02*
X16405749Y-14686841D01*
X16405749Y-14686841D02*
X16386701Y-14677317D01*
X16386701Y-14677317D02*
X16358130Y-14677317D01*
X16358130Y-14677317D02*
X16339082Y-14667793D01*
X16339082Y-14667793D02*
X16329558Y-14648746D01*
X16329558Y-14648746D02*
X16329558Y-14639222D01*
X16329558Y-14639222D02*
X16339082Y-14620174D01*
X16339082Y-14620174D02*
X16358130Y-14610650D01*
X16358130Y-14610650D02*
X16386701Y-14610650D01*
X16386701Y-14610650D02*
X16405749Y-14620174D01*
X16481939Y-14820174D02*
X16491463Y-14810650D01*
X16491463Y-14810650D02*
X16510511Y-14782079D01*
X16510511Y-14782079D02*
X16520034Y-14763031D01*
X16520034Y-14763031D02*
X16529558Y-14734460D01*
X16529558Y-14734460D02*
X16539082Y-14686841D01*
X16539082Y-14686841D02*
X16539082Y-14648746D01*
X16539082Y-14648746D02*
X16529558Y-14601127D01*
X16529558Y-14601127D02*
X16520034Y-14572555D01*
X16520034Y-14572555D02*
X16510511Y-14553508D01*
X16510511Y-14553508D02*
X16491463Y-14524936D01*
X16491463Y-14524936D02*
X16481939Y-14515412D01*
M02*
